<svg enable-background="new 0 0 112 72" viewBox="0 0 112 72" xmlns="http://www.w3.org/2000/svg" xmlns:xlink="http://www.w3.org/1999/xlink"><clipPath id="a"><circle cx="56" cy="30" r="30"/></clipPath><clipPath id="b"><circle cx="56" cy="30" r="30"/></clipPath><g fill="#005073"><path d="m37.5 60h-9c-.2761 0-.5-.2239-.5-.5 0-.2761.2239-.5.5-.5h9c.2761 0 .5.2239.5.5 0 .2761-.2239.5-.5.5z"/><path d="m37.5 49h-18c-.2761 0-.5-.2239-.5-.5 0-.2761.2239-.5.5-.5h18c.2761 0 .5.2239.5.5 0 .2761-.2239.5-.5.5z"/><path d="m37.5 37h-25c-.2761 0-.5-.2239-.5-.5 0-.2761.2239-.5.5-.5h25c.2761 0 .5.2239.5.5 0 .2761-.2239.5-.5.5z"/><path d="m52.5381 72c-.1543 0-.3086-.0098-.4639-.0283-1.1348-.1416-2.1191-.7881-2.7002-1.7744-3.3594-5.7002-5.2861-14.1553-5.2861-23.1973s1.9268-17.4966 5.2861-23.1973c.5811-.9863 1.5654-1.6328 2.7002-1.7744 1.1387-.1431 2.2656.2461 3.0811 1.0684l2.9531 2.9819c1.3438 1.3564 1.7578 3.3843 1.0537 5.1655l-1.4785 3.7451c-.6367 1.6113-1.9365 2.8496-3.5664 3.3975l-2.2568.7598c-.6055.2041-1.0312.7354-1.1113 1.3867-.46 3.7197-.4443 8.4336.0449 12.9346.0703.6475.5049 1.1973 1.1074 1.4004l2.2158.7461c1.6309.5479 2.9307 1.7861 3.5664 3.3965l1.4785 3.7451c.7041 1.7812.29 3.8096-1.0537 5.165l-2.9531 2.9814c-.7041.711-1.6387 1.0977-2.6172 1.0977zm-.0029-49.0005c-.1113 0-.2246.0068-.3379.021-.8242.103-1.5391.5732-1.9619 1.29-3.2715 5.5513-5.1475 13.8213-5.1475 22.6895s1.876 17.1387 5.1475 22.6895c.4229.7168 1.1377 1.1865 1.9619 1.2891.8408.1094 1.6533-.1807 2.2471-.7793l2.9531-2.9814c1.0654-1.0752 1.3926-2.6816.835-4.0947l-1.4785-3.7451c-.5273-1.3359-1.6045-2.3623-2.9551-2.8164l-2.2158-.7461c-.9717-.3271-1.6719-1.2061-1.7832-2.2402-.4971-4.5732-.5127-9.3721-.043-13.165.1279-1.0361.8115-1.8838 1.7852-2.2109l2.2568-.7598c1.3496-.4541 2.4268-1.4805 2.9551-2.8174l1.4785-3.7451c.5576-1.4126.2305-3.0195-.835-4.0942l-2.9531-2.9819c-.5137-.5189-1.1954-.8016-1.9092-.8016z"/></g><circle cx="56" cy="30" fill="#d540d8" r="30"/><path clip-path="url(#a)" d="m52.5381 72c-.1543 0-.3086-.0098-.4639-.0283-1.1348-.1416-2.1191-.7881-2.7002-1.7744-3.3594-5.7002-5.2861-14.1553-5.2861-23.1973s1.9268-17.4966 5.2861-23.1973c.5811-.9863 1.5654-1.6328 2.7002-1.7744 1.1387-.1431 2.2656.2461 3.0811 1.0684l2.9531 2.9819c1.3438 1.3564 1.7578 3.3843 1.0537 5.1655l-1.4785 3.7451c-.6367 1.6113-1.9365 2.8496-3.5664 3.3975l-2.2568.7598c-.6055.2041-1.0312.7354-1.1113 1.3867-.46 3.7197-.4443 8.4336.0449 12.9346.0703.6475.5049 1.1973 1.1074 1.4004l2.2158.7461c1.6309.5479 2.9307 1.7861 3.5664 3.3965l1.4785 3.7451c.7041 1.7812.29 3.8096-1.0537 5.165l-2.9531 2.9814c-.7041.711-1.6387 1.0977-2.6172 1.0977zm-.0029-49.0005c-.1113 0-.2246.0068-.3379.021-.8242.103-1.5391.5732-1.9619 1.29-3.2715 5.5513-5.1475 13.8213-5.1475 22.6895s1.876 17.1387 5.1475 22.6895c.4229.7168 1.1377 1.1865 1.9619 1.2891.8408.1094 1.6533-.1807 2.2471-.7793l2.9531-2.9814c1.0654-1.0752 1.3926-2.6816.835-4.0947l-1.4785-3.7451c-.5273-1.3359-1.6045-2.3623-2.9551-2.8164l-2.2158-.7461c-.9717-.3271-1.6719-1.2061-1.7832-2.2402-.4971-4.5732-.5127-9.3721-.043-13.165.1279-1.0361.8115-1.8838 1.7852-2.2109l2.2568-.7598c1.3496-.4541 2.4268-1.4805 2.9551-2.8174l1.4785-3.7451c.5576-1.4126.2305-3.0195-.835-4.0942l-2.9531-2.9819c-.5137-.5189-1.1954-.8016-1.9092-.8016z" fill="#fff"/><path clip-path="url(#b)" d="m37.5 49h-18c-.2761 0-.5-.2239-.5-.5 0-.2761.2239-.5.5-.5h18c.2761 0 .5.2239.5.5 0 .2761-.2239.5-.5.5z" fill="#fff"/><path clip-path="url(#b)" d="m37.5 37h-25c-.2761 0-.5-.2239-.5-.5 0-.2761.2239-.5.5-.5h25c.2761 0 .5.2239.5.5 0 .2761-.2239.5-.5.5z" fill="#fff"/></svg>