<?xml version="1.0" encoding="utf-8"?>
<!-- Generator: Adobe Illustrator 21.0.2, SVG Export Plug-In . SVG Version: 6.00 Build 0)  -->
<svg version="1.1" id="Layer_1" xmlns="http://www.w3.org/2000/svg" xmlns:xlink="http://www.w3.org/1999/xlink" x="0px" y="0px"
	 viewBox="0 0 40 40" style="enable-background:new 0 0 40 40;" xml:space="preserve">
<style type="text/css">
	.st0{fill:#FFFFFF;}
	.st1{opacity:0.08;fill:#444444;}
	.st2{fill:#07C1E4;}
	.st3{opacity:0.16;fill:#444444;}
	.st4{fill:#05A1BF;}
	.st5{opacity:0.16;fill:none;stroke:#444444;stroke-width:0.5;stroke-miterlimit:10;}
	.st6{fill:#444444;}
	.st7{opacity:0.5;fill:#FF4444;}
	.st8{fill:#0000F9;}
	.st9{opacity:0.5;fill:#FFF800;}
	.st10{fill:#E3E3E3;}
	.st11{fill:#D4D4D4;}
	.st12{fill:#F0F0F0;}
	.st13{fill:#30D557;}
	.st14{fill:#FF513D;}
	.st15{fill:#FFB400;}
</style>
<g>
	<g>
		<path class="st0" d="M21.5542,35.0014c-0.375,0-0.7432-0.1465-1.02-0.4238l-8.4692-8.5859H8.5c-1.9297,0-3.5-1.5703-3.5-3.5v-5
			c0-1.9297,1.5703-3.493,3.5-3.493h3.5654l8.4644-8.5734c0.002-0.002,0.0039-0.0029,0.0054-0.0049
			c0.415-0.4141,1.0332-0.5342,1.5742-0.3115C22.6504,5.3334,23,5.8569,23,6.4428v27.1133c0,0.5869-0.3501,1.1104-0.8916,1.335
			C21.9287,34.9653,21.7407,35.0014,21.5542,35.0014z M8.5,15.9916c-0.8271,0-1.5,0.6729-1.5,1.5v5c0,0.8271,0.6729,1.507,1.5,1.507
			h3.9834c0.2676,0,0.5239,0.1004,0.7119,0.2909L21,32.2016V7.7953l-7.8052,7.8994c-0.188,0.1895-0.4443,0.2969-0.7114,0.2969H8.5z"
			/>
	</g>
	<path class="st0" d="M30,30.9916c-0.2559,0-0.5117-0.0977-0.707-0.293c-0.3906-0.3906-0.3906-1.0234,0-1.4141
		C31.6836,26.894,33,23.5942,33,19.9926c0-3.6025-1.3164-6.9033-3.707-9.2939c-0.3906-0.3906-0.3906-1.0234,0-1.4141
		s1.0234-0.3906,1.4141,0C33.4756,12.0532,35,15.8559,35,19.9926c0,4.1357-1.5244,7.9375-4.293,10.7061
		C30.5117,30.894,30.2559,30.9916,30,30.9916z"/>
	<path class="st0" d="M27,27.9916c-0.2559,0-0.5117-0.0977-0.707-0.293c-0.3906-0.3906-0.3906-1.0234,0-1.4141
		C28.0386,24.5395,29,22.3051,29,19.9926s-0.9614-4.5479-2.707-6.2939c-0.3906-0.3906-0.3906-1.0234,0-1.4141
		s1.0234-0.3906,1.4141,0c2.1235,2.124,3.293,4.8613,3.293,7.708s-1.1694,5.583-3.293,7.7061
		C27.5117,27.894,27.2559,27.9916,27,27.9916z"/>
</g>
</svg>
