<?xml version="1.0" encoding="UTF-8"?>
<svg width="16px" height="16px" viewBox="0 0 16 16" version="1.1" xmlns="http://www.w3.org/2000/svg" xmlns:xlink="http://www.w3.org/1999/xlink">
    <!-- Generator: Sketch 49.3 (51167) - http://www.bohemiancoding.com/sketch -->
    <title>Back</title>
    <desc>Created with Sketch.</desc>
    <defs></defs>
    <g id="Page-1" stroke="none" stroke-width="1" fill="none" fill-rule="evenodd">
        <g id="back_16" transform="translate(1.000000, 1.000000)" fill="#000000">
            <g id="icon">
                <path d="M1.70720593,6.49975 L6.86169575,1.35375 C7.05652528,1.15875 7.05652528,0.84175 6.86169575,0.64675 C6.6658671,0.45075 6.35014336,0.45175 6.15431471,0.64575 L0.146571487,6.64575 C0.0526536655,6.73975 -0.0003,6.86675 -0.0003,6.99975 C-0.0003,7.13275 0.0526536655,7.25975 0.146571487,7.35375 L6.15431471,13.35375 C6.25222904,13.45075 6.38011714,13.49975 6.50800523,13.49975 C6.63589333,13.49975 6.76378143,13.45075 6.86169575,13.35275 C7.05652528,13.15775 7.05652528,12.84075 6.86169575,12.64575 L1.70720593,7.49975 L13.5001371,7.49975 C13.7758958,7.49975 13.9997,7.27575 13.9997,6.99975 C13.9997,6.72375 13.7758958,6.49975 13.5001371,6.49975 L1.70720593,6.49975 Z" id="fill"></path>
            </g>
        </g>
        <g id="slices" transform="translate(-2.000000, -221.000000)"></g>
    </g>
</svg>