<svg xmlns="http://www.w3.org/2000/svg" viewBox="0 0 16 16"><defs><style>.cls-1{fill:#444;}</style></defs><title>Blinds</title><g id="Layer_2" data-name="Layer 2"><path class="cls-1" d="M14.5,7H12.9747a5.4739,5.4739,0,0,0-1.2507-3.0169l1.0793-1.0793a.5.5,0,0,0-.707-.707L11.0169,3.2761A5.4739,5.4739,0,0,0,8,2.0253V.5a.5.5,0,0,0-1,0V2.0253A5.4739,5.4739,0,0,0,3.9831,3.2761L2.9038,2.1968a.5.5,0,0,0-.707.707L3.2761,3.9831A5.4739,5.4739,0,0,0,2.0253,7H.5a.5.5,0,0,0,0,1H2.0253a5.4739,5.4739,0,0,0,1.2507,3.0169L2.1968,12.0962a.5.5,0,1,0,.707.707l1.0793-1.0793A5.4739,5.4739,0,0,0,7,12.9747V14.5a.5.5,0,0,0,1,0V12.9747a5.4739,5.4739,0,0,0,3.0169-1.2507l1.0793,1.0793a.5.5,0,0,0,.707-.707l-1.0793-1.0793A5.4739,5.4739,0,0,0,12.9747,8H14.5a.5.5,0,0,0,0-1ZM3,7.5A4.49,4.49,0,0,1,7,3.0505v8.8989A4.49,4.49,0,0,1,3,7.5Zm5,4.4495V3.0505a4.4747,4.4747,0,0,1,0,8.8989Z"/></g></svg>