<?xml version="1.0" encoding="utf-8"?>
<!-- Generator: Adobe Illustrator 21.0.2, SVG Export Plug-In . SVG Version: 6.00 Build 0)  -->
<svg version="1.1" xmlns="http://www.w3.org/2000/svg" xmlns:xlink="http://www.w3.org/1999/xlink" x="0px" y="0px"
	 viewBox="0 0 16 16" style="enable-background:new 0 0 16 16;" xml:space="preserve">
<style type="text/css">
	.st0{fill:#444444;}
	.st1{fill:#07C1E4;}
	.st2{fill:#FFFFFF;}
	.st3{opacity:0.48;}
	.st4{opacity:0.16;fill:#444444;}
	.st5{opacity:0.06;fill:#444444;}
	.st6{opacity:0.08;fill:#444444;}
	.st7{fill:#D6F7FD;}
</style>
<g id="Layer_1">
</g>
<g id="Layer_2">
	<path class="st1" d="M14.5,7h-1.5253c-0.1035-1.1414-0.5554-2.1832-1.2507-3.0169l1.0793-1.0793
		c0.1953-0.1953,0.1953-0.5117,0-0.707s-0.5117-0.1953-0.707,0l-1.0793,1.0793C10.1832,2.5807,9.1414,2.1288,8,2.0253v-0.353V0.5
		C8,0.2236,7.7764,0,7.5,0S7,0.2236,7,0.5v1.1723v0.353C5.8586,2.1288,4.8168,2.5807,3.9831,3.2761L2.9038,2.1968
		c-0.1953-0.1953-0.5117-0.1953-0.707,0s-0.1953,0.5117,0,0.707l1.0793,1.0793C2.5807,4.8168,2.1288,5.8586,2.0253,7H0.5
		C0.2236,7,0,7.2236,0,7.5S0.2236,8,0.5,8h1.5253c0.1035,1.1414,0.5554,2.1832,1.2507,3.0169l-1.0793,1.0793
		c-0.1953,0.1953-0.1953,0.5117,0,0.707c0.0977,0.0977,0.2256,0.1465,0.3535,0.1465s0.2559-0.0488,0.3535-0.1465l1.0793-1.0793
		C4.8168,12.4193,5.8586,12.8712,7,12.9747v0.353V14.5C7,14.7764,7.2236,15,7.5,15S8,14.7764,8,14.5v-1.1723v-0.353
		c1.1414-0.1035,2.1832-0.5554,3.0169-1.2507l1.0793,1.0793c0.0977,0.0977,0.2256,0.1465,0.3535,0.1465s0.2559-0.0488,0.3535-0.1465
		c0.1953-0.1953,0.1953-0.5117,0-0.707l-1.0793-1.0793C12.4193,10.1832,12.8712,9.1414,12.9747,8H14.5C14.7764,8,15,7.7764,15,7.5
		S14.7764,7,14.5,7z M3,7.5c0-2.3102,1.7562-4.197,4-4.4495v8.8989C4.7562,11.697,3,9.8102,3,7.5z M8,11.9495V3.0505
		C10.2438,3.303,12,5.1898,12,7.5S10.2438,11.697,8,11.9495z"/>
</g>
</svg>
