<svg viewBox="0 0 16 16" xmlns="http://www.w3.org/2000/svg"><path d="m14.5 7h-1.5253a5.4739 5.4739 0 0 0 -1.2507-3.0169l1.0793-1.0793a.5.5 0 0 0 -.707-.707l-1.0794 1.0793a5.4739 5.4739 0 0 0 -3.0169-1.2508v-1.5253a.5.5 0 0 0 -1 0v1.5253a5.4739 5.4739 0 0 0 -3.0169 1.2508l-1.0793-1.0793a.5.5 0 0 0 -.707.707l1.0793 1.0793a5.4739 5.4739 0 0 0 -1.2508 3.0169h-1.5253a.5.5 0 0 0 0 1h1.5253a5.4739 5.4739 0 0 0 1.2507 3.0169l-1.0792 1.0793a.5.5 0 1 0 .707.707l1.0793-1.0793a5.4739 5.4739 0 0 0 3.0169 1.2508v1.5253a.5.5 0 0 0 1 0v-1.5253a5.4739 5.4739 0 0 0 3.0169-1.2507l1.0793 1.0793a.5.5 0 0 0 .707-.707l-1.0793-1.0793a5.4739 5.4739 0 0 0 1.2508-3.017h1.5253a.5.5 0 0 0 0-1zm-11.5.5a4.49 4.49 0 0 1 4-4.4495v8.8989a4.49 4.49 0 0 1 -4-4.4494zm5 4.4495v-8.899a4.4747 4.4747 0 0 1 0 8.8989z" fill="#444"/></svg>