<svg enable-background="new 0 0 16 16" viewBox="0 0 16 16" xmlns="http://www.w3.org/2000/svg"><path d="m14.5 7h-1.5253c-.1035-1.1414-.5554-2.1832-1.2507-3.0169l1.0793-1.0793c.1953-.1953.1953-.5117 0-.707s-.5117-.1953-.707 0l-1.0793 1.0793c-.8338-.6954-1.8756-1.1473-3.017-1.2508v-.353-1.1723c0-.2764-.2236-.5-.5-.5s-.5.2236-.5.5v1.1723.353c-1.1414.1035-2.1832.5554-3.0169 1.2508l-1.0793-1.0793c-.1953-.1953-.5117-.1953-.707 0s-.1953.5117 0 .707l1.0793 1.0793c-.6954.8337-1.1473 1.8755-1.2508 3.0169h-1.5253c-.2764 0-.5.2236-.5.5s.2236.5.5.5h1.5253c.1035 1.1414.5554 2.1832 1.2507 3.0169l-1.0793 1.0793c-.1953.1953-.1953.5117 0 .707.0977.0977.2256.1465.3535.1465s.2559-.0488.3535-.1465l1.0793-1.0793c.8338.6954 1.8756 1.1473 3.017 1.2508v.353 1.1723c0 .2764.2236.5.5.5s.5-.2236.5-.5v-1.1723-.353c1.1414-.1035 2.1832-.5554 3.0169-1.2507l1.0793 1.0793c.0977.0977.2256.1465.3535.1465s.2559-.0488.3535-.1465c.1953-.1953.1953-.5117 0-.707l-1.0793-1.0793c.6954-.8338 1.1473-1.8756 1.2508-3.017h1.5253c.2764 0 .5-.2236.5-.5s-.2236-.5-.5-.5zm-11.5.5c0-2.3102 1.7562-4.197 4-4.4495v8.8989c-2.2438-.2524-4-2.1392-4-4.4494zm5 4.4495v-8.899c2.2438.2525 4 2.1393 4 4.4495s-1.7562 4.197-4 4.4495z" fill="#ffffff"/></svg>