<svg enable-background="new 0 0 16 16" viewBox="0 0 16 16" xmlns="http://www.w3.org/2000/svg"><path d="m7.5015 0c-.2772 0-.5015.2236-.5015.5v.5253c-3.9024.2592-7 3.5077-7 7.4747 0 4.1357 3.3643 7.5 7.5 7.5 3.967 0 7.2155-3.0976 7.4747-7h.5238c.2772 0 .5015-.2236.5015-.5 0-4.687-3.8124-8.5-8.4985-8.5zm.4985 1c3.735.248 6.7335 3.2627 6.9803 7h-6.9803zm-.5 14c-3.584 0-6.5-2.916-6.5-6.5 0-3.4152 2.6495-6.2177 6-6.4747v6.4747c0 .2764.2243.5.5015.5h6.4731c-.2569 3.3505-3.0594 6-6.4746 6z" fill="#ffffff"/></svg>