<?xml version="1.0" encoding="utf-8"?>
<!-- Generator: Adobe Illustrator 21.0.2, SVG Export Plug-In . SVG Version: 6.00 Build 0)  -->
<svg version="1.1" xmlns="http://www.w3.org/2000/svg" xmlns:xlink="http://www.w3.org/1999/xlink" x="0px" y="0px"
	 viewBox="0 0 16 16" style="enable-background:new 0 0 16 16;" xml:space="preserve">
<style type="text/css">
	.st0{fill:#444444;}
	.st1{fill:#07C1E4;}
	.st2{fill:#FFFFFF;}
	.st3{opacity:0.48;}
	.st4{opacity:0.16;fill:#444444;}
	.st5{opacity:0.06;fill:#444444;}
	.st6{opacity:0.08;fill:#444444;}
	.st7{fill:#D6F7FD;}
</style>
<g id="Layer_1">
</g>
<g id="Layer_2">
	<path class="st1" d="M7.5015,0C7.2243,0,7,0.2236,7,0.5v0.5253C3.0976,1.2845,0,4.533,0,8.5C0,12.6357,3.3643,16,7.5,16
		c3.967,0,7.2155-3.0976,7.4747-7h0.5238C15.7757,9,16,8.7764,16,8.5C16,3.813,12.1876,0,7.5015,0z M8,1
		c3.735,0.248,6.7335,3.2627,6.9803,7H8V1z M7.5,15C3.916,15,1,12.084,1,8.5c0-3.4152,2.6495-6.2177,6-6.4747V8.5
		C7,8.7764,7.2243,9,7.5015,9h6.4731C13.7177,12.3505,10.9152,15,7.5,15z"/>
</g>
</svg>
