<svg xmlns="http://www.w3.org/2000/svg" viewBox="0 0 16 16"><defs><style>.cls-1{fill:#444;}</style></defs><title>Bulb</title><g id="Layer_2" data-name="Layer 2"><path class="cls-1" d="M7.5-.0122A4.5474,4.5474,0,0,0,3,4.5713a6.7209,6.7209,0,0,0,.8662,3.1206.8225.8225,0,0,1,.0625.1431l1.02,5.0381a2.5967,2.5967,0,0,0,5.1025.0034l1.0156-5.0156a.7035.7035,0,0,1,.0664-.1675A6.7211,6.7211,0,0,0,12,4.5713,4.5474,4.5474,0,0,0,7.5-.0122Zm1.5713,12.687a1.5969,1.5969,0,0,1-3.1436-.0034L5.7883,12h3.42ZM9.4106,11h-3.83l-.2077-1h4.24Zm.8462-3.7886a1.7,1.7,0,0,0-.166.4321L9.816,9H8V5.5a.5.5,0,0,0-1,0V9H5.1747l-.27-1.3823A1.7072,1.7072,0,0,0,4.7422,7.21,5.6939,5.6939,0,0,1,4,4.5713,3.5466,3.5466,0,0,1,7.5.9878,3.5466,3.5466,0,0,1,11,4.5713,5.6941,5.6941,0,0,1,10.2568,7.2114Z"/></g></svg>