<?xml version="1.0" encoding="utf-8"?>
<!-- Generator: Adobe Illustrator 21.0.2, SVG Export Plug-In . SVG Version: 6.00 Build 0)  -->
<svg version="1.1" xmlns="http://www.w3.org/2000/svg" xmlns:xlink="http://www.w3.org/1999/xlink" x="0px" y="0px"
	 viewBox="0 0 16 16" style="enable-background:new 0 0 16 16;" xml:space="preserve">
<style type="text/css">
	.st0{fill:#444444;}
	.st1{fill:#07C1E4;}
	.st2{fill:#FFFFFF;}
	.st3{opacity:0.48;}
	.st4{opacity:0.16;fill:#444444;}
	.st5{opacity:0.06;fill:#444444;}
	.st6{opacity:0.08;fill:#444444;}
	.st7{fill:#D6F7FD;}
</style>
<g id="Layer_1">
</g>
<g id="Layer_2">
	<path class="st1" d="M7.5-0.0122c-2.4814,0-4.5,2.0562-4.5,4.5835c0,0.9868,0.3164,2.1245,0.8662,3.1206
		C3.8975,7.7495,3.9199,7.8047,3.9287,7.835l1.0195,5.0381c0.248,1.2256,1.3213,2.1147,2.5518,2.1147s2.3037-0.8892,2.5508-2.1113
		l1.0156-5.0156c0.0137-0.0562,0.0361-0.1113,0.0664-0.1675C11.6836,6.6958,12,5.5581,12,4.5713C12,2.0439,9.9814-0.0122,7.5-0.0122
		z M9.0713,12.6748c-0.1543,0.7607-0.8145,1.313-1.5713,1.313s-1.417-0.5522-1.5723-1.3164L5.7883,12H9.208L9.0713,12.6748z
		 M9.4106,11H5.5806l-0.2077-1h4.2404L9.4106,11z M10.2568,7.2114c-0.0723,0.1309-0.126,0.2676-0.166,0.4321L9.816,9H8V5.5
		C8,5.2236,7.7764,5,7.5,5S7,5.2236,7,5.5V9H5.1747L4.9043,7.6177C4.8691,7.479,4.8154,7.3423,4.7422,7.21
		C4.2705,6.356,4,5.394,4,4.5713c0-1.9761,1.5703-3.5835,3.5-3.5835S11,2.5952,11,4.5713C11,5.394,10.7295,6.356,10.2568,7.2114z"/>
</g>
</svg>
