<svg enable-background="new 0 0 16 16" viewBox="0 0 16 16" xmlns="http://www.w3.org/2000/svg"><path d="m7.5-.0122c-2.4814 0-4.5 2.0562-4.5 4.5835 0 .9868.3164 2.1245.8662 3.1206.0313.0576.0537.1128.0625.1431l1.0195 5.0381c.248 1.2256 1.3213 2.1147 2.5518 2.1147s2.3037-.8892 2.5508-2.1113l1.0156-5.0156c.0137-.0562.0361-.1113.0664-.1675.5508-.9976.8672-2.1353.8672-3.1221 0-2.5274-2.0186-4.5835-4.5-4.5835zm1.5713 12.687c-.1543.7607-.8145 1.313-1.5713 1.313s-1.417-.5522-1.5723-1.3164l-.1394-.6714h3.4197zm.3393-1.6748h-3.83l-.2077-1h4.2404zm.8462-3.7886c-.0723.1309-.126.2676-.166.4321l-.2748 1.3565h-1.816v-3.5c0-.2764-.2236-.5-.5-.5s-.5.2236-.5.5v3.5h-1.8253l-.2704-1.3823c-.0352-.1387-.0889-.2754-.1621-.4077-.4717-.854-.7422-1.816-.7422-2.6387 0-1.9761 1.5703-3.5835 3.5-3.5835s3.5 1.6074 3.5 3.5835c0 .8227-.2705 1.7847-.7432 2.6401z" fill="#ffffff"/></svg>