<svg viewBox="0 0 16 16" xmlns="http://www.w3.org/2000/svg"><path d="m7.5-.0122a4.5474 4.5474 0 0 0 -4.5 4.5835 6.7209 6.7209 0 0 0 .8662 3.1206.8225.8225 0 0 1 .0625.1431l1.02 5.0381a2.5967 2.5967 0 0 0 5.1025.0034l1.0156-5.0156a.7035.7035 0 0 1 .0664-.1675 6.7211 6.7211 0 0 0 .8668-3.1221 4.5474 4.5474 0 0 0 -4.5-4.5835zm1.5713 12.687a1.5969 1.5969 0 0 1 -3.1436-.0034l-.1394-.6714h3.42zm.3393-1.6748h-3.83l-.2077-1h4.24zm.8462-3.7886a1.7 1.7 0 0 0 -.166.4321l-.2748 1.3565h-1.816v-3.5a.5.5 0 0 0 -1 0v3.5h-1.8253l-.27-1.3823a1.7072 1.7072 0 0 0 -.1625-.4077 5.6939 5.6939 0 0 1 -.7422-2.6387 3.5466 3.5466 0 0 1 3.5-3.5835 3.5466 3.5466 0 0 1 3.5 3.5835 5.6941 5.6941 0 0 1 -.7432 2.6401z" fill="#444"/></svg>