<?xml version="1.0" encoding="utf-8"?>
<!-- Generator: Adobe Illustrator 19.1.0, SVG Export Plug-In . SVG Version: 6.00 Build 0)  -->
<svg version="1.1" id="Layer_1" xmlns="http://www.w3.org/2000/svg" xmlns:xlink="http://www.w3.org/1999/xlink" x="0px" y="0px"
	 viewBox="0 0 34 46" enable-background="new 0 0 34 46" xml:space="preserve">
<g>
	<path fill="#343537" d="M2,3L2,3c0,1.1,0.1,2.2,0.3,3.3C3.2,13,5.9,20,10.4,26.6s10.1,11.6,16,14.9c1,0.5,2,1,3,1.5l0,0l0,0
		l2.6-7.8c0.1-0.4,0-0.8-0.4-1l-7.2-4.1c-0.9-0.5-1.9-0.6-2.8-0.4l-3.8,0.9c-1.6-1.8-3.2-3.7-4.6-5.8s-2.7-4.2-3.7-6.4l2.2-3.2
		c0.6-0.8,0.8-1.8,0.6-2.8l0,0l-1.2-8.3c-0.1-0.4-0.4-0.7-0.8-0.7L2,3L2,3z"/>
</g>
</svg>
