<?xml version="1.0" encoding="utf-8"?>
<!-- Generator: Adobe Illustrator 21.0.2, SVG Export Plug-In . SVG Version: 6.00 Build 0)  -->
<svg version="1.1" xmlns="http://www.w3.org/2000/svg" xmlns:xlink="http://www.w3.org/1999/xlink" x="0px" y="0px"
	 viewBox="0 0 16 16" style="enable-background:new 0 0 16 16;" xml:space="preserve">
<style type="text/css">
	.st0{fill:#444444;}
	.st1{fill:#07C1E4;}
	.st2{fill:#FFFFFF;}
	.st3{opacity:0.48;}
	.st4{opacity:0.16;fill:#444444;}
	.st5{opacity:0.06;fill:#444444;}
	.st6{opacity:0.08;fill:#444444;}
	.st7{fill:#D6F7FD;}
</style>
<g id="Layer_1">
</g>
<g id="Layer_2">
	<path class="st1" d="M15.3828,4.0776c-0.376-0.1558-0.8027-0.0718-1.0908,0.2163L12,6.5861V4c0-1.103-0.8975-2-2-2H2
		C0.8975,2,0,2.897,0,4v8c0,1.103,0.8975,2,2,2h8c1.1025,0,2-0.897,2-2V9.4142l2.292,2.2923
		c0.1924,0.1914,0.4463,0.293,0.7061,0.293c0.1299,0,0.2598-0.0254,0.3848-0.0771C15.7578,11.7671,16,11.4048,16,10.999V5.001
		C16,4.5952,15.7578,4.2329,15.3828,4.0776z M11,12c0,0.5513-0.4482,1-1,1H2c-0.5518,0-1-0.4487-1-1V4c0-0.5513,0.4482-1,1-1h8
		c0.5518,0,1,0.4487,1,1V12z M15,11l-2.9993-2.9998L15,5.001V11z"/>
</g>
</svg>
