<svg xmlns="http://www.w3.org/2000/svg" viewBox="0 0 16 16"><defs><style>.cls-1{fill:#444;}</style></defs><title>Camera</title><g id="Layer_2" data-name="Layer 2"><path class="cls-1" d="M15.3828,4.0776a.9959.9959,0,0,0-1.0908.2163L12,6.5861V4a2.0023,2.0023,0,0,0-2-2H2A2.0023,2.0023,0,0,0,0,4v8a2.0023,2.0023,0,0,0,2,2h8a2.0023,2.0023,0,0,0,2-2V9.4142l2.292,2.2923A1.001,1.001,0,0,0,16,10.999V5.001A.9963.9963,0,0,0,15.3828,4.0776ZM11,12a1.001,1.001,0,0,1-1,1H2a1.001,1.001,0,0,1-1-1V4A1.001,1.001,0,0,1,2,3h8a1.001,1.001,0,0,1,1,1Zm4-1L12.0007,8,15,5.001Z"/></g></svg>