<svg enable-background="new 0 0 16 16" viewBox="0 0 16 16" xmlns="http://www.w3.org/2000/svg"><path d="m15.3828 4.0776c-.376-.1558-.8027-.0718-1.0908.2163l-2.292 2.2922v-2.5861c0-1.103-.8975-2-2-2h-8c-1.1025 0-2 .897-2 2v8c0 1.103.8975 2 2 2h8c1.1025 0 2-.897 2-2v-2.5858l2.292 2.2923c.1924.1914.4463.293.7061.293.1299 0 .2598-.0254.3848-.0771.3749-.1553.6171-.5176.6171-.9234v-5.998c0-.4058-.2422-.7681-.6172-.9234zm-4.3828 7.9224c0 .5513-.4482 1-1 1h-8c-.5518 0-1-.4487-1-1v-8c0-.5513.4482-1 1-1h8c.5518 0 1 .4487 1 1zm4-1-2.9993-2.9998 2.9993-2.9992z" fill="#ffffff"/></svg>