<?xml version="1.0" encoding="utf-8"?>
<!-- Generator: Adobe Illustrator 22.0.1, SVG Export Plug-In . SVG Version: 6.00 Build 0)  -->
<svg version="1.1" id="Layer_1" xmlns="http://www.w3.org/2000/svg" xmlns:xlink="http://www.w3.org/1999/xlink" x="0px" y="0px"
	 viewBox="0 0 62 32" style="enable-background:new 0 0 62 32;" xml:space="preserve">
<style type="text/css">
	.st0{fill:#9FA1A4;}
</style>
<g>
	<g>
		<g>
			<rect x="17.8143" y="21.2625" class="st0" width="2.6623" height="10.5497"/>
			<path class="st0" d="M41.9425,24.2855c-0.1087-0.056-0.9668-0.5632-2.2399-0.5632c-1.7211,0-2.9151,1.1981-2.9151,2.8138
				c0,1.5679,1.143,2.8163,2.9151,2.8163c1.2517,0,2.123-0.4966,2.2399-0.56v2.832C41.6082,31.7184,40.6991,32,39.5165,32
				c-2.9941,0-5.6227-2.0645-5.6227-5.4639c0-3.1507,2.3782-5.4606,5.6227-5.4606c1.2484,0,2.1741,0.3038,2.426,0.3779V24.2855z"/>
			<path class="st0" d="M14.1548,24.2855c-0.1071-0.056-0.9635-0.5632-2.2366-0.5632c-1.7244,0-2.9176,1.1981-2.9176,2.8138
				c0,1.5679,1.1438,2.8163,2.9176,2.8163c1.2517,0,2.1221-0.4966,2.2366-0.56v2.832C13.8237,31.7184,12.9162,32,11.7271,32
				c-2.9926,0-5.6178-2.0645-5.6178-5.4639c0-3.1507,2.3782-5.4606,5.6178-5.4606c1.2525,0,2.1773,0.3038,2.4276,0.3779V24.2855z"/>
			<path class="st0" d="M55.8925,26.5361c0,3.0181-2.3305,5.4639-5.5751,5.4639c-3.2445,0-5.5717-2.4458-5.5717-5.4639
				c0-3.0132,2.3272-5.4606,5.5717-5.4606C53.562,21.0756,55.8925,23.523,55.8925,26.5361z M50.3174,23.7618
				c-1.5794,0-2.752,1.2427-2.752,2.7744c0,1.535,1.1726,2.7767,2.752,2.7767c1.5778,0,2.7538-1.2418,2.7538-2.7767
				C53.0712,25.0045,51.8952,23.7618,50.3174,23.7618z"/>
			<path class="st0" d="M30.5726,23.6605c-0.0395-0.0123-1.1603-0.322-2.081-0.322c-1.0672,0-1.647,0.3574-1.647,0.8647
				c0,0.6423,0.7823,0.8663,1.2204,1.0047l0.7346,0.2338c1.7277,0.5493,2.5149,1.7326,2.5149,3.0181
				c0,2.65-2.3305,3.5402-4.3678,3.5402c-1.4164,0-2.7423-0.2602-2.8731-0.2882v-2.4276c0.2347,0.0593,1.3505,0.3919,2.5141,0.3919
				c1.3242,0,1.9336-0.3871,1.9336-0.9849c0-0.5345-0.527-0.8433-1.1875-1.0508c-0.1614-0.0535-0.4035-0.1293-0.5683-0.1836
				c-1.483-0.4686-2.7191-1.3398-2.7191-3.0865c0-1.973,1.4774-3.298,3.9313-3.298c1.2962,0,2.5158,0.3145,2.5949,0.336V23.6605z"/>
		</g>
	</g>
	<path class="st0" d="M3.2863,9.9247c0-0.7271-0.5937-1.3167-1.3217-1.3167c-0.7271,0-1.3217,0.5896-1.3217,1.3167v2.7694
		c0,0.7313,0.5946,1.3209,1.3217,1.3209c0.728,0,1.3217-0.5896,1.3217-1.3209V9.9247z"/>
	<path class="st0" d="M10.5462,6.2898c0-0.7271-0.5937-1.3176-1.3217-1.3176c-0.728,0-1.3217,0.5904-1.3217,1.3176v6.4043
		c0,0.7313,0.5937,1.3209,1.3217,1.3209c0.728,0,1.3217-0.5896,1.3217-1.3209V6.2898z"/>
	<path class="st0" d="M17.8061,1.3167C17.8061,0.5896,17.2123,0,16.4844,0c-0.728,0-1.3217,0.5896-1.3217,1.3167v14.0092
		c0,0.7313,0.5937,1.3209,1.3217,1.3209c0.7279,0,1.3216-0.5896,1.3216-1.3209V1.3167z"/>
	<path class="st0" d="M25.066,6.2898c0-0.7271-0.5937-1.3176-1.3217-1.3176c-0.7279,0-1.3216,0.5904-1.3216,1.3176v6.4043
		c0,0.7313,0.5937,1.3209,1.3216,1.3209c0.728,0,1.3217-0.5896,1.3217-1.3209V6.2898z"/>
	<path class="st0" d="M32.3176,9.9247c0-0.7271-0.5896-1.3167-1.3134-1.3167c-0.728,0-1.3217,0.5896-1.3217,1.3167v2.7694
		c0,0.7313,0.5937,1.3209,1.3217,1.3209c0.7238,0,1.3134-0.5896,1.3134-1.3209V9.9247z"/>
	<path class="st0" d="M39.5808,6.2898c0-0.7271-0.5896-1.3176-1.3176-1.3176c-0.7263,0-1.3176,0.5904-1.3176,1.3176v6.4043
		c0,0.7313,0.5913,1.3209,1.3176,1.3209c0.728,0,1.3176-0.5896,1.3176-1.3209V6.2898z"/>
	<path class="st0" d="M46.8456,1.3167C46.8456,0.5896,46.256,0,45.528,0c-0.7279,0-1.3176,0.5896-1.3176,1.3167v14.0092
		c0,0.7313,0.5897,1.3209,1.3176,1.3209c0.728,0,1.3176-0.5896,1.3176-1.3209V1.3167z"/>
	<path class="st0" d="M54.1087,6.2898c0-0.7271-0.5896-1.3176-1.334-1.3176c-0.728,0-1.3176,0.5904-1.3176,1.3176v6.4043
		c0,0.7313,0.5896,1.3209,1.3176,1.3209c0.7444,0,1.334-0.5896,1.334-1.3209V6.2898z"/>
	<path class="st0" d="M61.3571,9.9247c0-0.7271-0.5912-1.3167-1.3176-1.3167c-0.7279,0-1.3192,0.5896-1.3192,1.3167v2.7694
		c0,0.7313,0.5913,1.3209,1.3192,1.3209c0.7264,0,1.3176-0.5896,1.3176-1.3209V9.9247z"/>
</g>
</svg>
