<?xml version="1.0" encoding="utf-8"?>
<!-- Generator: Adobe Illustrator 21.0.2, SVG Export Plug-In . SVG Version: 6.00 Build 0)  -->
<svg version="1.1" xmlns="http://www.w3.org/2000/svg" xmlns:xlink="http://www.w3.org/1999/xlink" x="0px" y="0px"
	 viewBox="0 0 16 16" style="enable-background:new 0 0 16 16;" xml:space="preserve">
<style type="text/css">
	.st0{fill:#444444;}
	.st1{fill:#07C1E4;}
	.st2{fill:#FFFFFF;}
	.st3{opacity:0.48;}
	.st4{opacity:0.16;fill:#444444;}
	.st5{opacity:0.06;fill:#444444;}
	.st6{opacity:0.08;fill:#444444;}
	.st7{fill:#D6F7FD;}
</style>
<g id="Layer_1">
</g>
<g id="Layer_2">
	<g>
		<path class="st1" d="M14.5,12h-14C0.2236,12,0,12.2236,0,12.5S0.2236,13,0.5,13h14c0.2764,0,0.5-0.2236,0.5-0.5
			S14.7764,12,14.5,12z"/>
		<path class="st1" d="M1.5,11h12c0.2764,0,0.5-0.2236,0.5-0.5c0-3.4152-2.6495-6.2177-6-6.4747V3.5C8,3.2236,7.7764,3,7.5,3
			S7,3.2236,7,3.5v0.5253C3.6495,4.2823,1,7.0848,1,10.5C1,10.7764,1.2236,11,1.5,11z M7.5,5c2.8643,0,5.2246,2.2007,5.4775,5
			H2.0225C2.2754,7.2007,4.6357,5,7.5,5z"/>
	</g>
</g>
</svg>
