<svg enable-background="new 0 0 112 72" viewBox="0 0 112 72" xmlns="http://www.w3.org/2000/svg"><path d="m95.5 9h-20c-.2764 0-.5-.2236-.5-.5s.2236-.5.5-.5h20c.2764 0 .5.2236.5.5s-.2236.5-.5.5z" fill="#afafaf"/><path d="m71.5 9h-55c-.2764 0-.5-.2236-.5-.5s.2236-.5.5-.5h55c.2764 0 .5.2236.5.5s-.2236.5-.5.5z" fill="#005073"/><circle cx="71.5" cy="8.5" fill="#ffb400" r="8.5"/><path d="m16.5 35h20c.2764 0 .5.2236.5.5s-.2236.5-.5.5h-20c-.2764 0-.5-.2236-.5-.5s.2236-.5.5-.5z" fill="#005073"/><path d="m40.5 35h55c.2764 0 .5.2236.5.5s-.2236.5-.5.5h-55c-.2764 0-.5-.2236-.5-.5s.2236-.5.5-.5z" fill="#afafaf"/><circle cx="40.5" cy="35.5" fill="#ffb400" r="8.5"/><path d="m95.5 64h-20c-.2764 0-.5-.2236-.5-.5s.2236-.5.5-.5h20c.2764 0 .5.2236.5.5s-.2236.5-.5.5z" fill="#afafaf"/><path d="m71.5 64h-55c-.2764 0-.5-.2236-.5-.5s.2236-.5.5-.5h55c.2764 0 .5.2236.5.5s-.2236.5-.5.5z" fill="#005073"/><circle cx="71.5" cy="63.5" fill="#ffb400" r="8.5"/></svg>