<svg enable-background="new 0 0 16 16" viewBox="0 0 16 16" xmlns="http://www.w3.org/2000/svg"><g fill="#ffffff"><path d="m7.5 0c-4.1357 0-7.5 3.3643-7.5 7.5s3.3643 7.5 7.5 7.5 7.5-3.3643 7.5-7.5-3.3643-7.5-7.5-7.5zm0 14c-3.584 0-6.5-2.916-6.5-6.5s2.916-6.5 6.5-6.5 6.5 2.916 6.5 6.5-2.916 6.5-6.5 6.5z"/><path d="m7.5 4c-1.9297 0-3.5 1.5703-3.5 3.5s1.5703 3.5 3.5 3.5 3.5-1.5703 3.5-3.5-1.5703-3.5-3.5-3.5zm0 6c-1.3789 0-2.5-1.1216-2.5-2.5s1.1211-2.5 2.5-2.5 2.5 1.1216 2.5 2.5-1.1211 2.5-2.5 2.5z"/><circle cx="7.5" cy="7.5" r=".5"/></g></svg>