<svg xmlns="http://www.w3.org/2000/svg" viewBox="0 0 280 280"><defs><style>.cls-1,.cls-2{fill:#444;}.cls-1{opacity:0.08;}</style></defs><title>d-pad</title><g id="Layer_2" data-name="Layer 2"><g id="Layer_1-2" data-name="Layer 1"><circle class="cls-1" cx="140" cy="140" r="140"/><circle class="cls-1" cx="140" cy="140" r="60"/><path class="cls-2" d="M149,43.5a.9968.9968,0,0,1-.707-.293L140,34.9141l-8.293,8.293a1,1,0,0,1-1.4141-1.4141l9-9a1,1,0,0,1,1.4141,0l9,9A1,1,0,0,1,149,43.5Z"/><path class="cls-2" d="M131,236.5a.9968.9968,0,0,1,.707.293l8.293,8.293,8.293-8.293a1,1,0,0,1,1.4141,1.4141l-9,9a1,1,0,0,1-1.4141,0l-9-9A1,1,0,0,1,131,236.5Z"/><path class="cls-2" d="M236.5,149a.9968.9968,0,0,1,.293-.707l8.293-8.293-8.293-8.293a1,1,0,0,1,1.4141-1.4141l9,9a1,1,0,0,1,0,1.4141l-9,9A1,1,0,0,1,236.5,149Z"/><path class="cls-2" d="M43.5,131a.9968.9968,0,0,1-.293.707L34.9141,140l8.293,8.293a1,1,0,0,1-1.4141,1.4141l-9-9a1,1,0,0,1,0-1.4141l9-9A1,1,0,0,1,43.5,131Z"/><path class="cls-2" d="M119.957,150.0006a2.9709,2.9709,0,0,1-1.541-.4336A2.9,2.9,0,0,1,117,147.07V132.9313a2.9,2.9,0,0,1,1.416-2.4971,2.96,2.96,0,0,1,2.9316-.09l13.09,7.0752a2.9133,2.9133,0,0,1-.0107,5.168l-13.0674,7.0635A3.0214,3.0214,0,0,1,119.957,150.0006Zm.0068-18a.9876.9876,0,0,0-.5127.1445.912.912,0,0,0-.4512.7861V147.07a.912.912,0,0,0,.4512.7861.9731.9731,0,0,0,.9678.0293l13.0674-7.0635a.913.913,0,0,0,.0107-1.6367L120.4082,132.11A.9612.9612,0,0,0,119.9639,132.0006Z"/><path class="cls-2" d="M150,150.0006a3.0033,3.0033,0,0,1-3-3v-14a3,3,0,1,1,6,0v14A3.0033,3.0033,0,0,1,150,150.0006Zm0-18a1.0007,1.0007,0,0,0-1,1v14a1,1,0,0,0,2,0v-14A1.0007,1.0007,0,0,0,150,132.0006Z"/><path class="cls-2" d="M158,150.0006a3.0033,3.0033,0,0,1-3-3v-14a3,3,0,1,1,6,0v14A3.0033,3.0033,0,0,1,158,150.0006Zm0-18a1.0007,1.0007,0,0,0-1,1v14a1,1,0,0,0,2,0v-14A1.0007,1.0007,0,0,0,158,132.0006Z"/></g></g></svg>