<?xml version="1.0" encoding="UTF-8"?>
<svg width="23px" height="23px" viewBox="0 0 23 23" version="1.1" xmlns="http://www.w3.org/2000/svg" xmlns:xlink="http://www.w3.org/1999/xlink">
    <!-- Generator: Sketch 42 (36781) - http://www.bohemiancoding.com/sketch -->
    <title>icon</title>
    <desc>Created with Sketch.</desc>
    <defs></defs>
    <g id="Page-1" stroke="none" stroke-width="1" fill="none" fill-rule="evenodd">
        <g id="1.4" transform="translate(-1246.000000, -768.000000)" fill="#444444">
            <g id="content" transform="translate(100.000000, 196.000000)">
                <g id="right-panel" transform="translate(1110.000000, 0.000000)">
                    <g id="content" transform="translate(0.000000, 40.000000)">
                        <g id="item" transform="translate(0.000000, 512.000000)">
                            <g id="icon" transform="translate(36.000000, 20.000000)">
                                <path d="M14.50025,4.00025 C14.37225,4.00025 14.24425,3.95125 14.14625,3.85425 L11.50025,1.20725 L8.85425,3.85425 C8.65825,4.04925 8.34225,4.04925 8.14625,3.85425 C7.95125,3.65825 7.95125,3.34225 8.14625,3.14625 L11.14625,0.14625 C11.34225,-0.04875 11.65825,-0.04875 11.85425,0.14625 L14.85425,3.14625 C15.04925,3.34225 15.04925,3.65825 14.85425,3.85425 C14.75625,3.95125 14.62825,4.00025 14.50025,4.00025 Z M11.50025,23.00025 C11.37225,23.00025 11.24425,22.95125 11.14625,22.85425 L8.14625,19.85425 C7.95125,19.65825 7.95125,19.34225 8.14625,19.14625 C8.34225,18.95125 8.65825,18.95125 8.85425,19.14625 L11.50025,21.79325 L14.14625,19.14625 C14.34225,18.95125 14.65825,18.95125 14.85425,19.14625 C15.04925,19.34225 15.04925,19.65825 14.85425,19.85425 L11.85425,22.85425 C11.75625,22.95125 11.62825,23.00025 11.50025,23.00025 Z M3.50025,15.00025 C3.37225,15.00025 3.24425,14.95125 3.14625,14.85425 L0.14625,11.85425 C-0.04875,11.65825 -0.04875,11.34225 0.14625,11.14625 L3.14625,8.14625 C3.34225,7.95125 3.65825,7.95125 3.85425,8.14625 C4.04925,8.34225 4.04925,8.65825 3.85425,8.85425 L1.20725,11.50025 L3.85425,14.14625 C4.04925,14.34225 4.04925,14.65825 3.85425,14.85425 C3.75625,14.95125 3.62825,15.00025 3.50025,15.00025 Z M19.50025,15.00025 C19.37225,15.00025 19.24425,14.95125 19.14625,14.85425 C18.95125,14.65825 18.95125,14.34225 19.14625,14.14625 L21.79325,11.50025 L19.14625,8.85425 C18.95125,8.65825 18.95125,8.34225 19.14625,8.14625 C19.34225,7.95125 19.65825,7.95125 19.85425,8.14625 L22.85425,11.14625 C23.04925,11.34225 23.04925,11.65825 22.85425,11.85425 L19.85425,14.85425 C19.75625,14.95125 19.62825,15.00025 19.50025,15.00025 Z M11.50025,12.00025 C11.37025,12.00025 11.24025,11.95025 11.15025,11.85025 C11.10025,11.81025 11.06025,11.75025 11.04025,11.68925 C11.01025,11.63025 11.00025,11.56925 11.00025,11.50025 C11.00025,11.43025 11.01025,11.37025 11.04025,11.31025 C11.06025,11.25025 11.10025,11.18925 11.15025,11.14925 C11.19025,11.10025 11.25025,11.06025 11.31025,11.04025 C11.43025,10.99025 11.57025,10.99025 11.69025,11.04025 C11.75025,11.06025 11.81025,11.10025 11.85025,11.14925 C11.90025,11.18925 11.94025,11.25025 11.96025,11.31025 C11.99025,11.37025 12.00025,11.43025 12.00025,11.50025 C12.00025,11.56925 11.99025,11.63025 11.96025,11.68925 C11.94025,11.75025 11.90025,11.81025 11.85025,11.85025 C11.76025,11.95025 11.63025,12.00025 11.50025,12.00025 Z" id="fill"></path>
                            </g>
                        </g>
                    </g>
                </g>
            </g>
        </g>
    </g>
</svg>