<?xml version="1.0" encoding="utf-8"?>
<!-- Generator: Adobe Illustrator 21.0.2, SVG Export Plug-In . SVG Version: 6.00 Build 0)  -->
<svg version="1.1" xmlns="http://www.w3.org/2000/svg" xmlns:xlink="http://www.w3.org/1999/xlink" x="0px" y="0px"
	 viewBox="0 0 16 16" style="enable-background:new 0 0 16 16;" xml:space="preserve">
<style type="text/css">
	.st0{fill:#444444;}
	.st1{fill:#444;}
</style>
<g id="Layer_1">
</g>
<g id="Layer_2">
	<path class="st1" d="M15.2354,0.7402c-0.9844-0.9869-2.7051-0.9869-3.6895,0L0.9756,11.3276
		c-0.0674,0.068-0.1143,0.1541-0.1348,0.2475l-0.8291,3.8175c-0.0361,0.1668,0.0146,0.3404,0.1348,0.4607
		C0.2412,15.9482,0.3691,16,0.5,16c0.0352,0,0.0713-0.0039,0.1064-0.0112l3.8115-0.8299c0.0938-0.0205,0.1797-0.0675,0.2471-0.1355
		l10.5703-10.587C15.7285,3.943,16,3.2867,16,2.5883S15.7285,1.2336,15.2354,0.7402z M14.5283,3.7283L4.0615,14.2111l-2.9072,0.6333
		l0.6318-2.9128L12.2529,1.4483c0.6074-0.6094,1.668-0.6094,2.2754,0C14.832,1.753,15,2.1574,15,2.5883
		S14.832,3.4236,14.5283,3.7283z"/>
</g>
</svg>
