<?xml version="1.0" encoding="UTF-8"?>
<svg width="16px" height="16px" viewBox="0 0 16 16" version="1.1" xmlns="http://www.w3.org/2000/svg" xmlns:xlink="http://www.w3.org/1999/xlink">
    <!-- Generator: Sketch 49.3 (51167) - http://www.bohemiancoding.com/sketch -->
    <title>Eject</title>
    <desc>Created with Sketch.</desc>
    <defs></defs>
    <g id="Page-1" stroke="none" stroke-width="1" fill="none" fill-rule="evenodd">
        <g id="eject_16" transform="translate(0.000000, 3.000000)" fill="#000000">
            <g id="icon">
                <path d="M8.00009268,0 C7.28409268,0 6.59109268,0.257 6.04809268,0.723 C6.03209268,0.736 6.01809268,0.75 6.00309268,0.764 L0.304092684,6.284 C0.0120926836,6.568 -0.0799073164,7 0.0730926836,7.378 C0.226092684,7.755 0.593092684,8.002 1.00009268,8.002 L15.0000927,8.002 C15.4070927,8.002 15.7740927,7.755 15.9270927,7.378 C16.0800927,7 15.9880927,6.568 15.6950927,6.284 L9.99709268,0.764 C9.98209268,0.75 9.96809268,0.736 9.95209268,0.723 C9.40909268,0.257 8.71609268,0 8.00009268,0 M8.00009268,1 C8.46409268,1 8.92709268,1.161 9.30209268,1.482 L15.0000927,7.002 L1.00009268,7.002 L6.69809268,1.482 C7.07309268,1.161 7.53609268,1 8.00009268,1 Z M15.5000927,10.0024 L0.500092684,10.0024 C0.225092684,10.0024 9.26836071e-05,9.7774 9.26836071e-05,9.5024 C9.26836071e-05,9.2274 0.225092684,9.0024 0.500092684,9.0024 L15.5000927,9.0024 C15.7750927,9.0024 16.0000927,9.2274 16.0000927,9.5024 C16.0000927,9.7774 15.7750927,10.0024 15.5000927,10.0024 Z" id="fill"></path>
            </g>
        </g>
        <g id="slices" transform="translate(-22.000000, -1246.000000)"></g>
    </g>
</svg>