<?xml version="1.0" encoding="utf-8"?>
<!-- Generator: Adobe Illustrator 21.0.2, SVG Export Plug-In . SVG Version: 6.00 Build 0)  -->
<svg version="1.1" xmlns="http://www.w3.org/2000/svg" xmlns:xlink="http://www.w3.org/1999/xlink" x="0px" y="0px"
	 viewBox="0 0 16 16" style="enable-background:new 0 0 16 16;" xml:space="preserve">
<style type="text/css">
	.st0{fill:#444444;}
	.st1{fill:#FFFFFF;}
	.st2{fill:#0AB7D7;}
	.st3{opacity:0.48;}
	.st4{opacity:0.16;fill:#444444;}
	.st5{opacity:0.06;fill:#444444;}
	.st6{fill:#07C1E4;}
	.st7{opacity:0.08;fill:#444444;}
	.st8{fill:#D6F7FD;}
</style>
<g id="Layer_1">
</g>
<g id="Layer_2">
	<g>
		<path class="st0" d="M7.8541,4.1471C7.8079,4.1007,7.7524,4.0639,7.6909,4.0385c-0.1222-0.0505-0.2596-0.0505-0.3818,0
			C7.2476,4.0639,7.1921,4.1007,7.1459,4.1471L3.1465,8.1465c-0.1953,0.1953-0.1953,0.5117,0,0.707s0.5117,0.1953,0.707,0L7,5.707
			V14.5C7,14.7764,7.2236,15,7.5,15S8,14.7764,8,14.5V5.707l3.1465,3.1465C11.2441,8.9512,11.3721,9,11.5,9
			s0.2559-0.0488,0.3535-0.1465c0.1953-0.1953,0.1953-0.5117,0-0.707L7.8541,4.1471z"/>
		<path class="st0" d="M13.5,1h-12C1.2236,1,1,1.2236,1,1.5S1.2236,2,1.5,2h12C13.7764,2,14,1.7764,14,1.5S13.7764,1,13.5,1z"/>
	</g>
</g>
</svg>
