<?xml version="1.0" encoding="UTF-8"?>
<svg width="16px" height="16px" viewBox="0 0 16 16" version="1.1" xmlns="http://www.w3.org/2000/svg" xmlns:xlink="http://www.w3.org/1999/xlink">
    <!-- Generator: Sketch 49.3 (51167) - http://www.bohemiancoding.com/sketch -->
    <title>Fast_Fw</title>
    <desc>Created with Sketch.</desc>
    <defs></defs>
    <g id="Page-1" stroke="none" stroke-width="1" fill="none" fill-rule="evenodd">
        <g id="ffw_16" transform="translate(1.000000, 3.000000)" fill="#000000">
            <g id="icon">
                <path d="M12.7344,5.4561 L5.7634,8.9231 C5.5254,9.0491 5.3214,8.9561 5.2454,8.9101 C5.1694,8.8641 4.9904,8.7281 4.9904,8.4591 L4.9904,8.4391 L9.2004,6.3451 C9.6984,6.0791 10.0074,5.5631 10.0074,4.9991 C10.0074,4.4341 9.6984,3.9181 9.1874,3.6451 L4.9904,1.5671 L4.9904,1.5521 C4.9904,1.2841 5.1694,1.1471 5.2454,1.1021 C5.2934,1.0731 5.3894,1.0261 5.5144,1.0261 C5.5924,1.0261 5.6814,1.0441 5.7764,1.0951 L12.7214,4.5351 C12.8964,4.6281 13.0004,4.8011 13.0004,4.9991 C13.0004,5.1961 12.8964,5.3701 12.7344,5.4561 Z M3.9924,7.8181 L1.7714,8.9231 C1.5334,9.0491 1.3294,8.9561 1.2534,8.9101 C1.1764,8.8641 0.9984,8.7281 0.9984,8.4591 L0.9984,1.5521 C0.9984,1.2841 1.1764,1.1471 1.2534,1.1021 C1.3004,1.0731 1.3974,1.0261 1.5224,1.0261 C1.6004,1.0261 1.6894,1.0441 1.7844,1.0951 L3.9924,2.1891 L4.9904,2.6831 L8.7294,4.5351 C8.9034,4.6281 9.0074,4.8011 9.0074,4.9991 C9.0074,5.1961 8.9034,5.3701 8.7424,5.4561 L4.9904,7.3221 L3.9924,7.8181 Z M13.1794,3.6451 L6.2344,0.2061 C5.7564,-0.0469 5.1954,-0.0339 4.7314,0.2441 C4.3994,0.4421 4.1704,0.7511 4.0634,1.1071 L2.2414,0.2061 C1.7644,-0.0469 1.2034,-0.0339 0.7384,0.2441 C0.2754,0.5221 0.0004,1.0111 0.0004,1.5521 L0.0004,8.4591 C0.0004,9.0001 0.2754,9.4901 0.7384,9.7681 C0.9844,9.9151 1.2554,9.9881 1.5264,9.9881 C1.7684,9.9881 2.0094,9.9301 2.2294,9.8121 L4.0614,8.9011 C4.1684,9.2591 4.3984,9.5681 4.7314,9.7681 C4.9764,9.9151 5.2484,9.9881 5.5184,9.9881 C5.7604,9.9881 6.0024,9.9301 6.2214,9.8121 L13.1924,6.3451 C13.6904,6.0791 14.0004,5.5631 14.0004,4.9991 C14.0004,4.4341 13.6904,3.9181 13.1794,3.6451 Z" id="fill"></path>
            </g>
        </g>
        <g id="slices" transform="translate(-2.000000, -311.000000)"></g>
    </g>
</svg>