<?xml version="1.0" encoding="UTF-8"?>
<svg width="16px" height="16px" viewBox="0 0 16 16" version="1.1" xmlns="http://www.w3.org/2000/svg" xmlns:xlink="http://www.w3.org/1999/xlink">
    <!-- Generator: Sketch 49.3 (51167) - http://www.bohemiancoding.com/sketch -->
    <title>Fast_Bw</title>
    <desc>Created with Sketch.</desc>
    <defs></defs>
    <g id="Page-1" stroke="none" stroke-width="1" fill="none" fill-rule="evenodd">
        <g id="fbw_16" transform="translate(1.000000, 3.000000)" fill="#000000">
            <g id="icon">
                <path d="M1.2656,4.5576 L8.2366,1.0906 C8.4746,0.9646 8.6786,1.0576 8.7546,1.1036 C8.8306,1.1496 9.0096,1.2856 9.0096,1.5546 L9.0096,1.5746 L4.7996,3.6686 C4.3016,3.9346 3.9926,4.4506 3.9926,5.0146 C3.9926,5.5796 4.3016,6.0956 4.8126,6.3686 L9.0096,8.4466 L9.0096,8.4616 C9.0096,8.7296 8.8306,8.8666 8.7546,8.9116 C8.7066,8.9406 8.6106,8.9876 8.4856,8.9876 C8.4076,8.9876 8.3186,8.9696 8.2236,8.9186 L1.2786,5.4786 C1.1036,5.3856 0.9996,5.2126 0.9996,5.0146 C0.9996,4.8176 1.1036,4.6436 1.2656,4.5576 Z M10.0076,2.1946 L12.2286,1.0906 C12.4666,0.9646 12.6706,1.0576 12.7466,1.1036 C12.8236,1.1496 13.0016,1.2856 13.0016,1.5546 L13.0016,8.4616 C13.0016,8.7296 12.8236,8.8666 12.7466,8.9116 C12.6996,8.9406 12.6026,8.9876 12.4776,8.9876 C12.3996,8.9876 12.3106,8.9696 12.2156,8.9186 L10.0076,7.8246 L9.0096,7.3306 L5.2706,5.4786 C5.0966,5.3856 4.9926,5.2126 4.9926,5.0146 C4.9926,4.8176 5.0966,4.6436 5.2576,4.5576 L9.0096,2.6916 L10.0076,2.1946 Z M0.8206,6.3686 L7.7656,9.8076 C8.2436,10.0606 8.8046,10.0476 9.2686,9.7696 C9.6006,9.5716 9.8296,9.2626 9.9366,8.9056 L11.7586,9.8076 C12.2356,10.0606 12.7966,10.0476 13.2616,9.7696 C13.7246,9.4916 13.9996,9.0026 13.9996,8.4616 L13.9996,1.5546 C13.9996,1.0136 13.7246,0.5236 13.2616,0.2456 C13.0156,0.0986 12.7446,0.0256 12.4736,0.0256 C12.2316,0.0256 11.9906,0.0836 11.7706,0.2016 L9.9376,1.1126 C9.8316,0.7546 9.6016,0.4446 9.2686,0.2456 C9.0236,0.0986 8.7516,0.0256 8.4816,0.0256 C8.2396,0.0256 7.9976,0.0836 7.7786,0.2016 L0.8076,3.6686 C0.3096,3.9346 -0.0004,4.4506 -0.0004,5.0146 C-0.0004,5.5796 0.3096,6.0956 0.8206,6.3686 Z" id="fill"></path>
            </g>
        </g>
        <g id="slices" transform="translate(-2.000000, -345.000000)"></g>
    </g>
</svg>