<?xml version="1.0" encoding="utf-8"?>
<!-- Generator: Adobe Illustrator 21.0.2, SVG Export Plug-In . SVG Version: 6.00 Build 0)  -->
<svg version="1.1" id="Layer_1" xmlns="http://www.w3.org/2000/svg" xmlns:xlink="http://www.w3.org/1999/xlink" x="0px" y="0px"
	 viewBox="0 0 40 40" style="enable-background:new 0 0 40 40;" xml:space="preserve">
<style type="text/css">
	.st0{fill:#FFFFFF;}
	.st1{opacity:0.08;fill:#444444;}
	.st2{fill:#07C1E4;}
	.st3{opacity:0.16;fill:#444444;}
	.st4{fill:#05A1BF;}
	.st5{opacity:0.16;fill:none;stroke:#444444;stroke-width:0.5;stroke-miterlimit:10;}
	.st6{fill:#444444;}
	.st7{opacity:0.5;fill:#FF4444;}
	.st8{fill:#0000F9;}
	.st9{opacity:0.5;fill:#FFF800;}
	.st10{fill:#E3E3E3;}
	.st11{fill:#D4D4D4;}
	.st12{fill:#F0F0F0;}
	.st13{fill:#30D557;}
	.st14{fill:#FF513D;}
	.st15{fill:#FFB400;}
</style>
<path class="st0" d="M5.4814,31.5646c0.9268,0.5557,2.0508,0.584,3.0508,0.0508L15,27.7256v1.2219
	c0,1.082,0.5537,2.0605,1.4814,2.6172c0.9268,0.5557,2.0508,0.584,3.0508,0.0508l14.8525-8.9326
	C35.3809,22.1505,36,21.1193,36,19.9894c0-1.1289-0.6191-2.1602-1.5713-2.667l-14.9414-8.959
	c-0.4541-0.2412-0.9463-0.3623-1.4375-0.3623c-0.541,0-1.082,0.1465-1.5684,0.4385C15.5537,8.9963,15,9.9748,15,11.0568v1.2117
	L8.4873,8.3634C8.0332,8.1222,7.541,8.0011,7.0498,8.0011c-0.541,0-1.082,0.1465-1.5684,0.4385C4.5537,8.9963,4,9.9748,4,11.0568
	v17.8906C4,30.0295,4.5537,31.008,5.4814,31.5646z M17,11.0568c0-0.5371,0.3574-0.8096,0.5107-0.9023
	c0.1543-0.0918,0.5625-0.2754,0.9912-0.0508l14.9414,8.959C33.792,19.2482,34,19.5949,34,19.9894
	c0,0.3955-0.208,0.7422-0.6016,0.9531l-14.8525,8.9326c-0.4746,0.2529-0.8818,0.0664-1.0352-0.0254
	C17.3574,29.757,17,29.4845,17,28.9474v-2.4247l6.3848-3.8399C24.3809,22.1505,25,21.1193,25,19.9894
	c0-1.1289-0.6191-2.1602-1.5713-2.667L17,13.4677V11.0568z M6,11.0568c0-0.5371,0.3574-0.8096,0.5107-0.9023
	c0.1543-0.0918,0.5635-0.2754,0.9912-0.0508l14.9414,8.959C22.792,19.2482,23,19.5949,23,19.9894
	c0,0.3955-0.208,0.7422-0.6016,0.9531L7.5459,29.8752c-0.1758,0.0938-0.3428,0.1279-0.4902,0.1279
	c-0.251,0-0.4482-0.0957-0.5449-0.1533C6.3574,29.757,6,29.4845,6,28.9474V11.0568z"/>
</svg>
