<svg enable-background="new 0 0 16 16" viewBox="0 0 16 16" xmlns="http://www.w3.org/2000/svg"><path d="m14.1846 16.0005c-.1484 0-.2988-.0186-.4473-.0562-2.6895-.6836-5.7578-2.6016-8.4189-5.2622-2.6611-2.6611-4.5791-5.73-5.2617-8.4189-.1387-.544-.0196-1.1109.3261-1.5562.3496-.4492.876-.707 1.4453-.707h1.7305c.9062 0 1.7227.5376 2.0801 1.3701l.6533 1.5205c.3164.7329.292 1.5635-.0645 2.2778l-.4414.8824c-.0674.1343-.0498.2935.0449.416.918 1.1797 2.3086 2.5596 3.7188 3.6914.1211.0962.2842.1152.416.0479l.8652-.4331c.7139-.3579 1.5449-.3818 2.2783-.0654l1.5205.6533c.8321.3583 1.3702 1.1752 1.3702 2.0805v1.7305c0 .5688-.2578 1.0957-.707 1.4453-.3233.2515-.711.3833-1.1084.3833zm-12.3565-15.0005c-.2578 0-.497.1172-.6552.3208-.1553.1997-.209.4536-.1475.6963.6396 2.5195 2.4619 5.4204 5 7.958 2.5381 2.5371 5.4385 4.3594 7.958 5 .2461.062.4971.0078.6953-.1475.2041-.1587.3213-.3974.3213-.6557v-1.7305c0-.5059-.3008-.9619-.7656-1.1621l-1.5195-.6528c-.4639-.2007-.9873-.1846-1.4365.041l-.8652.4331c-.4824.2417-1.0654.1768-1.4893-.1626-1.4893-1.1953-2.9044-2.6011-3.8819-3.8574-.3291-.4234-.3877-1.003-.1504-1.4776l.4414-.8813c.2246-.4502.2393-.9736.041-1.436l-.6533-1.521c-.2002-.4644-.6562-.7647-1.1621-.7647z" fill="#ffffff"/></svg>