<svg xmlns="http://www.w3.org/2000/svg" viewBox="0 0 16 16"><defs><style>.cls-1{fill:#444;}</style></defs><title>Handset</title><g id="Layer_2" data-name="Layer 2"><path class="cls-1" d="M14.1846,16a1.8226,1.8226,0,0,1-.4473-.0562,19.629,19.629,0,0,1-8.4189-5.2622A19.6163,19.6163,0,0,1,.0566,2.2632,1.7974,1.7974,0,0,1,.3828.707,1.8194,1.8194,0,0,1,1.8281,0h1.73a2.2609,2.2609,0,0,1,2.08,1.37L6.292,2.8906a2.6977,2.6977,0,0,1-.0645,2.2778l-.4414.8823a.39.39,0,0,0,.0449.416A24.062,24.062,0,0,0,9.55,10.1582a.3876.3876,0,0,0,.416.0479l.8652-.4331a2.6935,2.6935,0,0,1,2.2783-.0654l1.5205.6533A2.2644,2.2644,0,0,1,16,12.4414v1.73a1.82,1.82,0,0,1-.707,1.4453A1.8,1.8,0,0,1,14.1846,16ZM1.8281,1a.8253.8253,0,0,0-.6553.3208.8055.8055,0,0,0-.1475.6963,18.6068,18.6068,0,0,0,5,7.958,18.6285,18.6285,0,0,0,7.958,5,.7986.7986,0,0,0,.6953-.1475A.8252.8252,0,0,0,15,14.1719v-1.73a1.2647,1.2647,0,0,0-.7656-1.1621l-1.52-.6528h0a1.694,1.694,0,0,0-1.4365.041l-.8652.4331a1.3905,1.3905,0,0,1-1.4893-.1626A24.7389,24.7389,0,0,1,5.042,7.0806a1.4,1.4,0,0,1-.15-1.4775l.4414-.8813a1.7056,1.7056,0,0,0,.041-1.436l-.6533-1.521A1.2646,1.2646,0,0,0,3.5586,1Z"/></g></svg>