<?xml version="1.0" encoding="utf-8"?>
<!-- Generator: Adobe Illustrator 21.0.2, SVG Export Plug-In . SVG Version: 6.00 Build 0)  -->
<svg version="1.1" xmlns="http://www.w3.org/2000/svg" xmlns:xlink="http://www.w3.org/1999/xlink" x="0px" y="0px"
	 viewBox="0 0 16 16" style="enable-background:new 0 0 16 16;" xml:space="preserve">
<style type="text/css">
	.st0{fill:#444444;}
	.st1{fill:#07C1E4;}
	.st2{fill:#FFFFFF;}
	.st3{opacity:0.48;}
	.st4{opacity:0.16;fill:#444444;}
	.st5{opacity:0.06;fill:#444444;}
	.st6{opacity:0.08;fill:#444444;}
	.st7{fill:#D6F7FD;}
</style>
<g id="Layer_1">
</g>
<g id="Layer_2">
	<g>
		<path class="st1" d="M14.1846,16.0005c-0.1484,0-0.2988-0.0186-0.4473-0.0562c-2.6895-0.6836-5.7578-2.6016-8.4189-5.2622
			c-2.6611-2.6611-4.5791-5.73-5.2617-8.4189C-0.082,1.7192,0.0371,1.1523,0.3828,0.707C0.7324,0.2578,1.2588,0,1.8281,0h1.7305
			c0.9062,0,1.7227,0.5376,2.0801,1.3701L6.292,2.8906c0.3164,0.7329,0.292,1.5635-0.0645,2.2778L5.7861,6.0508
			c-0.0674,0.1343-0.0498,0.2935,0.0449,0.416c0.918,1.1797,2.3086,2.5596,3.7188,3.6914c0.1211,0.0962,0.2842,0.1152,0.416,0.0479
			l0.8652-0.4331c0.7139-0.3579,1.5449-0.3818,2.2783-0.0654l1.5205,0.6533C15.4619,10.7192,16,11.5361,16,12.4414v1.7305
			c0,0.5688-0.2578,1.0957-0.707,1.4453C14.9697,15.8687,14.582,16.0005,14.1846,16.0005z M1.8281,1
			C1.5703,1,1.3311,1.1172,1.1729,1.3208c-0.1553,0.1997-0.209,0.4536-0.1475,0.6963c0.6396,2.5195,2.4619,5.4204,5,7.958
			c2.5381,2.5371,5.4385,4.3594,7.958,5c0.2461,0.062,0.4971,0.0078,0.6953-0.1475C14.8828,14.6689,15,14.4302,15,14.1719v-1.7305
			c0-0.5059-0.3008-0.9619-0.7656-1.1621l-1.5195-0.6528l0,0c-0.4639-0.2007-0.9873-0.1846-1.4365,0.041l-0.8652,0.4331
			c-0.4824,0.2417-1.0654,0.1768-1.4893-0.1626C7.4346,9.7427,6.0195,8.3369,5.042,7.0806C4.7129,6.6572,4.6543,6.0776,4.8916,5.603
			L5.333,4.7217c0.2246-0.4502,0.2393-0.9736,0.041-1.436l-0.6533-1.521C4.5205,1.3003,4.0645,1,3.5586,1H1.8281z"/>
	</g>
</g>
</svg>
