<?xml version="1.0" encoding="utf-8"?>
<!-- Generator: Adobe Illustrator 21.1.0, SVG Export Plug-In . SVG Version: 6.00 Build 0)  -->
<svg version="1.1" id="Layer_1" xmlns="http://www.w3.org/2000/svg" xmlns:xlink="http://www.w3.org/1999/xlink" x="0px" y="0px"
	 viewBox="0 0 16 16" style="enable-background:new 0 0 16 16;" xml:space="preserve">
<style type="text/css">
	.st0{fill:#FF0000;}
	.st1{fill:none;stroke:#FFFFFF;stroke-width:2;stroke-linecap:round;stroke-linejoin:round;stroke-miterlimit:10;}
	.st2{fill:#FFFFFF;}
	.st3{fill:#444444;}
	.st4{fill:none;stroke:#FFFFFF;stroke-linecap:round;stroke-linejoin:round;stroke-miterlimit:10;}
	.st5{fill:#07C1E4;}
</style>
<path class="st5" d="M11.75,7.98C11.83,7.99,11.91,8,12,8c1.1,0,2-0.9,2-2c0-1.1-0.9-2-2-2c-0.017,0-0.0329,0.0038-0.0498,0.0043
	C11.7013,1.7518,9.8201,0,7.5,0S3.2987,1.7518,3.0498,4.0043C3.0329,4.0038,3.017,4,3,4C1.9,4,1,4.9,1,6c0,1.1,0.9,2,2,2
	c0.09,0,0.17-0.01,0.25-0.02C3.1872,7.803,3.1381,7.6183,3.0986,7.4302C3.317,8.4684,3.9042,9.3604,4.7034,10H4.2028
	c-1.7207,0-3.2206,1.2492-3.638,3.0298l-0.5505,2.3489C-0.0598,15.6943,0.1641,16,0.469,16h14.062
	c0.305,0,0.5287-0.3057,0.4548-0.6213l-0.5505-2.3489C14.0179,11.2492,12.518,10,10.7972,10h-0.5007
	c0.6676-0.5342,1.1736-1.2479,1.4514-2.0758L11.75,7.98z M13,6c0,0.55-0.45,1-1,1V5C12.55,5,13,5.45,13,6z M7.5,1
	c1.5836,0,2.9092,1.0636,3.3397,2.5092C10.0158,2.5897,8.8318,2,7.5,2S4.9842,2.5897,4.1603,3.5092C4.5908,2.0636,5.9164,1,7.5,1z
	 M2,6c0-0.55,0.45-1,1-1v2C2.45,7,2,6.55,2,6z M4,6.5C4,4.5701,5.5701,3,7.5,3S11,4.5701,11,6.5c0,0.1712-0.0267,0.3353-0.0505,0.5
	H7.5C7.225,7,7,7.225,7,7.5C7,7.775,7.225,8,7.5,8h3.149c-0.564,1.1782-1.758,2-3.149,2C5.5701,10,4,8.4299,4,6.5z M1.1301,15
	l0.4083-1.7419C1.85,11.9285,2.9456,11,4.2028,11h6.5945c1.2571,0,2.3528,0.9285,2.6644,2.2581L13.8699,15H1.1301z"/>
</svg>
