<svg xmlns="http://www.w3.org/2000/svg" viewBox="0 0 16 16"><defs><style>.cls-1{fill:#444;}</style></defs><title>Help</title><g id="Layer_2" data-name="Layer 2"><circle class="cls-1" cx="7.5" cy="15.5" r="0.5"/><path class="cls-1" d="M7.5059,13a.5.5,0,0,1-.5-.5v-.5981A3.7026,3.7026,0,0,1,9.1221,8.6973c1.626-.896,2.87-1.7373,2.87-3.6973a4,4,0,0,0-7.9746-.4512.5083.5083,0,0,1-.5527.4414.5007.5007,0,0,1-.4414-.5527A5,5,0,0,1,12.9922,5c0,2.499-1.6025,3.5894-3.3877,4.5732a2.7373,2.7373,0,0,0-1.5986,2.3286V12.5A.5.5,0,0,1,7.5059,13Z"/></g></svg>