<svg enable-background="new 0 0 16 16" viewBox="0 0 16 16" xmlns="http://www.w3.org/2000/svg"><g fill="#ffffff"><circle cx="7.5" cy="15.5" r=".5"/><path d="m7.5059 13c-.2764 0-.5-.2236-.5-.5v-.5981c0-1.2954.7715-2.4634 2.1162-3.2046 1.6259-.896 2.8701-1.7373 2.8701-3.6973 0-2.2056-1.7939-4-4-4-2.0391 0-3.748 1.5259-3.9746 3.5488-.0313.274-.2862.4683-.5528.4414-.2744-.0307-.4716-.2783-.4414-.5527.2842-2.5298 2.42-4.4375 4.9688-4.4375 2.7568 0 5 2.2432 5 5 0 2.499-1.6025 3.5894-3.3877 4.5732-1.0156.5596-1.5986 1.4087-1.5986 2.3286v.5982c0 .2764-.2237.5-.5.5z"/></g></svg>