<?xml version="1.0" encoding="utf-8"?>
<!-- Generator: Adobe Illustrator 21.0.2, SVG Export Plug-In . SVG Version: 6.00 Build 0)  -->
<svg version="1.1" xmlns="http://www.w3.org/2000/svg" xmlns:xlink="http://www.w3.org/1999/xlink" x="0px" y="0px"
	 viewBox="0 0 16 16" style="enable-background:new 0 0 16 16;" xml:space="preserve">
<style type="text/css">
	.st0{fill:#444444;}
	.st1{fill:#07C1E4;}
	.st2{fill:#FFFFFF;}
	.st3{opacity:0.48;}
	.st4{opacity:0.16;fill:#444444;}
	.st5{opacity:0.06;fill:#444444;}
	.st6{opacity:0.08;fill:#444444;}
	.st7{fill:#D6F7FD;}
</style>
<g id="Layer_1">
</g>
<g id="Layer_2">
	<circle class="st1" cx="7.5" cy="15.5" r="0.5"/>
	<path class="st1" d="M7.5059,13c-0.2764,0-0.5-0.2236-0.5-0.5v-0.5981c0-1.2954,0.7715-2.4634,2.1162-3.2046
		C10.748,7.8013,11.9922,6.96,11.9922,5c0-2.2056-1.7939-4-4-4c-2.0391,0-3.748,1.5259-3.9746,3.5488
		C3.9863,4.8228,3.7314,5.0171,3.4648,4.9902C3.1904,4.9595,2.9932,4.7119,3.0234,4.4375C3.3076,1.9077,5.4434,0,7.9922,0
		c2.7568,0,5,2.2432,5,5c0,2.499-1.6025,3.5894-3.3877,4.5732c-1.0156,0.5596-1.5986,1.4087-1.5986,2.3286V12.5
		C8.0059,12.7764,7.7822,13,7.5059,13z"/>
</g>
</svg>
