<svg enable-background="new 0 0 16 16" viewBox="0 0 16 16" xmlns="http://www.w3.org/2000/svg"><path d="m11.75 7.98c.08.01.16.02.25.02 1.1 0 2-.9 2-2s-.9-2-2-2c-.017 0-.0329.0038-.0498.0043-.2489-2.2525-2.1301-4.0043-4.4502-4.0043s-4.2013 1.7518-4.4502 4.0043c-.0169-.0005-.0328-.0043-.0498-.0043-1.1 0-2 .9-2 2s.9 2 2 2c.09 0 .17-.01.25-.02-.0628-.177-.1119-.3617-.1514-.5498.2184 1.0382.8056 1.9302 1.6048 2.5698h-.5006c-1.7207 0-3.2206 1.2492-3.638 3.0298l-.5505 2.3489c-.074.3156.1498.6213.4547.6213h14.062c.305 0 .5287-.3057.4548-.6213l-.5505-2.3489c-.4173-1.7806-1.9173-3.0298-3.6381-3.0298h-.5007c.6676-.5342 1.1736-1.2479 1.4514-2.0758zm1.25-1.98c0 .55-.45 1-1 1v-2c.55 0 1 .45 1 1zm-5.5-5c1.5836 0 2.9092 1.0636 3.3397 2.5092-.8239-.9195-2.0079-1.5092-3.3397-1.5092s-2.5158.5897-3.3397 1.5092c.4305-1.4456 1.7562-2.5092 3.3397-2.5092zm-5.5 5c0-.55.45-1 1-1v2c-.55 0-1-.45-1-1zm2 .5c0-1.9299 1.5701-3.5 3.5-3.5s3.5 1.5701 3.5 3.5c0 .1712-.0267.3353-.0505.5h-3.4495c-.275 0-.5.225-.5.5s.225.5.5.5h3.149c-.564 1.1782-1.758 2-3.149 2-1.9299 0-3.5-1.5701-3.5-3.5zm-2.8699 8.5.4083-1.7419c.3116-1.3296 1.4072-2.2581 2.6644-2.2581h6.5945c1.2571 0 2.3528.9285 2.6644 2.2581l.4082 1.7419z" fill="#444"/></svg>