<?xml version="1.0" encoding="UTF-8"?>
<svg width="16px" height="16px" viewBox="0 0 16 16" version="1.1" xmlns="http://www.w3.org/2000/svg" xmlns:xlink="http://www.w3.org/1999/xlink">
    <!-- Generator: Sketch 49.3 (51167) - http://www.bohemiancoding.com/sketch -->
    <title>Help</title>
    <desc>Created with Sketch.</desc>
    <defs></defs>
    <g id="Page-1" stroke="none" stroke-width="1" fill="none" fill-rule="evenodd">
        <g id="help_16" transform="translate(4.000000, 1.000000)" fill="#000000">
            <g id="icon">
                <path d="M4.6167,0.002 C6.9927,0.072 8.9997,2.218 8.9997,4.689 C8.9997,6.778 7.8837,7.749 6.9857,8.528 C6.8237,8.67 6.6637,8.809 6.5157,8.95 L5.8357,9.6 C5.2887,10.122 4.9997,10.779 4.9997,11.5 C4.9997,11.776 4.7767,12 4.4997,12 C4.2237,12 3.9997,11.776 3.9997,11.5 C3.9997,10.515 4.4067,9.583 5.1447,8.877 L5.8247,8.228 C5.9837,8.075 6.1547,7.926 6.3297,7.773 C7.1887,7.027 7.9997,6.322 7.9997,4.689 C7.9997,2.744 6.4367,1.056 4.5877,1.002 C3.6057,0.981 2.6837,1.31 2.0207,1.954 C1.3627,2.593 0.9997,3.497 0.9997,4.5 C0.9997,4.776 0.7767,5 0.4997,5 C0.2237,5 -0.0003,4.776 -0.0003,4.5 C-0.0003,3.224 0.4707,2.065 1.3237,1.236 C2.1827,0.402 3.3797,-0.023 4.6167,0.002 Z M4.1499,14.1396 C4.3299,13.9596 4.6699,13.9596 4.8499,14.1396 C4.9499,14.2296 4.9999,14.3606 4.9999,14.4996 C4.9999,14.6296 4.9499,14.7596 4.8499,14.8496 C4.8099,14.8996 4.7499,14.9296 4.6899,14.9596 C4.6299,14.9796 4.5699,14.9996 4.4999,14.9996 C4.4299,14.9996 4.3699,14.9796 4.3099,14.9596 C4.2499,14.9296 4.1899,14.8996 4.1499,14.8496 C4.0499,14.7596 3.9999,14.6296 3.9999,14.4996 C3.9999,14.3606 4.0499,14.2296 4.1499,14.1396 Z" id="fill"></path>
            </g>
        </g>
        <g id="slices" transform="translate(-3.000000, -379.000000)"></g>
    </g>
</svg>