<?xml version="1.0" encoding="utf-8"?>
<!-- Generator: Adobe Illustrator 21.0.2, SVG Export Plug-In . SVG Version: 6.00 Build 0)  -->
<svg version="1.1" id="Layer_1" xmlns="http://www.w3.org/2000/svg" xmlns:xlink="http://www.w3.org/1999/xlink" x="0px" y="0px"
	 viewBox="0 0 40 40" style="enable-background:new 0 0 40 40;" xml:space="preserve">
<style type="text/css">
	.st0{fill:#FFFFFF;}
	.st1{opacity:0.08;fill:#444444;}
	.st2{fill:#07C1E4;}
	.st3{opacity:0.16;fill:#444444;}
	.st4{fill:#05A1BF;}
	.st5{opacity:0.16;fill:none;stroke:#444444;stroke-width:0.5;stroke-miterlimit:10;}
	.st6{fill:#444444;}
	.st7{opacity:0.5;fill:#FF4444;}
	.st8{fill:#0000F9;}
	.st9{opacity:0.5;fill:#FFF800;}
	.st10{fill:#E3E3E3;}
	.st11{fill:#D4D4D4;}
	.st12{fill:#F0F0F0;}
	.st13{fill:#30D557;}
	.st14{fill:#FF513D;}
	.st15{fill:#FFB400;}
</style>
<g>
	<path class="st0" d="M20.2324,6.0029c-2.4668-0.0488-4.8125,0.8174-6.5469,2.502C11.9541,10.1885,11,12.4941,11,14.999
		c0,0.5527,0.4473,1,1,1s1-0.4473,1-1c0-1.959,0.7383-3.7559,2.0801-5.0596c1.3428-1.3047,3.1562-2.0098,5.0957-1.9365
		C23.875,8.1074,27,11.3398,27,15.0596c0,3.1143-1.6152,4.4648-3.3252,5.8945c-0.3506,0.2939-0.6943,0.5811-1.0117,0.875
		l-1.3594,1.25C19.7383,24.5176,19,26.127,19,27.999c0,0.5527,0.4238,1,0.9766,1s1-0.4473,1-1c0-1.2988,0.5342-2.3936,1.6807-3.4482
		l1.3604-1.251c0.2959-0.2725,0.6143-0.5391,0.9404-0.8115C26.7588,20.9824,29,19.1084,29,15.0596
		C29,10.2861,24.9854,6.1387,20.2324,6.0029z"/>
	<circle class="st0" cx="20" cy="32.999" r="1"/>
</g>
</svg>
