<svg enable-background="new 0 0 16 16" viewBox="0 0 16 16" xmlns="http://www.w3.org/2000/svg"><path d="m14.4453 5.9849-5.751-5.6929c-.3838-.3809-1.0048-.3833-1.3867-.0015l-5.7607 5.7022c-.3526.3647-.5469.8447-.5469 1.3525v6.6548c0 1.103.8975 2 2 2h10c1.1025 0 2-.897 2-2v-6.6548c0-.5078-.1943-.9878-.5547-1.3603zm-5.4453 9.0151h-2v-6h2zm5-1c0 .5513-.4482 1-1 1h-3v-6c0-.5513-.4482-1-1-1h-2c-.5518 0-1 .4487-1 1v6h-3c-.5518 0-1-.4487-1-1v-6.6548c0-.2466.0947-.48.2578-.6494l5.7314-5.6943 5.7451 5.6865c.171.1772.2657.4106.2657.6572z" fill="#ffffff"/></svg>