<?xml version="1.0" encoding="utf-8"?>
<!-- Generator: Adobe Illustrator 21.0.2, SVG Export Plug-In . SVG Version: 6.00 Build 0)  -->
<svg version="1.1" id="Layer_1" xmlns="http://www.w3.org/2000/svg" xmlns:xlink="http://www.w3.org/1999/xlink" x="0px" y="0px"
	 viewBox="0 0 40 40" style="enable-background:new 0 0 40 40;" xml:space="preserve">
<style type="text/css">
	.st0{fill:#FFFFFF;}
	.st1{opacity:0.08;fill:#444444;}
	.st2{fill:#07C1E4;}
	.st3{opacity:0.16;fill:#444444;}
	.st4{fill:#05A1BF;}
	.st5{opacity:0.16;fill:none;stroke:#444444;stroke-width:0.5;stroke-miterlimit:10;}
	.st6{fill:#444444;}
	.st7{opacity:0.5;fill:#FF4444;}
	.st8{fill:#0000F9;}
	.st9{opacity:0.5;fill:#FFF800;}
	.st10{fill:#E3E3E3;}
	.st11{fill:#D4D4D4;}
	.st12{fill:#F0F0F0;}
	.st13{fill:#30D557;}
	.st14{fill:#FF513D;}
	.st15{fill:#FFB400;}
</style>
<path class="st0" d="M31.9678,15.0594c-0.0049-0.0049-0.0098-0.0098-0.0156-0.0156L21.3359,4.535
	c-0.7148-0.7148-1.9609-0.7109-2.668-0.0039L8.0322,15.0594C7.3662,15.7479,7,16.6532,7,17.6092v14.8909
	c0,1.9297,1.5703,3.5,3.5,3.5h19c1.9297,0,3.5-1.5703,3.5-3.5V17.6092C33,16.6532,32.6338,15.7479,31.9678,15.0594z M23,34.0001h-6
	v-12h6V34.0001z M31,32.5001c0,0.8271-0.6729,1.5-1.5,1.5H25v-13c0-0.5527-0.4473-1-1-1h-8c-0.5527,0-1,0.4473-1,1v13h-4.5
	c-0.8271,0-1.5-0.6729-1.5-1.5V17.6092c0-0.4346,0.167-0.8457,0.4541-1.1436L20,6.0262l10.5371,10.4307
	C30.8359,16.7694,31,17.1786,31,17.6092V32.5001z"/>
</svg>
