<svg viewBox="0 0 16 16" xmlns="http://www.w3.org/2000/svg"><path d="m14.4453 5.9849-5.751-5.6929a.9834.9834 0 0 0 -1.3867-.0015l-5.7607 5.7022a1.9361 1.9361 0 0 0 -.5469 1.3525v6.6548a2.0023 2.0023 0 0 0 2 2h10a2.0023 2.0023 0 0 0 2-2v-6.6548a1.9419 1.9419 0 0 0 -.5547-1.3603zm-5.4453 9.0151h-2v-6h2zm5-1a1.001 1.001 0 0 1 -1 1h-3v-6a1.001 1.001 0 0 0 -1-1h-2a1.001 1.001 0 0 0 -1 1v6h-3a1.001 1.001 0 0 1 -1-1v-6.6548a.9375.9375 0 0 1 .2578-.6494l5.7315-5.6943 5.7451 5.6865a.9428.9428 0 0 1 .2656.6572z" fill="#444"/></svg>