<?xml version="1.0" encoding="utf-8"?>
<!-- Generator: Adobe Illustrator 21.0.2, SVG Export Plug-In . SVG Version: 6.00 Build 0)  -->
<svg version="1.1" xmlns="http://www.w3.org/2000/svg" xmlns:xlink="http://www.w3.org/1999/xlink" x="0px" y="0px"
	 viewBox="0 0 16 16" style="enable-background:new 0 0 16 16;" xml:space="preserve">
<style type="text/css">
	.st0{fill:#444444;}
	.st1{fill:#07C1E4;}
	.st2{fill:#FFFFFF;}
	.st3{opacity:0.48;}
	.st4{opacity:0.16;fill:#444444;}
	.st5{opacity:0.06;fill:#444444;}
	.st6{opacity:0.08;fill:#444444;}
	.st7{fill:#D6F7FD;}
</style>
<g id="Layer_1">
</g>
<g id="Layer_2">
	<path class="st1" d="M14.4453,5.9849L8.6943,0.292C8.3105-0.0889,7.6895-0.0913,7.3076,0.2905L1.5469,5.9927
		C1.1943,6.3574,1,6.8374,1,7.3452V14c0,1.103,0.8975,2,2,2h10c1.1025,0,2-0.897,2-2V7.3452
		C15,6.8374,14.8057,6.3574,14.4453,5.9849z M9,15H7V9h2V15z M14,14c0,0.5513-0.4482,1-1,1h-3V9c0-0.5513-0.4482-1-1-1H7
		C6.4482,8,6,8.4487,6,9v6H3c-0.5518,0-1-0.4487-1-1V7.3452c0-0.2466,0.0947-0.48,0.2578-0.6494l5.7314-5.6943l5.7451,5.6865
		C13.9053,6.8652,14,7.0986,14,7.3452V14z"/>
</g>
</svg>
