<svg xmlns="http://www.w3.org/2000/svg" viewBox="0 0 16 16"><defs><style>.cls-1{fill:#444;}</style></defs><title>Home</title><g id="Layer_2" data-name="Layer 2"><path class="cls-1" d="M14.4453,5.9849,8.6943.292A.9834.9834,0,0,0,7.3076.2905L1.5469,5.9927A1.9361,1.9361,0,0,0,1,7.3452V14a2.0023,2.0023,0,0,0,2,2H13a2.0023,2.0023,0,0,0,2-2V7.3452A1.9419,1.9419,0,0,0,14.4453,5.9849ZM9,15H7V9H9Zm5-1a1.001,1.001,0,0,1-1,1H10V9A1.001,1.001,0,0,0,9,8H7A1.001,1.001,0,0,0,6,9v6H3a1.001,1.001,0,0,1-1-1V7.3452a.9375.9375,0,0,1,.2578-.6494L7.9893,1.0015,13.7344,6.688A.9428.9428,0,0,1,14,7.3452Z"/></g></svg>