<?xml version="1.0" encoding="UTF-8"?>
<svg width="16px" height="16px" viewBox="0 0 16 16" version="1.1" xmlns="http://www.w3.org/2000/svg" xmlns:xlink="http://www.w3.org/1999/xlink">
    <!-- Generator: Sketch 49.3 (51167) - http://www.bohemiancoding.com/sketch -->
    <title>Home</title>
    <desc>Created with Sketch.</desc>
    <defs></defs>
    <g id="Page-1" stroke="none" stroke-width="1" fill="none" fill-rule="evenodd">
        <g id="home_16" fill="#000000">
            <g id="icon">
                <path d="M7.998,0 C7.573,0 7.148,0.146 6.809,0.438 L0.882,5.551 C0.319,6.038 -0.004,6.746 -6.77626358e-21,7.491 L0.037,14.757 C0.04,15.444 0.599,16 1.287,16 L4.75,16 C5.44,16 6,15.44 6,14.75 L6,10.36 C6,10.161 6.161,10 6.36,10 L9.64,10 C9.839,10 10,10.161 10,10.36 L10,14.75 C10,15.44 10.56,16 11.25,16 L14.75,16 C15.44,16 16,15.44 16,14.75 L16,7.482 C16,6.742 15.678,6.038 15.117,5.554 L9.185,0.438 C8.848,0.146 8.423,0 7.998,0 M7.998,1 C8.197,1 8.386,1.069 8.533,1.196 L14.464,6.312 C14.805,6.605 15,7.032 15,7.482 L15,14.75 C15,14.888 14.888,15 14.75,15 L11.25,15 C11.112,15 11,14.888 11,14.75 L11,10.36 C11,9.61 10.39,9 9.64,9 L6.36,9 C5.61,9 5,9.61 5,10.36 L5,14.75 C5,14.888 4.888,15 4.75,15 L1.287,15 C1.15,15 1.038,14.889 1.037,14.751 L1,7.486 C0.998,7.033 1.193,6.604 1.536,6.309 L7.462,1.196 C7.608,1.069 7.799,1 7.998,1" id="fill"></path>
            </g>
        </g>
        <g id="slices" transform="translate(-6.000000, -415.000000)"></g>
    </g>
</svg>