<svg enable-background="new 0 0 16 16" viewBox="0 0 16 16" xmlns="http://www.w3.org/2000/svg"><g fill="#ffffff"><path d="m10 10.06v-7.56c0-1.38-1.12-2.5-2.5-2.5s-2.5 1.12-2.5 2.5v7.56c-.62.63-1 1.49-1 2.44 0 1.93 1.57 3.5 3.5 3.5s3.5-1.57 3.5-3.5c0-.95-.38-1.81-1-2.44zm-.05 2.94c-.23 1.14-1.24 2-2.45 2s-2.22-.86-2.45-2c-.03-.16-.05-.33-.05-.5 0-.82.39-1.54 1-2v-8c0-.83.67-1.5 1.5-1.5s1.5.67 1.5 1.5v8c.61.46 1 1.18 1 2 0 .17-.02.34-.05.5z"/><path d="m8 11.0918v-6.0918c0-.2761-.2239-.5-.5-.5s-.5.2239-.5.5v6.0918c-.5812.2066-1 .756-1 1.4082 0 .8284.6716 1.5 1.5 1.5s1.5-.6716 1.5-1.5c0-.6522-.4188-1.2016-1-1.4082z"/></g></svg>