<?xml version="1.0" encoding="utf-8"?>
<!-- Generator: Adobe Illustrator 21.0.2, SVG Export Plug-In . SVG Version: 6.00 Build 0)  -->
<svg version="1.1" xmlns="http://www.w3.org/2000/svg" xmlns:xlink="http://www.w3.org/1999/xlink" x="0px" y="0px"
	 viewBox="0 0 16 16" style="enable-background:new 0 0 16 16;" xml:space="preserve">
<style type="text/css">
	.st0{fill:#444444;}
	.st1{fill:#07C1E4;}
	.st2{fill:#FFFFFF;}
	.st3{opacity:0.48;}
	.st4{opacity:0.16;fill:#444444;}
	.st5{opacity:0.06;fill:#444444;}
	.st6{opacity:0.08;fill:#444444;}
	.st7{fill:#D6F7FD;}
</style>
<g id="Layer_1">
</g>
<g id="Layer_2">
	<g>
		<path class="st1" d="M10,10.06V2.5C10,1.12,8.88,0,7.5,0S5,1.12,5,2.5v7.56c-0.62,0.63-1,1.49-1,2.44C4,14.43,5.57,16,7.5,16
			s3.5-1.57,3.5-3.5C11,11.55,10.62,10.69,10,10.06z M9.95,13c-0.23,1.14-1.24,2-2.45,2s-2.22-0.86-2.45-2
			C5.02,12.84,5,12.67,5,12.5c0-0.82,0.39-1.54,1-2v-8C6,1.67,6.67,1,7.5,1S9,1.67,9,2.5v8c0.61,0.46,1,1.18,1,2
			C10,12.67,9.98,12.84,9.95,13z"/>
		<path class="st1" d="M8,11.0918V5c0-0.2761-0.2239-0.5-0.5-0.5S7,4.7239,7,5v6.0918c-0.5812,0.2066-1,0.756-1,1.4082
			C6,13.3284,6.6716,14,7.5,14S9,13.3284,9,12.5C9,11.8478,8.5812,11.2984,8,11.0918z"/>
	</g>
</g>
</svg>
