<svg xmlns="http://www.w3.org/2000/svg" viewBox="0 0 16 16"><defs><style>.cls-1{fill:#444;}</style></defs><title>HVAC</title><g id="Layer_2" data-name="Layer 2"><path class="cls-1" d="M10,10.06V2.5a2.5,2.5,0,0,0-5,0v7.56A3.4643,3.4643,0,0,0,4,12.5a3.5,3.5,0,0,0,7,0A3.4643,3.4643,0,0,0,10,10.06ZM9.95,13a2.5006,2.5006,0,0,1-4.9,0A2.7373,2.7373,0,0,1,5,12.5a2.4906,2.4906,0,0,1,1-2v-8a1.5,1.5,0,0,1,3,0v8a2.4906,2.4906,0,0,1,1,2A2.7373,2.7373,0,0,1,9.95,13Z"/><path class="cls-1" d="M8,11.0918V5A.5.5,0,0,0,7,5v6.0918a1.5,1.5,0,1,0,1,0Z"/></g></svg>