<?xml version="1.0" encoding="UTF-8"?>
<svg width="21px" height="21px" viewBox="0 0 21 21" version="1.1" xmlns="http://www.w3.org/2000/svg" xmlns:xlink="http://www.w3.org/1999/xlink">
    <!-- Generator: Sketch 42 (36781) - http://www.bohemiancoding.com/sketch -->
    <title>icon button</title>
    <desc>Created with Sketch.</desc>
    <defs></defs>
    <g id="Page-1" stroke="none" stroke-width="1" fill="none" fill-rule="evenodd">
        <g id="1.4" transform="translate(-1247.000000, -642.000000)">
            <g id="content" transform="translate(100.000000, 196.000000)">
                <g id="right-panel" transform="translate(1110.000000, 0.000000)">
                    <g id="content" transform="translate(0.000000, 40.000000)">
                        <g id="item" transform="translate(0.000000, 384.000000)">
                            <g id="icon-button" transform="translate(37.000000, 22.000000)">
                                <path d="M10.5,21 C4.701,21 0,16.299 0,10.5 C0,4.701 4.701,0 10.5,0 C16.299,0 21,4.701 21,10.5 C21,16.299 16.299,21 10.5,21" id="Fill-1" fill="#444444" opacity="0.0799999982"></path>
                                <path d="M10.5,0 C4.701,0 0,4.701 0,10.5 C0,16.299 4.701,21 10.5,21 C16.299,21 21,16.299 21,10.5 C21,4.701 16.299,0 10.5,0 M10.5,1 C15.738,1 20,5.262 20,10.5 C20,15.738 15.738,20 10.5,20 C5.262,20 1,15.738 1,10.5 C1,5.262 5.262,1 10.5,1" id="Fill-3" fill="#565656" opacity="0.0599999987"></path>
                                <path d="M13.5,10 L11,10 L11,7.5 C11,7.224 10.776,7 10.5,7 C10.224,7 10,7.224 10,7.5 L10,10 L7.5,10 C7.224,10 7,10.224 7,10.5 C7,10.776 7.224,11 7.5,11 L10,11 L10,13.5 C10,13.776 10.224,14 10.5,14 C10.776,14 11,13.776 11,13.5 L11,11 L13.5,11 C13.776,11 14,10.776 14,10.5 C14,10.224 13.776,10 13.5,10" id="Fill-5" fill="#565656"></path>
                            </g>
                        </g>
                    </g>
                </g>
            </g>
        </g>
    </g>
</svg>