<svg xmlns="http://www.w3.org/2000/svg" viewBox="0 0 16 16"><defs><style>.cls-1{fill:#444;}</style></defs><title>Inputswitch</title><g id="Layer_2" data-name="Layer 2"><path class="cls-1" d="M15.8529,12.1459,12.8535,9.15a.5.5,0,0,0-.707.707l2.1262,2.1238A6.9583,6.9583,0,0,1,9.709,9.9468L7.7645,8.0017,9.709,6.0566a6.9583,6.9583,0,0,1,4.5637-2.034L12.1465,6.1465a.5.5,0,1,0,.707.707l2.9994-3h0a.496.496,0,0,0-.01-.7148L12.8535.1465a.5.5,0,0,0-.707.707l2.1649,2.1672A7.9489,7.9489,0,0,0,9.002,5.35L7.0575,7.2946l-.9481-.9484A7.8943,7.8943,0,0,0,.5,4a.5.5,0,0,0,0,1A6.9029,6.9029,0,0,1,5.4023,7.0532l.9482.9485L5.4023,8.95A6.9029,6.9029,0,0,1,.5,11.0034a.5.5,0,0,0,0,1A7.8943,7.8943,0,0,0,6.1094,9.6572l.9481-.9484L9.002,10.6538a7.9489,7.9489,0,0,0,5.3094,2.3289L12.1465,15.15a.5.5,0,1,0,.707.707l2.9994-3.0028v0a.4995.4995,0,0,0,0-.7079Z"/></g></svg>