<svg enable-background="new 0 0 16 16" viewBox="0 0 16 16" xmlns="http://www.w3.org/2000/svg"><path d="m15.8529 12.1459-2.9994-2.996c-.1953-.1953-.5117-.1953-.707 0s-.1953.5122 0 .707l2.1262 2.1238c-1.7234-.0953-3.3323-.8035-4.5637-2.034l-1.9445-1.945 1.9445-1.9451c1.2314-1.2305 2.8403-1.9387 4.5637-2.034l-2.1262 2.1238c-.1953.1948-.1953.5117 0 .707.0976.0978.2256.1466.3535.1466s.2559-.0488.3535-.1465l2.9994-2.9996c.0908-.0905.1471-.2155.1471-.3539 0-.1428-.0613-.2698-.1572-.3609l-2.9893-2.9926c-.1953-.1953-.5117-.1953-.707 0-.1953.1948-.1953.5117 0 .707l2.1649 2.1672c-2.0056.0875-3.8804.9003-5.3094 2.3289l-1.9445 1.945-.9481-.9484c-1.5137-1.5132-3.5059-2.3462-5.6094-2.3462-.2764 0-.5.2236-.5.5s.2236.5.5.5c1.8359 0 3.5771.729 4.9023 2.0532l.9482.9485-.9482.9485c-1.3252 1.3242-3.0664 2.0532-4.9023 2.0532-.2764 0-.5.2236-.5.5s.2236.5.5.5c2.1035 0 4.0957-.833 5.6094-2.3462l.9481-.9484 1.9445 1.9449c1.4291 1.4286 3.3039 2.2415 5.3094 2.3289l-2.1649 2.1672c-.1953.1953-.1953.5122 0 .707.0977.0977.2256.1465.3535.1465s.2559-.0488.3535-.1465l2.9994-3.0028v-.0002c.0908-.0904.1471-.2154.1471-.3538s-.0563-.2635-.1471-.354z" fill="#ffffff"/></svg>