<svg viewBox="0 0 16 16" xmlns="http://www.w3.org/2000/svg"><path d="m15.8529 12.1459-2.9994-2.9959a.5.5 0 0 0 -.707.707l2.1262 2.1238a6.9583 6.9583 0 0 1 -4.5637-2.034l-1.9445-1.9451 1.9445-1.9451a6.9583 6.9583 0 0 1 4.5637-2.034l-2.1262 2.1239a.5.5 0 1 0 .707.707l2.9994-3a.496.496 0 0 0 -.01-.7148l-2.9894-2.9922a.5.5 0 0 0 -.707.707l2.1649 2.1672a7.9489 7.9489 0 0 0 -5.3094 2.3293l-1.9445 1.9446-.9481-.9484a7.8943 7.8943 0 0 0 -5.6094-2.3462.5.5 0 0 0 0 1 6.9029 6.9029 0 0 1 4.9023 2.0532l.9482.9485-.9482.9483a6.9029 6.9029 0 0 1 -4.9023 2.0534.5.5 0 0 0 0 1 7.8943 7.8943 0 0 0 5.6094-2.3462l.9481-.9484 1.9445 1.945a7.9489 7.9489 0 0 0 5.3094 2.3289l-2.1649 2.1673a.5.5 0 1 0 .707.707l2.9994-3.0028a.4995.4995 0 0 0 0-.7079z" fill="#444"/></svg>