<?xml version="1.0" encoding="utf-8"?>
<!-- Generator: Adobe Illustrator 21.0.2, SVG Export Plug-In . SVG Version: 6.00 Build 0)  -->
<svg version="1.1" xmlns="http://www.w3.org/2000/svg" xmlns:xlink="http://www.w3.org/1999/xlink" x="0px" y="0px"
	 viewBox="0 0 16 16" style="enable-background:new 0 0 16 16;" xml:space="preserve">
<style type="text/css">
	.st0{fill:#444444;}
	.st1{fill:#07C1E4;}
	.st2{fill:#FFFFFF;}
	.st3{opacity:0.48;}
	.st4{opacity:0.16;fill:#444444;}
	.st5{opacity:0.06;fill:#444444;}
	.st6{opacity:0.08;fill:#444444;}
	.st7{fill:#D6F7FD;}
</style>
<g id="Layer_1">
</g>
<g id="Layer_2">
	<path class="st1" d="M15.8529,12.1459l-2.9994-2.996c-0.1953-0.1953-0.5117-0.1953-0.707,0s-0.1953,0.5122,0,0.707l2.1262,2.1238
		c-1.7234-0.0953-3.3323-0.8035-4.5637-2.034L7.7645,8.0017L9.709,6.0566c1.2314-1.2305,2.8403-1.9387,4.5637-2.034l-2.1262,2.1238
		c-0.1953,0.1948-0.1953,0.5117,0,0.707C12.2441,6.9512,12.3721,7,12.5,7s0.2559-0.0488,0.3535-0.1465l2.9994-2.9996l0,0
		C15.9437,3.7634,16,3.6384,16,3.5c0-0.1428-0.0613-0.2698-0.1572-0.3609l-2.9893-2.9926c-0.1953-0.1953-0.5117-0.1953-0.707,0
		c-0.1953,0.1948-0.1953,0.5117,0,0.707l2.1649,2.1672C12.3058,3.1082,10.431,3.921,9.002,5.3496L7.0575,7.2946L6.1094,6.3462
		C4.5957,4.833,2.6035,4,0.5,4C0.2236,4,0,4.2236,0,4.5S0.2236,5,0.5,5c1.8359,0,3.5771,0.729,4.9023,2.0532l0.9482,0.9485
		L5.4023,8.9502C4.0771,10.2744,2.3359,11.0034,0.5,11.0034c-0.2764,0-0.5,0.2236-0.5,0.5s0.2236,0.5,0.5,0.5
		c2.1035,0,4.0957-0.833,5.6094-2.3462l0.9481-0.9484l1.9445,1.9449c1.4291,1.4286,3.3039,2.2415,5.3094,2.3289l-2.1649,2.1672
		c-0.1953,0.1953-0.1953,0.5122,0,0.707c0.0977,0.0977,0.2256,0.1465,0.3535,0.1465s0.2559-0.0488,0.3535-0.1465l2.9994-3.0028
		v-0.0002C15.9437,12.7634,16,12.6384,16,12.5s-0.0563-0.2635-0.1471-0.354V12.1459z"/>
</g>
</svg>
