<svg enable-background="new 0 0 16 16" viewBox="0 0 16 16" xmlns="http://www.w3.org/2000/svg"><path d="m7.5 0c-4.1422 0-7.5 3.3578-7.5 7.5s3.3578 7.5 7.5 7.5 7.5-3.3578 7.5-7.5-3.3578-7.5-7.5-7.5zm6.4747 7h-1.9898c-.0858-2.1636-.7186-4.0753-1.6742-5.3519 2.036.9821 3.4828 2.9898 3.664 5.3519zm-6.9747-5.9184v5.9184h-2.9855c.1328-3.2376 1.5313-5.4889 2.9855-5.9184zm0 6.9184v5.9184c-1.4542-.4295-2.8527-2.6808-2.9855-5.9184zm1 5.9184v-5.9184h2.9855c-.1328 3.2376-1.5313 5.4889-2.9855 5.9184zm0-6.9184v-5.9184c1.4542.4295 2.8527 2.6808 2.9855 5.9184zm-3.3107-5.3519c-.9555 1.2766-1.5883 3.1883-1.6742 5.3519h-1.9898c.1812-2.3621 1.628-4.3698 3.664-5.3519zm-3.664 6.3519h1.9898c.0858 2.1636.7186 4.0753 1.6742 5.3519-2.036-.9821-3.4828-2.9898-3.664-5.3519zm9.2854 5.3519c.9555-1.2766 1.5883-3.1883 1.6742-5.3519h1.9898c-.1812 2.3621-1.628 4.3698-3.664 5.3519z" fill="#ffffff"/></svg>