<?xml version="1.0" encoding="utf-8"?>
<!-- Generator: Adobe Illustrator 21.1.0, SVG Export Plug-In . SVG Version: 6.00 Build 0)  -->
<svg version="1.1" id="Layer_1" xmlns="http://www.w3.org/2000/svg" xmlns:xlink="http://www.w3.org/1999/xlink" x="0px" y="0px"
	 viewBox="0 0 16 16" style="enable-background:new 0 0 16 16;" xml:space="preserve">
<style type="text/css">
	.st0{fill:#FF0000;}
	.st1{fill:none;stroke:#FFFFFF;stroke-width:2;stroke-linecap:round;stroke-linejoin:round;stroke-miterlimit:10;}
	.st2{fill:#FFFFFF;}
	.st3{fill:#444444;}
	.st4{fill:#07C1E4;}
</style>
<path class="st3" d="M7.5,0C3.3578,0,0,3.3578,0,7.5S3.3578,15,7.5,15S15,11.6422,15,7.5S11.6422,0,7.5,0z M13.9747,7h-1.9898
	c-0.0858-2.1636-0.7186-4.0753-1.6742-5.3519C12.3467,2.6302,13.7935,4.6379,13.9747,7z M7,1.0816V7H4.0145
	C4.1473,3.7624,5.5458,1.5111,7,1.0816z M7,8v5.9184C5.5458,13.4889,4.1473,11.2376,4.0145,8H7z M8,13.9184V8h2.9855
	C10.8527,11.2376,9.4542,13.4889,8,13.9184z M8,7V1.0816C9.4542,1.5111,10.8527,3.7624,10.9855,7H8z M4.6893,1.6481
	C3.7338,2.9247,3.101,4.8364,3.0151,7H1.0253C1.2065,4.6379,2.6533,2.6302,4.6893,1.6481z M1.0253,8h1.9898
	c0.0858,2.1636,0.7186,4.0753,1.6742,5.3519C2.6533,12.3698,1.2065,10.3621,1.0253,8z M10.3107,13.3519
	C11.2662,12.0753,11.899,10.1636,11.9849,8h1.9898C13.7935,10.3621,12.3467,12.3698,10.3107,13.3519z"/>
</svg>
