<?xml version="1.0" encoding="utf-8"?>
<!-- Generator: Adobe Illustrator 21.0.2, SVG Export Plug-In . SVG Version: 6.00 Build 0)  -->
<svg version="1.1" xmlns="http://www.w3.org/2000/svg" xmlns:xlink="http://www.w3.org/1999/xlink" x="0px" y="0px"
	 viewBox="0 0 16 16" style="enable-background:new 0 0 16 16;" xml:space="preserve">
<style type="text/css">
	.st0{fill:#444444;}
	.st1{fill:#07C1E4;}
	.st2{fill:#FFFFFF;}
	.st3{opacity:0.48;}
	.st4{opacity:0.16;fill:#444444;}
	.st5{opacity:0.06;fill:#444444;}
	.st6{opacity:0.08;fill:#444444;}
	.st7{fill:#D6F7FD;}
</style>
<g id="Layer_1">
</g>
<g id="Layer_2">
	<path class="st1" d="M15.5,11H15V4c0-1.103-0.8975-2-2-2H3C1.8975,2,1,2.897,1,4v7H0.5C0.2236,11,0,11.2236,0,11.5v1.2222
		C0,13.978,1.0215,15,2.2773,15h11.4453C14.9785,15,16,13.978,16,12.7222V11.5C16,11.2236,15.7764,11,15.5,11z M2,4
		c0-0.5513,0.4482-1,1-1h10c0.5518,0,1,0.4487,1,1v7H2V4z M15,12.7222C15,13.4268,14.4268,14,13.7227,14H2.2773
		C1.5732,14,1,13.4268,1,12.7222V12h14V12.7222z"/>
</g>
</svg>
