<svg xmlns="http://www.w3.org/2000/svg" viewBox="0 0 16 16"><defs><style>.cls-1{fill:#444;}</style></defs><title>Laptop</title><g id="Layer_2" data-name="Layer 2"><path class="cls-1" d="M15.5,11H15V4a2.0023,2.0023,0,0,0-2-2H3A2.0023,2.0023,0,0,0,1,4v7H.5a.5.5,0,0,0-.5.5v1.2222A2.28,2.28,0,0,0,2.2773,15H13.7227A2.28,2.28,0,0,0,16,12.7222V11.5A.5.5,0,0,0,15.5,11ZM2,4A1.001,1.001,0,0,1,3,3H13a1.001,1.001,0,0,1,1,1v7H2Zm13,8.7222A1.2792,1.2792,0,0,1,13.7227,14H2.2773A1.2792,1.2792,0,0,1,1,12.7222V12H15Z"/></g></svg>