<?xml version="1.0" encoding="UTF-8"?>
<svg width="16px" height="16px" viewBox="0 0 16 16" version="1.1" xmlns="http://www.w3.org/2000/svg" xmlns:xlink="http://www.w3.org/1999/xlink">
    <!-- Generator: Sketch 49.3 (51167) - http://www.bohemiancoding.com/sketch -->
    <title>List</title>
    <desc>Created with Sketch.</desc>
    <defs></defs>
    <g id="Page-1" stroke="none" stroke-width="1" fill="none" fill-rule="evenodd">
        <g id="list-menu_16" transform="translate(1.000000, 3.000000)" fill="#000000">
            <g id="icon">
                <path d="M0,0.5 C0,0.223857625 0.219906569,0 0.498267412,0 L13.5017326,0 C13.7769181,0 14,0.231933594 14,0.5 C14,0.776142375 13.7800934,1 13.5017326,1 L0.498267412,1 C0.223081919,1 0,0.768066406 0,0.5 Z M0,5.5 C0,5.22385763 0.219906569,5 0.498267412,5 L13.5017326,5 C13.7769181,5 14,5.23193359 14,5.5 C14,5.77614237 13.7800934,6 13.5017326,6 L0.498267412,6 C0.223081919,6 0,5.76806641 0,5.5 Z M0,10.5 C0,10.2238576 0.219906569,10 0.498267412,10 L13.5017326,10 C13.7769181,10 14,10.2319336 14,10.5 C14,10.7761424 13.7800934,11 13.5017326,11 L0.498267412,11 C0.223081919,11 0,10.7680664 0,10.5 Z" id="fill"></path>
            </g>
        </g>
        <g id="slices" transform="translate(-6.000000, -451.000000)"></g>
    </g>
</svg>