<?xml version="1.0" encoding="utf-8"?>
<!-- Generator: Adobe Illustrator 21.0.2, SVG Export Plug-In . SVG Version: 6.00 Build 0)  -->
<svg version="1.1" id="Layer_1" xmlns="http://www.w3.org/2000/svg" xmlns:xlink="http://www.w3.org/1999/xlink" x="0px" y="0px"
	 viewBox="0 0 40 40" style="enable-background:new 0 0 40 40;" xml:space="preserve">
<style type="text/css">
	.st0{fill:#FFFFFF;}
	.st1{opacity:0.08;fill:#444444;}
	.st2{opacity:0.16;fill:#444444;}
	.st3{fill:#07C1E4;}
	.st4{fill:#05A1BF;}
	.st5{opacity:0.5;fill:#FF4444;}
	.st6{fill:#444444;}
	.st7{fill:#0000F9;}
	.st8{opacity:0.5;fill:#FFF800;}
	.st9{fill:#E3E3E3;}
	.st10{fill:#D4D4D4;}
	.st11{fill:#F0F0F0;}
	.st12{fill:#30D557;}
	.st13{fill:#FF513D;}
	.st14{fill:#FFB400;}
	.st15{fill:#FF0000;}
	.st16{fill:#444444;stroke:#444444;stroke-width:0.4;stroke-miterlimit:10;}
</style>
<g>
	<path class="st6" d="M33,31H7c-0.5527,0-1-0.4473-1-1s0.4473-1,1-1h26c0.5527,0,1,0.4473,1,1S33.5527,31,33,31z"/>
	<path class="st6" d="M33,11H7c-0.5527,0-1-0.4473-1-1s0.4473-1,1-1h26c0.5527,0,1,0.4473,1,1S33.5527,11,33,11z"/>
	<path class="st6" d="M33,21H7c-0.5527,0-1-0.4473-1-1s0.4473-1,1-1h26c0.5527,0,1,0.4473,1,1S33.5527,21,33,21z"/>
</g>
</svg>
