<svg viewBox="0 0 16 16" xmlns="http://www.w3.org/2000/svg"><path d="m13.4229.3125a1.4923 1.4923 0 0 0 -1.2891-.272l-6 1.5117a1.4976 1.4976 0 0 0 -1.1338 1.4546v9.2714a1.9768 1.9768 0 0 0 -1-.2782 2 2 0 1 0 2 2v-7.604l7-1.6526v5.5349a1.9768 1.9768 0 0 0 -1-.2783 2 2 0 1 0 2 2v-10.5049a1.4894 1.4894 0 0 0 -.5771-1.1826zm-9.4229 14.6875a1 1 0 1 1 1-1 1.001 1.001 0 0 1 -1 1zm2-9.6321v-2.3611a.4993.4993 0 0 1 .3779-.4849l6-1.5117a.5.5 0 0 1 .6221.4849v2.22zm6 7.6321a1 1 0 1 1 1-1 1.001 1.001 0 0 1 -1 1z" fill="#444"/></svg>