<?xml version="1.0" encoding="utf-8"?>
<!-- Generator: Adobe Illustrator 21.0.2, SVG Export Plug-In . SVG Version: 6.00 Build 0)  -->
<svg version="1.1" xmlns="http://www.w3.org/2000/svg" xmlns:xlink="http://www.w3.org/1999/xlink" x="0px" y="0px"
	 viewBox="0 0 16 16" style="enable-background:new 0 0 16 16;" xml:space="preserve">
<style type="text/css">
	.st0{fill:#444444;}
	.st1{fill:#07C1E4;}
	.st2{fill:#FFFFFF;}
	.st3{opacity:0.48;}
	.st4{opacity:0.16;fill:#444444;}
	.st5{opacity:0.06;fill:#444444;}
	.st6{opacity:0.08;fill:#444444;}
	.st7{fill:#D6F7FD;}
</style>
<g id="Layer_1">
</g>
<g id="Layer_2">
	<path class="st1" d="M13.4229,0.3125c-0.3662-0.2852-0.834-0.3857-1.2891-0.272l-6,1.5117C5.4658,1.7202,5,2.3184,5,3.0068v9.2714
		C4.7046,12.106,4.3658,12,4,12c-1.1025,0-2,0.897-2,2s0.8975,2,2,2s2-0.897,2-2V6.396l7-1.6526v5.5349
		C12.7046,10.106,12.3658,10,12,10c-1.1025,0-2,0.897-2,2s0.8975,2,2,2s2-0.897,2-2V1.4951C14,1.0298,13.79,0.5986,13.4229,0.3125z
		 M4,15c-0.5518,0-1-0.4487-1-1s0.4482-1,1-1s1,0.4487,1,1S4.5518,15,4,15z M6,5.3679V3.0068C6,2.7773,6.1553,2.5781,6.3779,2.522
		l6-1.5117c0.1504-0.0376,0.3076-0.0049,0.4297,0.0908C12.9297,1.1963,13,1.3398,13,1.4951v2.2202L6,5.3679z M12,13
		c-0.5518,0-1-0.4487-1-1s0.4482-1,1-1s1,0.4487,1,1S12.5518,13,12,13z"/>
</g>
</svg>
