<svg xmlns="http://www.w3.org/2000/svg" viewBox="0 0 16 16"><defs><style>.cls-1{fill:#444;}</style></defs><title>Media</title><g id="Layer_2" data-name="Layer 2"><path class="cls-1" d="M13.4229.3125a1.4923,1.4923,0,0,0-1.2891-.272l-6,1.5117A1.4976,1.4976,0,0,0,5,3.0068v9.2714A1.9768,1.9768,0,0,0,4,12a2,2,0,1,0,2,2V6.396l7-1.6526v5.5349A1.9768,1.9768,0,0,0,12,10a2,2,0,1,0,2,2V1.4951A1.4894,1.4894,0,0,0,13.4229.3125ZM4,15a1,1,0,1,1,1-1A1.001,1.001,0,0,1,4,15ZM6,5.3679V3.0068a.4993.4993,0,0,1,.3779-.4849l6-1.5117A.5.5,0,0,1,13,1.4951v2.22ZM12,13a1,1,0,1,1,1-1A1.001,1.001,0,0,1,12,13Z"/></g></svg>