<svg enable-background="new 0 0 16 16" viewBox="0 0 16 16" xmlns="http://www.w3.org/2000/svg"><path d="m13.4229.3125c-.3662-.2852-.834-.3857-1.2891-.272l-6 1.5117c-.668.168-1.1338.7662-1.1338 1.4546v9.2714c-.2954-.1722-.6342-.2782-1-.2782-1.1025 0-2 .897-2 2s.8975 2 2 2 2-.897 2-2v-7.604l7-1.6526v5.5349c-.2954-.1723-.6342-.2783-1-.2783-1.1025 0-2 .897-2 2s.8975 2 2 2 2-.897 2-2v-10.5049c0-.4653-.21-.8965-.5771-1.1826zm-9.4229 14.6875c-.5518 0-1-.4487-1-1s.4482-1 1-1 1 .4487 1 1-.4482 1-1 1zm2-9.6321v-2.3611c0-.2295.1553-.4287.3779-.4848l6-1.5117c.1504-.0376.3076-.0049.4297.0908.1221.0952.1924.2387.1924.394v2.2202zm6 7.6321c-.5518 0-1-.4487-1-1s.4482-1 1-1 1 .4487 1 1-.4482 1-1 1z" fill="#ffffff"/></svg>