<?xml version="1.0" encoding="utf-8"?>
<!-- Generator: Adobe Illustrator 21.0.0, SVG Export Plug-In . SVG Version: 6.00 Build 0)  -->
<svg version="1.1" id="Layer_1" xmlns="http://www.w3.org/2000/svg" xmlns:xlink="http://www.w3.org/1999/xlink" x="0px" y="0px"
	 viewBox="0 0 80 80" style="enable-background:new 0 0 80 80;" xml:space="preserve">
<style type="text/css">
	.st0{fill:#30D557;}
	.st1{fill:#28B249;}
	.st2{fill:#A866FF;}
	.st3{fill:#8C55D6;}
	.st4{fill:#FF513D;}
	.st5{fill:#D64333;}
	.st6{fill:#444444;}
	.st7{fill:#393939;}
	.st8{fill:#00D6A2;}
	.st9{fill:#00B488;}
	.st10{fill:white;}
</style>
<path class="st10" d="M63,17h-8v-5c0-0.5527-0.4473-1-1-1s-1,0.4473-1,1v5H27v-5c0-0.5527-0.4473-1-1-1s-1,0.4473-1,1v5h-8
	c-3.3086,0-6,2.6914-6,6v40c0,3.3086,2.6914,6,6,6h46c3.3086,0,6-2.6914,6-6V23C69,19.6914,66.3086,17,63,17z M17,19h46
	c2.2061,0,4,1.7939,4,4v30H13V23C13,20.7939,14.7939,19,17,19z M63,67H17c-2.2061,0-4-1.7939-4-4v-8h54v8
	C67,65.2061,65.2061,67,63,67z"/>
</svg>
