<?xml version="1.0" encoding="utf-8"?>
<!-- Generator: Adobe Illustrator 21.1.0, SVG Export Plug-In . SVG Version: 6.00 Build 0)  -->
<svg version="1.1" id="Layer_1" xmlns="http://www.w3.org/2000/svg" xmlns:xlink="http://www.w3.org/1999/xlink" x="0px" y="0px"
	 viewBox="0 0 16 16" style="enable-background:new 0 0 16 16;" xml:space="preserve">
<style type="text/css">
	.st0{fill:#444444;}
</style>
<g>
	<path class="st0" d="M7.1465,10.8535C7.2441,10.9512,7.3721,11,7.5,11s0.2559-0.0488,0.3535-0.1465l4-4
		c0.1953-0.1953,0.1953-0.5117,0-0.707s-0.5117-0.1953-0.707,0L8,9.293V1.5C8,1.2236,7.7764,1,7.5,1S7,1.2236,7,1.5v7.793
		L3.8535,6.1465c-0.1953-0.1953-0.5117-0.1953-0.707,0s-0.1953,0.5117,0,0.707L7.1465,10.8535z"/>
	<path class="st0" d="M14.5,6C14.2236,6,14,6.2236,14,6.5V12c0,0.5518-0.4482,1-1,1H2c-0.5518,0-1-0.4482-1-1V6.5
		C1,6.2236,0.7764,6,0.5,6S0,6.2236,0,6.5V12c0,1.1025,0.8975,2,2,2h11c1.1025,0,2-0.8975,2-2V6.5C15,6.2236,14.7764,6,14.5,6z"/>
</g>
</svg>
