<?xml version="1.0" encoding="UTF-8" standalone="no"?>
<svg width="50px" height="50px" viewBox="0 0 50 50" version="1.1" xmlns="http://www.w3.org/2000/svg" xmlns:xlink="http://www.w3.org/1999/xlink" xmlns:sketch="http://www.bohemiancoding.com/sketch/ns">
    <!-- Generator: Sketch 3.4.4 (17249) - http://www.bohemiancoding.com/sketch -->
    <title>menu-light</title>
    <desc>Created with Sketch.</desc>
    <defs></defs>
    <g id="Page-1" stroke="none" stroke-width="1" fill="none" fill-rule="evenodd" sketch:type="MSPage">
        <g id="menu-light" sketch:type="MSArtboardGroup" fill="#FFFFFF">
            <g id="Page-1" sketch:type="MSLayerGroup" transform="translate(14.000000, 16.000000)">
                <path d="M1,1.9062 L21.047,1.9062 C21.573,1.9062 22,1.4792 22,0.9532 C22,0.4272 21.573,0.0002 21.047,0.0002 L1,0.0002 C0.474,0.0002 0.047,0.4272 0.047,0.9532 C0.047,1.4792 0.474,1.9062 1,1.9062" id="Fill-1" sketch:type="MSShapeGroup"></path>
                <path d="M21.0469,8 L0.9999,8 C0.4739,8 0.0469,8.427 0.0469,8.953 C0.0469,9.479 0.4739,9.906 0.9999,9.906 L21.0469,9.906 C21.5729,9.906 21.9999,9.479 21.9999,8.953 C21.9999,8.427 21.5729,8 21.0469,8" id="Fill-3" sketch:type="MSShapeGroup"></path>
                <path d="M21,16 L1,16 C0.45,16 0,16.45 0,17 C0,17.55 0.45,18 1,18 L21,18 C21.55,18 22,17.55 22,17 C22,16.45 21.55,16 21,16" id="Fill-5" sketch:type="MSShapeGroup"></path>
            </g>
        </g>
    </g>
</svg>