<?xml version="1.0" encoding="utf-8"?>
<!-- Generator: Adobe Illustrator 21.1.0, SVG Export Plug-In . SVG Version: 6.00 Build 0)  -->
<svg version="1.1" id="Layer_1" xmlns="http://www.w3.org/2000/svg" xmlns:xlink="http://www.w3.org/1999/xlink" x="0px" y="0px"
	 viewBox="0 0 16 16" style="enable-background:new 0 0 16 16;" xml:space="preserve">
<style type="text/css">
	.st0{fill:#444444;}
</style>
<g>
	<path class="st0" d="M1.8866,15c-0.3349,0-0.6699-0.0898-0.9716-0.2715C0.3418,14.3848,0,13.7804,0,13.1124V1.8866
		c0-0.6679,0.3418-1.2724,0.915-1.6161c0.5732-0.3447,1.2685-0.3594,1.8563-0.0469l11.22,5.609C14.6182,6.1676,15,6.8042,15,7.5015
		s-0.3818,1.3339-0.997,1.663L2.7596,14.7813C2.4862,14.9268,2.1864,15,1.8866,15z M1.8807,1.0019
		c-0.1572,0-0.3125,0.042-0.4511,0.126C1.1601,1.289,0.9999,1.5731,0.9999,1.8866v11.2258c0,0.3135,0.1601,0.5976,0.4297,0.7587
		c0.2676,0.1631,0.5937,0.1699,0.871,0.0215L13.544,8.2758c0.2812-0.1504,0.456-0.4424,0.456-0.7744
		c0-0.332-0.1748-0.624-0.4677-0.7802l-11.22-5.609C2.1737,1.038,2.0262,1.0019,1.8807,1.0019z"/>
</g>
</svg>
