<?xml version="1.0" encoding="utf-8"?>
<!-- Generator: Adobe Illustrator 21.1.0, SVG Export Plug-In . SVG Version: 6.00 Build 0)  -->
<svg version="1.1" id="Layer_1" xmlns="http://www.w3.org/2000/svg" xmlns:xlink="http://www.w3.org/1999/xlink" x="0px" y="0px"
	 viewBox="0 0 16 16" style="enable-background:new 0 0 16 16;" xml:space="preserve">
<style type="text/css">
	.st0{fill:red;}
</style>
<g>
	<path class="st0" d="M12.0361,4H2.9375C2.6689,4,2.4121,4.1162,2.2344,4.3174C2.0566,4.5195,1.9736,4.7881,2.0107,5.0723
		l1.3506,8.3496C3.4785,14.3223,4.25,15,5.1582,15h4.6836c0.9121,0,1.6846-0.6826,1.7959-1.5713l1.3281-8.374
		C13,4.7881,12.917,4.5195,12.7393,4.3174C12.5615,4.1162,12.3047,4,12.0361,4z M10.6475,13.2881
		C10.5967,13.6943,10.25,14,9.8418,14H5.1582c-0.4082,0-0.7549-0.3057-0.8057-0.7119c-0.001-0.0059-0.002-0.0117-0.0029-0.0176
		L3.0117,5h8.9502L10.6475,13.2881z"/>
	<path class="st0" d="M2.5,2h10C12.7764,2,13,1.7764,13,1.5S12.7764,1,12.5,1H10V0.5C10,0.2236,9.7764,0,9.5,0h-4
		C5.2236,0,5,0.2236,5,0.5V1H2.5C2.2236,1,2,1.2236,2,1.5S2.2236,2,2.5,2z"/>
</g>
</svg>
