<?xml version="1.0" encoding="utf-8"?>
<!-- Generator: Adobe Illustrator 21.1.0, SVG Export Plug-In . SVG Version: 6.00 Build 0)  -->
<svg version="1.1" id="Layer_1" xmlns="http://www.w3.org/2000/svg" xmlns:xlink="http://www.w3.org/1999/xlink" x="0px" y="0px"
	 viewBox="0 0 16 16" style="enable-background:new 0 0 16 16;" xml:space="preserve">
<style type="text/css">
	.st0{fill:#444444;}
</style>
<g>
	<g>
		<path class="st0" d="M7.5,12.0008c-0.2764,0-0.5-0.2236-0.5-0.5v-0.4463C7,10.0672,7.417,9.119,8.1436,8.451l0.6807-0.6279
			c0.1602-0.1465,0.332-0.291,0.5078-0.4375C10.1895,6.6678,11,5.9911,11,4.4276c0-1.8359-1.5361-3.373-3.4238-3.4268
			c-0.9668-0.0303-1.877,0.3174-2.5508,0.9717C4.3496,2.6297,3.9766,3.535,3.9766,4.5223c0,0.2764-0.2236,0.5-0.5,0.5
			s-0.5-0.2236-0.5-0.5c0-1.2598,0.4805-2.4199,1.3525-3.2676C5.1982,0.411,6.332-0.0314,7.6055,0.0008
			C10.0283,0.0702,12,2.0555,12,4.4276c0,2.0312-1.124,2.9707-2.0264,3.7246C9.8096,8.2889,9.6504,8.4227,9.502,8.5594
			L8.8203,9.1873C8.2988,9.6659,8,10.3465,8,11.0545v0.4463C8,11.7772,7.7764,12.0008,7.5,12.0008z"/>
	</g>
	<circle class="st0" cx="7.5" cy="14.5" r="0.5"/>
</g>
</svg>
