<?xml version="1.0" encoding="utf-8"?>
<!-- Generator: Adobe Illustrator 21.1.0, SVG Export Plug-In . SVG Version: 6.00 Build 0)  -->
<svg version="1.1" id="Layer_1" xmlns="http://www.w3.org/2000/svg" xmlns:xlink="http://www.w3.org/1999/xlink" x="0px" y="0px"
	 viewBox="0 0 16 16" style="enable-background:new 0 0 16 16;" xml:space="preserve">
<style type="text/css">
	.st0{fill:#444444;}
</style>
<g>
	<path class="st0" d="M14.5,7H9.707l2.1465-2.1465c0.1953-0.1953,0.1953-0.5117,0-0.707s-0.5117-0.1953-0.707,0L8.1471,7.1459
		C8.1007,7.1921,8.0639,7.2476,8.0385,7.3091c-0.0505,0.1222-0.0505,0.2596,0,0.3818c0.0255,0.0615,0.0623,0.1169,0.1086,0.1632
		l2.9994,2.9994C11.2441,10.9512,11.3721,11,11.5,11s0.2559-0.0488,0.3535-0.1465c0.1953-0.1953,0.1953-0.5117,0-0.707L9.707,8H14.5
		C14.7764,8,15,7.7764,15,7.5S14.7764,7,14.5,7z"/>
	<path class="st0" d="M6.9615,7.3091C6.9361,7.2476,6.8993,7.1921,6.8529,7.1459L3.8535,4.1465C3.7559,4.0488,3.6279,4,3.5,4
		S3.2441,4.0488,3.1465,4.1465c-0.1953,0.1953-0.1953,0.5117,0,0.707L5.293,7H0.5C0.2236,7,0,7.2236,0,7.5S0.2236,8,0.5,8h4.793
		l-2.1465,2.1465c-0.1953,0.1953-0.1953,0.5117,0,0.707s0.5117,0.1953,0.707,0l2.9994-2.9994
		c0.0464-0.0463,0.0832-0.1017,0.1086-0.1632C7.0121,7.5687,7.0121,7.4313,6.9615,7.3091z"/>
</g>
</svg>
