<?xml version="1.0" encoding="UTF-8"?>
<svg width="14px" height="11px" viewBox="0 0 14 11" version="1.1" xmlns="http://www.w3.org/2000/svg" xmlns:xlink="http://www.w3.org/1999/xlink">
    <!-- Generator: Sketch 42 (36781) - http://www.bohemiancoding.com/sketch -->
    <title>list_16</title>
    <desc>Created with Sketch.</desc>
    <defs></defs>
    <g id="Explorations" stroke="none" stroke-width="1" fill="none" fill-rule="evenodd">
        <g id="Right-panel" transform="translate(-3033.000000, -162.000000)">
            <g transform="translate(2756.000000, 140.000000)" id="Top">
                <g>
                    <g id="button-menu" transform="translate(264.000000, 8.000000)">
                        <g id="list_16" transform="translate(12.000000, 12.000000)">
                            <rect id="bounds" x="0" y="0" width="16" height="16"></rect>
                            <g id="icon" transform="translate(1.000000, 2.000000)" fill="#FFFFFF">
                                <path d="M13.497,1 L0.5,1 C0.224,1 0,0.776 0,0.5 C0,0.223 0.224,0 0.5,0 L13.497,0 C13.773,0 13.997,0.223 13.997,0.5 C13.997,0.776 13.773,1 13.497,1 Z M13.4971,5.0006 C13.7731,5.0006 13.9971,5.2246 13.9971,5.5006 C13.9971,5.7776 13.7731,6.0006 13.4971,6.0006 L0.5,6.0006 C0.224,6.0006 0,5.7776 0,5.5006 C0,5.2246 0.224,5.0006 0.5,5.0006 L13.4971,5.0006 Z M0.5,10.0014 L13.4971,10.0014 C13.7731,10.0014 13.9971,10.2254 13.9971,10.5014 C13.9971,10.7784 13.7731,11.0014 13.4971,11.0014 L0.5,11.0014 C0.224,11.0014 0,10.7784 0,10.5014 C0,10.2254 0.224,10.0014 0.5,10.0014 Z" id="fill"></path>
                            </g>
                        </g>
                    </g>
                </g>
            </g>
        </g>
    </g>
</svg>