<?xml version="1.0" encoding="utf-8"?>
<!-- Generator: Adobe Illustrator 21.0.2, SVG Export Plug-In . SVG Version: 6.00 Build 0)  -->
<svg version="1.1" id="Layer_1" xmlns="http://www.w3.org/2000/svg" xmlns:xlink="http://www.w3.org/1999/xlink" x="0px" y="0px"
	 viewBox="0 0 40 40" style="enable-background:new 0 0 40 40;" xml:space="preserve">
<style type="text/css">
	.st0{fill:#FFFFFF;}
	.st1{opacity:0.08;fill:#444444;}
	.st2{fill:#07C1E4;}
	.st3{opacity:0.16;fill:#444444;}
	.st4{fill:#05A1BF;}
	.st5{opacity:0.16;fill:none;stroke:#444444;stroke-width:0.5;stroke-miterlimit:10;}
	.st6{fill:#444444;}
	.st7{opacity:0.5;fill:#FF4444;}
	.st8{fill:#0000F9;}
	.st9{opacity:0.5;fill:#FFF800;}
	.st10{fill:#E3E3E3;}
	.st11{fill:#D4D4D4;}
	.st12{fill:#F0F0F0;}
	.st13{fill:#30D557;}
	.st14{fill:#FF513D;}
	.st15{fill:#FFB400;}
</style>
<path class="st6" d="M27,25V11c0-3.8594-3.1406-7-7-7s-7,3.1406-7,7v14c0,3.519,2.6138,6.4321,6,6.9201V34h-3
	c-0.5527,0-1,0.4473-1,1s0.4473,1,1,1h8c0.5527,0,1-0.4473,1-1s-0.4473-1-1-1h-3v-2.0799C24.3862,31.4321,27,28.519,27,25z M15,25
	V11c0-2.7568,2.2432-5,5-5s5,2.2432,5,5v14c0,2.7568-2.2432,5-5,5S15,27.7568,15,25z"/>
</svg>
