<?xml version="1.0" encoding="UTF-8"?>
<svg width="16px" height="16px" viewBox="0 0 16 16" version="1.1" xmlns="http://www.w3.org/2000/svg" xmlns:xlink="http://www.w3.org/1999/xlink">
    <!-- Generator: Sketch 49.3 (51167) - http://www.bohemiancoding.com/sketch -->
    <title>Mic</title>
    <desc>Created with Sketch.</desc>
    <defs></defs>
    <g id="Page-1" stroke="none" stroke-width="1" fill="none" fill-rule="evenodd">
        <g id="microphone_16" transform="translate(5.000000, 0.000000)" fill="#000000">
            <g id="icon">
                <path d="M4,13.9645556 L4,15 L5.5,15 C5.77614237,15 6,15.2238576 6,15.5 C6,15.7761424 5.77614237,16 5.5,16 L1.5,16 C1.22385763,16 1,15.7761424 1,15.5 C1,15.2238576 1.22385763,15 1.5,15 L3,15 L3,13.9645556 C1.30385293,13.7219407 1.78200225e-15,12.263236 0,10.5 L3.99680289e-15,3.5 C3.76007908e-15,1.56700338 1.56700338,3.55085719e-16 3.5,0 C5.43299662,-3.55085719e-16 7,1.56700338 7,3.5 L7,10.5 C7,12.263236 5.69614707,13.7219407 4,13.9645556 Z M1,3.5 L1,10.5 C1,11.8807119 2.11928813,13 3.5,13 C4.88071187,13 6,11.8807119 6,10.5 L6,3.5 C6,2.11928813 4.88071187,1 3.5,1 C2.11928813,1 1,2.11928813 1,3.5 Z" id="fill"></path>
            </g>
        </g>
        <g id="slices" transform="translate(-5.000000, -483.000000)"></g>
    </g>
</svg>