<?xml version="1.0" encoding="UTF-8"?>
<svg width="16px" height="16px" viewBox="0 0 16 16" version="1.1" xmlns="http://www.w3.org/2000/svg" xmlns:xlink="http://www.w3.org/1999/xlink">
    <!-- Generator: Sketch 49.3 (51167) - http://www.bohemiancoding.com/sketch -->
    <title>Mic_Muted</title>
    <desc>Created with Sketch.</desc>
    <defs></defs>
    <g id="Page-1" stroke="none" stroke-width="1" fill="none" fill-rule="evenodd">
        <g id="microphone-muted_16" transform="translate(3.000000, 0.000000)" fill="#000000">
            <g id="icon">
                <path d="M8,4.2929 L3,9.2929 L3,3.4969 C3,2.1199 4.122,0.9999 5.5,0.9999 C6.881,0.9999 8,2.1179 8,3.4969 L8,4.2929 Z M8,10.5029 C8,11.8809 6.879,12.9999 5.5,12.9999 C4.182,12.9999 3.115,11.9789 3.019,10.6889 L8,5.7069 L8,10.5029 Z M10.854,2.1469 C10.658,1.9509 10.342,1.9509 10.146,2.1469 L8.981,3.3119 C8.883,1.4679 7.37,-0.0001 5.5,-0.0001 C3.571,-0.0001 2,1.5659 2,3.4969 L2,10.2929 L0.146,12.1469 C-0.049,12.3419 -0.049,12.6579 0.146,12.8539 C0.342,13.0489 0.658,13.0489 0.854,12.8539 L2.173,11.5349 C2.567,12.8039 3.654,13.7559 5,13.9499 L5,14.9999 L3.498,14.9999 C3.215,14.9999 3,15.2239 3,15.4999 C3,15.7679 3.223,15.9999 3.498,15.9999 L7.502,15.9999 C7.785,15.9999 8,15.7759 8,15.4999 C8,15.2319 7.777,14.9999 7.502,14.9999 L6,14.9999 L6,13.9499 C7.691,13.7049 9,12.2629 9,10.5029 L9,4.7069 L10.854,2.8539 C11.049,2.6579 11.049,2.3419 10.854,2.1469 L10.854,2.1469 Z" id="fill"></path>
            </g>
        </g>
        <g id="slices" transform="translate(-5.000000, -517.000000)"></g>
    </g>
</svg>