<?xml version="1.0" encoding="utf-8"?>
<!-- Generator: Adobe Illustrator 21.0.2, SVG Export Plug-In . SVG Version: 6.00 Build 0)  -->
<svg version="1.1" id="Layer_1" xmlns="http://www.w3.org/2000/svg" xmlns:xlink="http://www.w3.org/1999/xlink" x="0px" y="0px"
	 viewBox="0 0 40 40" style="enable-background:new 0 0 40 40;" xml:space="preserve">
<style type="text/css">
	.st0{fill:#FFFFFF;}
	.st1{opacity:0.08;fill:#444444;}
	.st2{fill:#07C1E4;}
	.st3{opacity:0.16;fill:#444444;}
	.st4{fill:#05A1BF;}
	.st5{opacity:0.16;fill:none;stroke:#444444;stroke-width:0.5;stroke-miterlimit:10;}
	.st6{fill:#444444;}
	.st7{opacity:0.5;fill:#FF4444;}
	.st8{fill:#0000F9;}
	.st9{opacity:0.5;fill:#FFF800;}
	.st10{fill:#E3E3E3;}
	.st11{fill:#D4D4D4;}
	.st12{fill:#F0F0F0;}
	.st13{fill:#30D557;}
	.st14{fill:#FF513D;}
	.st15{fill:#FFB400;}
</style>
<path class="st0" d="M32.707,5.293c-0.3906-0.3906-1.0234-0.3906-1.4141,0l-4.4172,4.4172C26.2681,6.4654,23.4183,4,20,4
	c-3.8594,0-7,3.1406-7,7v12.5859l-5.707,5.707c-0.3906,0.3906-0.3906,1.0234,0,1.4141C7.4883,30.9023,7.7441,31,8,31
	s0.5117-0.0977,0.707-0.293l4.4172-4.4172c0.5472,2.9216,2.9139,5.2035,5.8757,5.6303V34h-3c-0.5527,0-1,0.4473-1,1s0.4473,1,1,1h8
	c0.5527,0,1-0.4473,1-1s-0.4473-1-1-1h-3v-2.0799c3.3862-0.488,6-3.4011,6-6.9201V12.4141l5.707-5.707
	C33.0977,6.3164,33.0977,5.6836,32.707,5.293z M15,11c0-2.7568,2.2432-5,5-5s5,2.2432,5,5v0.5859l-10,10V11z M25,25
	c0,2.7568-2.2432,5-5,5s-5-2.2432-5-5v-0.5859l10-10V25z"/>
</svg>
