<?xml version="1.0" encoding="utf-8"?>
<!-- Generator: Adobe Illustrator 21.0.2, SVG Export Plug-In . SVG Version: 6.00 Build 0)  -->
<svg version="1.1" xmlns="http://www.w3.org/2000/svg" xmlns:xlink="http://www.w3.org/1999/xlink" x="0px" y="0px"
	 viewBox="0 0 16 16" style="enable-background:new 0 0 16 16;" xml:space="preserve">
<style type="text/css">
	.st0{fill:#444444;}
	.st1{fill:#07C1E4;}
	.st2{fill:#FFFFFF;}
	.st3{opacity:0.48;}
	.st4{opacity:0.16;fill:#444444;}
	.st5{opacity:0.06;fill:#444444;}
	.st6{opacity:0.08;fill:#444444;}
	.st7{fill:#D6F7FD;}
</style>
<g id="Layer_1">
</g>
<g id="Layer_2">
	<path class="st1" d="M11,10.5v-7C11,1.5703,9.4297,0,7.5,0S4,1.5703,4,3.5v7c0,1.7585,1.3083,3.2042,3,3.4495V15H5.5
		C5.2236,15,5,15.2236,5,15.5S5.2236,16,5.5,16h4c0.2764,0,0.5-0.2236,0.5-0.5S9.7764,15,9.5,15H8v-1.0505
		C9.6917,13.7042,11,12.2585,11,10.5z M5,10.5v-7C5,2.1216,6.1211,1,7.5,1S10,2.1216,10,3.5v7c0,1.3784-1.1211,2.5-2.5,2.5
		S5,11.8784,5,10.5z"/>
</g>
</svg>
