<?xml version="1.0" encoding="utf-8"?>
<!-- Generator: Adobe Illustrator 21.0.2, SVG Export Plug-In . SVG Version: 6.00 Build 0)  -->
<svg version="1.1" id="Layer_1" xmlns="http://www.w3.org/2000/svg" xmlns:xlink="http://www.w3.org/1999/xlink" x="0px" y="0px"
	 viewBox="0 0 200 128" style="enable-background:new 0 0 200 128;" xml:space="preserve">
<style type="text/css">
	.st0{opacity:0.48;fill:#444444;enable-background:new    ;}
	.st1{fill:#444444;}
	.st2{fill:none;stroke:#444444;stroke-width:2;stroke-miterlimit:10;}
	.st3{fill-rule:evenodd;clip-rule:evenodd;fill:#444444;}
	.st4{opacity:0.48;}
	.st5{opacity:0.48;fill-rule:evenodd;clip-rule:evenodd;fill:#444444;}
	.st6{opacity:0.48;fill:none;stroke:#444444;stroke-width:2;stroke-miterlimit:10;}
	.st7{fill:none;stroke:#444444;stroke-width:2;stroke-linecap:round;stroke-miterlimit:10;}
	.st8{fill:#FFFFFF;stroke:#A6A6A6;stroke-width:2;stroke-miterlimit:10;}
	.st9{fill:#FFFFFF;}
	.st10{fill:#A6A6A6;}
	.st11{fill:none;stroke:#A6A6A6;stroke-width:2;stroke-linecap:round;stroke-miterlimit:10;}
	.st12{fill:#07C1E4;stroke:#07C1E4;stroke-width:2;stroke-linecap:round;stroke-miterlimit:10;}
	.st13{fill:#07C1E4;}
	.st14{fill:none;stroke:#A6A6A6;stroke-width:2;stroke-linecap:round;stroke-linejoin:round;stroke-miterlimit:10;}
</style>
<g>
	<circle class="st9" cx="113" cy="104" r="6"/>
	<path class="st9" d="M113,41c0-7.168-5.832-13-13-13s-13,5.832-13,13s5.832,13,13,13S113,48.168,113,41z"/>
	<path class="st9" d="M109.6719,56H90.3281c-4.6006,0-8.5908,3.0137-9.7031,7.3301l-1.6143,6.2637
		c-0.0303,0.1162,0.0137,0.2061,0.0566,0.2607C79.1006,69.8984,79.1982,70,79.376,70h41.248c0.1777,0,0.2754-0.1016,0.3086-0.1455
		c0.043-0.0547,0.0869-0.1445,0.0566-0.2607l-1.6143-6.2637C118.2627,59.0137,114.2725,56,109.6719,56z"/>
	<circle class="st9" cx="61" cy="104" r="6"/>
	<circle class="st9" cx="87" cy="104" r="6"/>
	<path class="st9" d="M194.5361,2H5.4639C3.5537,2,2,3.7939,2,6v116c0,2.2061,1.5537,4,3.4639,4h189.0723
		c1.9102,0,3.4639-1.7939,3.4639-4V6C198,3.7939,196.4463,2,194.5361,2z M61,112c-4.4111,0-8-3.5889-8-8s3.5889-8,8-8s8,3.5889,8,8
		S65.4111,112,61,112z M87,112c-4.4111,0-8-3.5889-8-8s3.5889-8,8-8s8,3.5889,8,8S91.4111,112,87,112z M113,112
		c-4.4111,0-8-3.5889-8-8s3.5889-8,8-8s8,3.5889,8,8S117.4111,112,113,112z M122.5137,71.0801
		C122.0605,71.665,121.3721,72,120.624,72H79.376c-0.748,0-1.4365-0.335-1.8896-0.9199c-0.4414-0.5693-0.5918-1.293-0.4131-1.9863
		l1.6143-6.2637C80.0283,57.6309,84.8154,54,90.3281,54h2.2202C88.0454,51.4086,85,46.5581,85,41c0-8.2715,6.7285-15,15-15
		s15,6.7285,15,15c0,5.5581-3.0454,10.4086-7.5483,13h2.2202c5.5127,0,10.2998,3.6309,11.6406,8.8301l1.6143,6.2637
		C123.1055,69.7871,122.9551,70.5107,122.5137,71.0801z M139,112c-4.4111,0-8-3.5889-8-8s3.5889-8,8-8s8,3.5889,8,8
		S143.4111,112,139,112z M191.6069,14.9462c-0.5059,1.1964-1.4644,2.1548-2.6606,2.6608C188.3481,17.8601,187.6904,18,187,18
		s-1.3481-0.1399-1.9463-0.3929c-1.1963-0.506-2.1548-1.4645-2.6606-2.6608C182.1399,14.348,182,13.6904,182,13
		s0.1399-1.348,0.3931-1.9462c0.5059-1.1964,1.4644-2.1548,2.6606-2.6608C185.6519,8.14,186.3096,8,187,8s1.3481,0.14,1.9463,0.3929
		c1.1963,0.506,2.1548,1.4645,2.6606,2.6608C191.8601,11.652,192,12.3096,192,13S191.8601,14.348,191.6069,14.9462z"/>
	<path class="st10" d="M194.5361,0H5.4639C2.4512,0,0,2.6914,0,6v116c0,3.3086,2.4512,6,5.4639,6h189.0723
		c3.0127,0,5.4639-2.6914,5.4639-6V6C200,2.6914,197.5488,0,194.5361,0z M198,122c0,2.2061-1.5537,4-3.4639,4H5.4639
		C3.5537,126,2,124.2061,2,122V6c0-2.2061,1.5537-4,3.4639-4h189.0723C196.4463,2,198,3.7939,198,6V122z"/>
	<path class="st10" d="M61,96c-4.4111,0-8,3.5889-8,8s3.5889,8,8,8s8-3.5889,8-8S65.4111,96,61,96z M61,110c-3.3086,0-6-2.6914-6-6
		s2.6914-6,6-6s6,2.6914,6,6S64.3086,110,61,110z"/>
	<path class="st10" d="M87,96c-4.4111,0-8,3.5889-8,8s3.5889,8,8,8s8-3.5889,8-8S91.4111,96,87,96z M87,110c-3.3086,0-6-2.6914-6-6
		s2.6914-6,6-6s6,2.6914,6,6S90.3086,110,87,110z"/>
	<path class="st10" d="M113,96c-4.4111,0-8,3.5889-8,8s3.5889,8,8,8s8-3.5889,8-8S117.4111,96,113,96z M113,110
		c-3.3086,0-6-2.6914-6-6s2.6914-6,6-6s6,2.6914,6,6S116.3086,110,113,110z"/>
	<circle class="st13" cx="139" cy="104" r="8"/>
	<path class="st10" d="M121.3125,62.8301C119.9717,57.6309,115.1846,54,109.6719,54h-2.2202C111.9546,51.4086,115,46.5581,115,41
		c0-8.2715-6.7285-15-15-15s-15,6.7285-15,15c0,5.5581,3.0454,10.4086,7.5483,13h-2.2202c-5.5127,0-10.2998,3.6309-11.6406,8.8301
		l-1.6143,6.2637c-0.1787,0.6934-0.0283,1.417,0.4131,1.9863C77.9395,71.665,78.6279,72,79.376,72h41.248
		c0.748,0,1.4365-0.335,1.8896-0.9199c0.4414-0.5693,0.5918-1.293,0.4131-1.9863L121.3125,62.8301z M87,41c0-7.168,5.832-13,13-13
		s13,5.832,13,13s-5.832,13-13,13S87,48.168,87,41z M120.9326,69.8545C120.8994,69.8984,120.8018,70,120.624,70H79.376
		c-0.1777,0-0.2754-0.1016-0.3086-0.1455c-0.043-0.0547-0.0869-0.1445-0.0566-0.2607l1.6143-6.2637
		C81.7373,59.0137,85.7275,56,90.3281,56h19.3438c4.6006,0,8.5908,3.0137,9.7031,7.3301l1.6143,6.2637
		C121.0195,69.71,120.9756,69.7998,120.9326,69.8545z"/>
	<circle class="st9" cx="187" cy="13" r="3"/>
	<path class="st10" d="M188.9463,8.3929C188.3481,8.14,187.6904,8,187,8s-1.3481,0.14-1.9463,0.3929
		c-1.1963,0.506-2.1548,1.4645-2.6606,2.6608C182.1399,11.652,182,12.3096,182,13s0.1399,1.348,0.3931,1.9462
		c0.5059,1.1964,1.4644,2.1548,2.6606,2.6608C185.6519,17.8601,186.3096,18,187,18s1.3481-0.1399,1.9463-0.3929
		c1.1963-0.506,2.1548-1.4645,2.6606-2.6608C191.8601,14.348,192,13.6904,192,13s-0.1399-1.348-0.3931-1.9462
		C191.1011,9.8574,190.1426,8.899,188.9463,8.3929z M187,16c-1.6543,0-3-1.3458-3-3c0-1.6542,1.3457-3,3-3s3,1.3458,3,3
		C190,14.6542,188.6543,16,187,16z"/>
</g>
</svg>
