<?xml version="1.0" encoding="utf-8"?>
<!-- Generator: Adobe Illustrator 21.0.2, SVG Export Plug-In . SVG Version: 6.00 Build 0)  -->
<svg version="1.1" id="Layer_1" xmlns="http://www.w3.org/2000/svg" xmlns:xlink="http://www.w3.org/1999/xlink" x="0px" y="0px"
	 viewBox="0 0 200 128" style="enable-background:new 0 0 200 128;" xml:space="preserve">
<style type="text/css">
	.st0{opacity:0.48;fill:#444444;enable-background:new    ;}
	.st1{fill:#444444;}
	.st2{fill:none;stroke:#444444;stroke-width:2;stroke-miterlimit:10;}
	.st3{fill-rule:evenodd;clip-rule:evenodd;fill:#444444;}
	.st4{opacity:0.48;}
	.st5{opacity:0.48;fill-rule:evenodd;clip-rule:evenodd;fill:#444444;}
	.st6{opacity:0.48;fill:none;stroke:#444444;stroke-width:2;stroke-miterlimit:10;}
	.st7{fill:none;stroke:#444444;stroke-width:2;stroke-linecap:round;stroke-miterlimit:10;}
	.st8{fill:#FFFFFF;stroke:#A6A6A6;stroke-width:2;stroke-miterlimit:10;}
	.st9{fill:#FFFFFF;}
	.st10{fill:#A6A6A6;}
	.st11{fill:none;stroke:#A6A6A6;stroke-width:2;stroke-linecap:round;stroke-miterlimit:10;}
	.st12{fill:#07C1E4;stroke:#07C1E4;stroke-width:2;stroke-linecap:round;stroke-miterlimit:10;}
	.st13{fill:#07C1E4;}
	.st14{fill:none;stroke:#A6A6A6;stroke-width:2;stroke-linecap:round;stroke-linejoin:round;stroke-miterlimit:10;}
</style>
<g>
	<circle class="st9" cx="60" cy="44" r="8"/>
	<circle class="st9" cx="140" cy="84" r="8"/>
	<circle class="st9" cx="100" cy="84" r="8"/>
	<circle class="st9" cx="60" cy="84" r="8"/>
	<circle class="st9" cx="100" cy="44" r="8"/>
	<path class="st9" d="M194.5361,2H5.4639C3.5537,2,2,3.7939,2,6v116c0,2.2061,1.5537,4,3.4639,4h189.0723
		c1.9102,0,3.4639-1.7939,3.4639-4V6C198,3.7939,196.4463,2,194.5361,2z M60,94c-5.5137,0-10-4.4863-10-10s4.4863-10,10-10
		s10,4.4863,10,10S65.5137,94,60,94z M60,54c-5.5137,0-10-4.4863-10-10s4.4863-10,10-10s10,4.4863,10,10S65.5137,54,60,54z M100,94
		c-5.5137,0-10-4.4863-10-10s4.4863-10,10-10s10,4.4863,10,10S105.5137,94,100,94z M100,54c-5.5137,0-10-4.4863-10-10
		s4.4863-10,10-10s10,4.4863,10,10S105.5137,54,100,54z M140,94c-5.5137,0-10-4.4863-10-10s4.4863-10,10-10s10,4.4863,10,10
		S145.5137,94,140,94z M140,54c-5.5137,0-10-4.4863-10-10s4.4863-10,10-10s10,4.4863,10,10S145.5137,54,140,54z M191.6071,14.9462
		c-0.506,1.1964-1.4645,2.1548-2.6608,2.6608C188.348,17.8601,187.6904,18,187,18s-1.348-0.1399-1.9463-0.3929
		c-1.1963-0.506-2.1548-1.4645-2.6608-2.6608C182.1399,14.348,182,13.6904,182,13s0.1399-1.348,0.3929-1.9462
		c0.506-1.1964,1.4645-2.1548,2.6608-2.6608C185.652,8.14,186.3096,8,187,8s1.348,0.14,1.9463,0.3929
		c1.1963,0.506,2.1548,1.4645,2.6608,2.6608C191.8601,11.652,192,12.3096,192,13S191.8601,14.348,191.6071,14.9462z"/>
	<circle class="st9" cx="140" cy="44" r="8"/>
	<path class="st10" d="M194.5361,0H5.4639C2.4512,0,0,2.6914,0,6v116c0,3.3086,2.4512,6,5.4639,6h189.0723
		c3.0127,0,5.4639-2.6914,5.4639-6V6C200,2.6914,197.5488,0,194.5361,0z M198,122c0,2.2061-1.5537,4-3.4639,4H5.4639
		C3.5537,126,2,124.2061,2,122V6c0-2.2061,1.5537-4,3.4639-4h189.0723C196.4463,2,198,3.7939,198,6V122z"/>
	<path class="st10" d="M60,34c-5.5137,0-10,4.4863-10,10s4.4863,10,10,10s10-4.4863,10-10S65.5137,34,60,34z M60,52
		c-4.4111,0-8-3.5889-8-8s3.5889-8,8-8s8,3.5889,8,8S64.4111,52,60,52z"/>
	<path class="st10" d="M100,34c-5.5137,0-10,4.4863-10,10s4.4863,10,10,10s10-4.4863,10-10S105.5137,34,100,34z M100,52
		c-4.4111,0-8-3.5889-8-8s3.5889-8,8-8s8,3.5889,8,8S104.4111,52,100,52z"/>
	<path class="st10" d="M140,34c-5.5137,0-10,4.4863-10,10s4.4863,10,10,10s10-4.4863,10-10S145.5137,34,140,34z M140,52
		c-4.4111,0-8-3.5889-8-8s3.5889-8,8-8s8,3.5889,8,8S144.4111,52,140,52z"/>
	<path class="st10" d="M60,74c-5.5137,0-10,4.4863-10,10s4.4863,10,10,10s10-4.4863,10-10S65.5137,74,60,74z M60,92
		c-4.4111,0-8-3.5889-8-8s3.5889-8,8-8s8,3.5889,8,8S64.4111,92,60,92z"/>
	<path class="st10" d="M100,74c-5.5137,0-10,4.4863-10,10s4.4863,10,10,10s10-4.4863,10-10S105.5137,74,100,74z M100,92
		c-4.4111,0-8-3.5889-8-8s3.5889-8,8-8s8,3.5889,8,8S104.4111,92,100,92z"/>
	<path class="st10" d="M140,74c-5.5137,0-10,4.4863-10,10s4.4863,10,10,10s10-4.4863,10-10S145.5137,74,140,74z M140,92
		c-4.4111,0-8-3.5889-8-8s3.5889-8,8-8s8,3.5889,8,8S144.4111,92,140,92z"/>
	<path class="st13" d="M188.9463,8.3929C188.348,8.14,187.6904,8,187,8s-1.348,0.14-1.9463,0.3929
		c-1.1963,0.506-2.1548,1.4645-2.6608,2.6608C182.1399,11.652,182,12.3096,182,13s0.1399,1.348,0.3929,1.9462
		c0.506,1.1964,1.4645,2.1548,2.6608,2.6608C185.652,17.8601,186.3096,18,187,18s1.348-0.1399,1.9463-0.3929
		c1.1963-0.506,2.1548-1.4645,2.6608-2.6608C191.8601,14.348,192,13.6904,192,13s-0.1399-1.348-0.3929-1.9462
		C191.1011,9.8574,190.1426,8.899,188.9463,8.3929z"/>
</g>
</svg>
