<?xml version="1.0" encoding="UTF-8"?>
<svg width="16px" height="16px" viewBox="0 0 16 16" version="1.1" xmlns="http://www.w3.org/2000/svg" xmlns:xlink="http://www.w3.org/1999/xlink">
    <!-- Generator: Sketch 49.3 (51167) - http://www.bohemiancoding.com/sketch -->
    <title>Pause</title>
    <desc>Created with Sketch.</desc>
    <defs></defs>
    <g id="Page-1" stroke="none" stroke-width="1" fill="none" fill-rule="evenodd">
        <g id="pause_16" transform="translate(3.000000, 1.000000)" fill="#000000">
            <g id="icon">
                <path d="M3,12 C3,12.551 2.551,13 2,13 C1.448,13 1,12.551 1,12 L1,2 C1,1.449 1.448,1 2,1 C2.551,1 3,1.449 3,2 L3,12 Z M2,0 C3.1,0 4,0.9 4,2 L4,12 C4,13.1 3.1,14 2,14 C0.9,14 0,13.1 0,12 L0,2 C0,0.9 0.9,0 2,0 Z M8,0 C9.1,0 10,0.9 10,2 L10,12 C10,13.1 9.1,14 8,14 C6.9,14 6,13.1 6,12 L6,2 C6,0.9 6.9,0 8,0 Z M9,12 L9,2 C9,1.449 8.551,1 8,1 C7.448,1 7,1.449 7,2 L7,12 C7,12.551 7.448,13 8,13 C8.551,13 9,12.551 9,12 Z" id="fill"></path>
            </g>
        </g>
        <g id="slices" transform="translate(-7.000000, -578.000000)"></g>
    </g>
</svg>