<?xml version="1.0" encoding="utf-8"?>
<!-- Generator: Adobe Illustrator 21.0.2, SVG Export Plug-In . SVG Version: 6.00 Build 0)  -->
<svg version="1.1" id="Layer_1" xmlns="http://www.w3.org/2000/svg" xmlns:xlink="http://www.w3.org/1999/xlink" x="0px" y="0px"
	 viewBox="0 0 40 40" style="enable-background:new 0 0 40 40;" xml:space="preserve">
<style type="text/css">
	.st0{fill:#FFFFFF;}
	.st1{opacity:0.08;fill:#444444;}
	.st2{fill:#07C1E4;}
	.st3{opacity:0.16;fill:#444444;}
	.st4{fill:#05A1BF;}
	.st5{opacity:0.16;fill:none;stroke:#444444;stroke-width:0.5;stroke-miterlimit:10;}
	.st6{fill:#444444;}
	.st7{opacity:0.5;fill:#FF4444;}
	.st8{fill:#0000F9;}
	.st9{opacity:0.5;fill:#FFF800;}
	.st10{fill:#E3E3E3;}
	.st11{fill:#D4D4D4;}
	.st12{fill:#F0F0F0;}
	.st13{fill:#30D557;}
	.st14{fill:#FF513D;}
	.st15{fill:#FFB400;}
</style>
<g>
	<path class="st6" d="M14.5,33c-1.9297,0-3.5-1.5703-3.5-3.5v-19C11,8.5703,12.5703,7,14.5,7S18,8.5703,18,10.5v19
		C18,31.4297,16.4297,33,14.5,33z M14.5,9C13.6729,9,13,9.6729,13,10.5v19c0,0.8271,0.6729,1.5,1.5,1.5s1.5-0.6729,1.5-1.5v-19
		C16,9.6729,15.3271,9,14.5,9z"/>
	<path class="st6" d="M25.5,33c-1.9297,0-3.5-1.5703-3.5-3.5v-19C22,8.5703,23.5703,7,25.5,7S29,8.5703,29,10.5v19
		C29,31.4297,27.4297,33,25.5,33z M25.5,9C24.6729,9,24,9.6729,24,10.5v19c0,0.8271,0.6729,1.5,1.5,1.5s1.5-0.6729,1.5-1.5v-19
		C27,9.6729,26.3271,9,25.5,9z"/>
</g>
</svg>
