<?xml version="1.0" encoding="UTF-8"?>
<svg width="16px" height="16px" viewBox="0 0 16 16" version="1.1" xmlns="http://www.w3.org/2000/svg" xmlns:xlink="http://www.w3.org/1999/xlink">
    <!-- Generator: Sketch 49.3 (51167) - http://www.bohemiancoding.com/sketch -->
    <title>Phone</title>
    <desc>Created with Sketch.</desc>
    <defs></defs>
    <g id="Page-1" stroke="none" stroke-width="1" fill="none" fill-rule="evenodd">
        <g id="handset_16" transform="translate(1.000000, 1.000000)" fill="#000000">
            <g id="icon">
                <path d="M1.65186929,1 C1.44886929,1 1.25986929,1.092 1.13486929,1.252 C1.01386929,1.409 0.971869286,1.608 1.01986929,1.798 C1.57186929,3.971 3.14486929,6.474 5.33686929,8.665 C7.52686929,10.855 10.0288693,12.428 12.2018693,12.98 C12.3928693,13.027 12.5918693,12.986 12.7488693,12.864 C12.9088693,12.74 13.0008693,12.552 13.0008693,12.349 L13.0008693,10.849 C13.0008693,10.437 12.7558693,10.066 12.3788693,9.904 L11.0608693,9.337 C10.6788693,9.173 10.2438693,9.185 9.87186929,9.372 L9.12186929,9.747 C8.67986929,9.966 8.14386929,9.909 7.75886929,9.598 C6.46386929,8.559 5.23386929,7.336 4.38386929,6.244 C4.08486929,5.859 4.02986929,5.329 4.24686929,4.894 L4.62986929,4.128 C4.81586929,3.756 4.82886929,3.323 4.66386929,2.94 L4.09686929,1.622 C3.93386929,1.244 3.56286929,1 3.15186929,1 L1.65186929,1 Z M12.3598693,14 C12.2248693,14 12.0898693,13.983 11.9558693,13.95 C9.61286929,13.354 6.94286929,11.686 4.62986929,9.372 C2.31386929,7.057 0.645869286,4.387 0.0508692858,2.044 C-0.0741307142,1.553 0.0338692858,1.041 0.345869286,0.639 C0.661869286,0.233 1.13786929,0 1.65186929,0 L3.15186929,0 C3.96386929,0 4.69486929,0.482 5.01486929,1.228 L5.58186929,2.545 C5.86386929,3.199 5.84186929,3.939 5.52386929,4.576 L5.14086929,5.341 C5.09486929,5.434 5.10686929,5.544 5.17286929,5.629 C5.96486929,6.648 7.16686929,7.84 8.38486929,8.818 C8.46986929,8.887 8.58186929,8.899 8.67386929,8.852 L9.42386929,8.477 C10.0608693,8.16 10.7998693,8.138 11.4558693,8.418 L12.7728693,8.985 C13.5188693,9.305 14.0008693,10.037 14.0008693,10.849 L14.0008693,12.349 C14.0008693,12.863 13.7678693,13.338 13.3628693,13.654 C13.0698693,13.881 12.7188693,14 12.3598693,14 L12.3598693,14 Z" id="fill"></path>
            </g>
        </g>
        <g id="slices" transform="translate(-10.000000, -612.000000)"></g>
    </g>
</svg>