<?xml version="1.0" encoding="utf-8"?>
<!-- Generator: Adobe Illustrator 21.0.2, SVG Export Plug-In . SVG Version: 6.00 Build 0)  -->
<svg version="1.1" id="Layer_1" xmlns="http://www.w3.org/2000/svg" xmlns:xlink="http://www.w3.org/1999/xlink" x="0px" y="0px"
	 viewBox="0 0 40 40" style="enable-background:new 0 0 40 40;" xml:space="preserve">
<style type="text/css">
	.st0{fill:#FFFFFF;}
	.st1{opacity:0.08;fill:#444444;}
	.st2{fill:#07C1E4;}
	.st3{opacity:0.16;fill:#444444;}
	.st4{fill:#05A1BF;}
	.st5{opacity:0.16;fill:none;stroke:#444444;stroke-width:0.5;stroke-miterlimit:10;}
	.st6{fill:#444444;}
	.st7{opacity:0.5;fill:#FF4444;}
	.st8{fill:#0000F9;}
	.st9{opacity:0.5;fill:#FFF800;}
	.st10{fill:#E3E3E3;}
	.st11{fill:#D4D4D4;}
	.st12{fill:#F0F0F0;}
	.st13{fill:#30D557;}
	.st14{fill:#FF513D;}
	.st15{fill:#FFB400;}
</style>
<g>
	<path class="st0" d="M31.5451,35c-0.2842,0-0.5703-0.0352-0.8525-0.1074c-5.0303-1.2773-10.7695-4.8633-15.7451-9.8389
		C9.9709,20.0771,6.3849,14.3379,5.1066,9.3076c-0.2627-1.0371-0.0352-2.1162,0.623-2.9629C6.3947,5.4902,7.3966,5,8.4787,5h3.2314
		c1.7168,0,3.2646,1.0195,3.9443,2.5967l1.2207,2.8379c0.5967,1.3896,0.5508,2.96-0.125,4.3105l-0.8232,1.6455
		c-0.1133,0.2275-0.084,0.499,0.0781,0.707c1.708,2.1953,4.2998,4.7676,6.9307,6.8789c0.2051,0.166,0.4746,0.1973,0.7041,0.082
		L25.256,23.25c1.3535-0.6758,2.9248-0.7188,4.3096-0.124l2.8369,1.2197c1.5781,0.6797,2.5977,2.2275,2.5977,3.9443v3.2314
		c0,1.083-0.4902,2.085-1.3457,2.75C33.0392,34.75,32.3,35,31.5451,35z M8.4787,7C8.0177,7,7.5919,7.209,7.3087,7.5723
		c-0.2773,0.3564-0.373,0.8096-0.2627,1.2432c1.1904,4.6914,4.5859,10.0947,9.3154,14.8242
		c4.7285,4.7285,10.1318,8.124,14.8232,9.3145c0.4355,0.1104,0.8857,0.0137,1.2422-0.2617c0.3643-0.2832,0.5732-0.71,0.5732-1.1709
		V28.29c0-0.917-0.5449-1.7441-1.3877-2.1064l-2.8369-1.2197h-0.001c-0.8467-0.3643-1.8027-0.3359-2.624,0.0752l-1.6162,0.8086
		c-0.9248,0.46-2.042,0.3389-2.8506-0.3115c-2.7861-2.2354-5.4316-4.8643-7.2578-7.2109c-0.6289-0.8096-0.7422-1.9199-0.2881-2.8281
		l0.8232-1.6465c0.4121-0.8232,0.4395-1.7803,0.0762-2.626l-1.2207-2.8369C13.4543,7.5449,12.6271,7,11.7101,7H8.4787z"/>
</g>
</svg>
