<?xml version="1.0" encoding="UTF-8"?>
<svg width="16px" height="16px" viewBox="0 0 16 16" version="1.1" xmlns="http://www.w3.org/2000/svg" xmlns:xlink="http://www.w3.org/1999/xlink">
    <!-- Generator: Sketch 49.3 (51167) - http://www.bohemiancoding.com/sketch -->
    <title>Play</title>
    <desc>Created with Sketch.</desc>
    <defs></defs>
    <g id="Page-1" stroke="none" stroke-width="1" fill="none" fill-rule="evenodd">
        <g id="play_16" transform="translate(1.000000, 1.000000)" fill="#000000">
            <g id="icon">
                <path d="M2.0591,1.002 C1.8691,1.002 1.6791,1.054 1.5091,1.157 C1.1901,1.351 1.0001,1.69 1.0001,2.063 L1.0001,11.939 C1.0001,12.312 1.1901,12.65 1.5091,12.844 C1.8261,13.037 2.2141,13.051 2.5461,12.881 L12.5761,7.702 C12.8421,7.564 13.0011,7.304 13.0011,7.004 C13.0011,6.705 12.8431,6.444 12.5771,6.307 L2.5471,1.122 C2.3921,1.042 2.2261,1.002 2.0591,1.002 M2.0591,14.001 C1.6881,14.001 1.3191,13.9 0.9881,13.698 C0.3701,13.321 0.0001,12.664 0.0001,11.939 L0.0001,2.063 C0.0001,1.338 0.3701,0.68 0.9891,0.303 C1.6091,-0.074 2.3621,-0.099 3.0061,0.233 L13.0361,5.419 C13.6321,5.727 14.0011,6.334 14.0011,7.004 C14.0011,7.675 13.6311,8.283 13.0351,8.59 L3.0051,13.77 C2.7051,13.924 2.3821,14.001 2.0591,14.001" id="fill"></path>
            </g>
        </g>
        <g id="slices" transform="translate(-9.000000, -646.000000)"></g>
    </g>
</svg>