<?xml version="1.0" encoding="utf-8"?>
<!-- Generator: Adobe Illustrator 21.0.2, SVG Export Plug-In . SVG Version: 6.00 Build 0)  -->
<svg version="1.1" id="Layer_1" xmlns="http://www.w3.org/2000/svg" xmlns:xlink="http://www.w3.org/1999/xlink" x="0px" y="0px"
	 viewBox="0 0 40 40" style="enable-background:new 0 0 40 40;" xml:space="preserve">
<style type="text/css">
	.st0{fill:#FFFFFF;}
	.st1{opacity:0.08;fill:#444444;}
	.st2{fill:#07C1E4;}
	.st3{opacity:0.16;fill:#444444;}
	.st4{fill:#05A1BF;}
	.st5{opacity:0.16;fill:none;stroke:#444444;stroke-width:0.5;stroke-miterlimit:10;}
	.st6{fill:#444444;}
	.st7{opacity:0.5;fill:#FF4444;}
	.st8{fill:#0000F9;}
	.st9{opacity:0.5;fill:#FFF800;}
	.st10{fill:#E3E3E3;}
	.st11{fill:#D4D4D4;}
	.st12{fill:#F0F0F0;}
	.st13{fill:#30D557;}
	.st14{fill:#FF513D;}
	.st15{fill:#FFB400;}
	.st16{fill:#FF0000;}
</style>
<g>
	<path class="st6" d="M12.7627,34c-0.6689,0-1.335-0.1816-1.9346-0.544C9.6826,32.7648,9,31.5502,9,30.207V9.7928
		c0-1.3432,0.6836-2.5578,1.8291-3.249c1.1475-0.6903,2.5361-0.7256,3.7129-0.0933L33.0146,16.663
		C34.2354,17.3169,35,18.5983,35,20.0014c-0.001,1.4021-0.7656,2.6825-1.9961,3.3423L14.5527,33.5444
		C13.9854,33.8488,13.373,34,12.7627,34z M12.7705,8.0117c-0.3145,0-0.6289,0.0854-0.9131,0.2563
		c-0.5371,0.324-0.8584,0.8945-0.8584,1.5249V30.207c0,0.6304,0.3213,1.2008,0.8584,1.5249
		c0.5371,0.325,1.1895,0.3417,1.7432,0.0442l18.4512-10.2007c0.5977-0.3211,0.9473-0.9073,0.9482-1.5749
		c0-0.6677-0.3506-1.2548-0.9375-1.57L13.5898,8.2179C13.333,8.0804,13.0518,8.0117,12.7705,8.0117z"/>
</g>
</svg>
