<?xml version="1.0" encoding="utf-8"?>
<!-- Generator: Adobe Illustrator 22.0.1, SVG Export Plug-In . SVG Version: 6.00 Build 0)  -->
<svg version="1.1" id="Layer_1" xmlns="http://www.w3.org/2000/svg" xmlns:xlink="http://www.w3.org/1999/xlink" x="0px" y="0px"
	 viewBox="0 0 16 16" style="enable-background:new 0 0 16 16;" xml:space="preserve">
<style type="text/css">
	.st0{fill:#444444;}
</style>
<g>
	<path class="st0" d="M1.1947,12.0009c-0.2114,0-0.4242-0.0571-0.6156-0.1723C0.2163,11.6113,0,11.229,0,10.8062V5.1936
		c0-0.4228,0.2163-0.8051,0.579-1.0223c0.3628-0.2177,0.8022-0.228,1.1742-0.0293L7.357,6.9429C7.7579,7.1567,8,7.5595,8,8.0008
		C8,8.4422,7.7578,8.845,7.3687,9.0525l-5.6273,2.8117C1.5711,11.955,1.3836,12.0009,1.1947,12.0009z M1.1893,5.0017
		c-0.0429,0-0.0757,0.0146-0.0962,0.0268c-0.0346,0.021-0.0932,0.0703-0.0932,0.165v5.6126c0,0.0947,0.0586,0.144,0.0932,0.165
		c0.0351,0.021,0.1054,0.0488,0.1894,0.0049l5.6273-2.8117c0.0771-0.041,0.0903-0.1206,0.0903-0.1635
		c0-0.0429-0.0132-0.1225-0.102-0.1699L1.2943,5.0301C1.2547,5.009,1.2196,5.0017,1.1893,5.0017z"/>
</g>
<path class="st0" d="M14.5,12c-0.8272,0-1.5-0.6728-1.5-1.5v-5C13,4.6729,13.6728,4,14.5,4S16,4.6729,16,5.5v5
	C16,11.3272,15.3272,12,14.5,12z M14.5,5C14.2241,5,14,5.2241,14,5.5v5c0,0.2759,0.2241,0.5,0.5,0.5s0.5-0.2241,0.5-0.5v-5
	C15,5.2241,14.7759,5,14.5,5z"/>
<path class="st0" d="M10.5,12C9.6728,12,9,11.3272,9,10.5v-5C9,4.6729,9.6728,4,10.5,4S12,4.6729,12,5.5v5
	C12,11.3272,11.3272,12,10.5,12z M10.5,5C10.2241,5,10,5.2241,10,5.5v5c0,0.2759,0.2241,0.5,0.5,0.5s0.5-0.2241,0.5-0.5v-5
	C11,5.2241,10.7759,5,10.5,5z"/>
</svg>
