<?xml version="1.0" encoding="utf-8"?>
<!-- Generator: Adobe Illustrator 21.0.2, SVG Export Plug-In . SVG Version: 6.00 Build 0)  -->
<svg version="1.1" id="Layer_1" xmlns="http://www.w3.org/2000/svg" xmlns:xlink="http://www.w3.org/1999/xlink" x="0px" y="0px"
	 viewBox="0 0 40 40" style="enable-background:new 0 0 40 40;" xml:space="preserve">
<style type="text/css">
	.st0{fill:#FFFFFF;}
	.st1{opacity:0.08;fill:#444444;}
	.st2{opacity:0.16;fill:#444444;}
	.st3{fill:#07C1E4;}
	.st4{fill:#05A1BF;}
	.st5{opacity:0.5;fill:#FF4444;}
	.st6{fill:#444444;}
	.st7{fill:#0000F9;}
	.st8{opacity:0.5;fill:#FFF800;}
	.st9{fill:#E3E3E3;}
	.st10{fill:#D4D4D4;}
	.st11{fill:#F0F0F0;}
	.st12{fill:#30D557;}
	.st13{fill:#FF513D;}
	.st14{fill:#FFB400;}
	.st15{fill:#FF0000;}
</style>
<g>
	<path class="st0" d="M4.3887,28.0029c-0.4229,0-0.8486-0.1143-1.2314-0.3447C2.4316,27.2236,1.999,26.459,1.999,25.6133V14.3867
		c0-0.8457,0.4326-1.6104,1.1582-2.0449c0.7256-0.4355,1.6045-0.4561,2.3486-0.0586l11.209,5.6025
		c0.8018,0.4277,1.2861,1.2334,1.2861,2.1162s-0.4844,1.6885-1.2627,2.1035l-11.2559,5.624
		C5.1416,27.9111,4.7666,28.0029,4.3887,28.0029z M4.3779,14.0029c-0.0859,0-0.1514,0.0293-0.1924,0.0537
		c-0.0693,0.042-0.1865,0.1406-0.1865,0.3301v11.2266c0,0.1895,0.1172,0.2881,0.1865,0.3301
		c0.0703,0.042,0.2109,0.0977,0.3789,0.0098l11.2559-5.624c0.1543-0.082,0.1807-0.2412,0.1807-0.3271s-0.0264-0.2451-0.2041-0.3398
		l-11.209-5.6025C4.5088,14.0176,4.4385,14.0029,4.3779,14.0029z"/>
</g>
<path class="st0" d="M35,28c-1.6543,0-3-1.3457-3-3V15c0-1.6543,1.3457-3,3-3s3,1.3457,3,3v10C38,26.6543,36.6543,28,35,28z M35,14
	c-0.5518,0-1,0.4482-1,1v10c0,0.5518,0.4482,1,1,1s1-0.4482,1-1V15C36,14.4482,35.5518,14,35,14z"/>
<path class="st0" d="M27,28c-1.6543,0-3-1.3457-3-3V15c0-1.6543,1.3457-3,3-3s3,1.3457,3,3v10C30,26.6543,28.6543,28,27,28z M27,14
	c-0.5518,0-1,0.4482-1,1v10c0,0.5518,0.4482,1,1,1s1-0.4482,1-1V15C28,14.4482,27.5518,14,27,14z"/>
</svg>
