<?xml version="1.0" encoding="UTF-8"?>
<svg width="16px" height="16px" viewBox="0 0 16 16" version="1.1" xmlns="http://www.w3.org/2000/svg" xmlns:xlink="http://www.w3.org/1999/xlink">
    <!-- Generator: Sketch 49.3 (51167) - http://www.bohemiancoding.com/sketch -->
    <title>Plus</title>
    <desc>Created with Sketch.</desc>
    <defs></defs>
    <g id="Page-1" stroke="none" stroke-width="1" fill="none" fill-rule="evenodd">
        <g id="plus_16" transform="translate(1.000000, 1.000000)" fill="#000000">
            <g id="icon">
                <path d="M8,7 L14.5009232,7 C14.7765557,7 15,7.23193359 15,7.5 C15,7.77614237 14.7763174,8 14.5009232,8 L8,8 L8,14.5009232 C8,14.7765557 7.76806641,15 7.5,15 C7.22385763,15 7,14.7763174 7,14.5009232 L7,8 L0.499076843,8 C0.223444314,8 0,7.76806641 0,7.5 C0,7.22385763 0.223682597,7 0.499076843,7 L7,7 L7,0.499076843 C7,0.223444314 7.23193359,0 7.5,0 C7.77614237,0 8,0.223682597 8,0.499076843 L8,7 Z" id="fill"></path>
            </g>
        </g>
        <g id="slices" transform="translate(-8.000000, -680.000000)"></g>
    </g>
</svg>