<?xml version="1.0" encoding="utf-8"?>
<!-- Generator: Adobe Illustrator 21.0.2, SVG Export Plug-In . SVG Version: 6.00 Build 0)  -->
<svg version="1.1" xmlns="http://www.w3.org/2000/svg" xmlns:xlink="http://www.w3.org/1999/xlink" x="0px" y="0px"
	 viewBox="0 0 16 16" style="enable-background:new 0 0 16 16;" xml:space="preserve">
<style type="text/css">
	.st0{fill:#444444;}
	.st1{fill:#07C1E4;}
	.st2{fill:#FFFFFF;}
	.st3{opacity:0.48;}
	.st4{opacity:0.16;fill:#444444;}
	.st5{opacity:0.06;fill:#444444;}
	.st6{opacity:0.08;fill:#444444;}
	.st7{fill:#D6F7FD;}
</style>
<g id="Layer_1">
</g>
<g id="Layer_2">
	<g class="st3">
		<path class="st0" d="M7.5,0C3.375,0,0,3.375,0,7.5S3.375,15,7.5,15S15,11.625,15,7.5S11.625,0,7.5,0z M7.5,14
			C3.9159,14,1,11.0841,1,7.5S3.9159,1,7.5,1S14,3.9159,14,7.5S11.0841,14,7.5,14z"/>
		<path class="st0" d="M10.5,7H8V4.5C8,4.225,7.775,4,7.5,4S7,4.225,7,4.5V7H4.5C4.225,7,4,7.225,4,7.5S4.225,8,4.5,8H7v2.5
			C7,10.775,7.225,11,7.5,11S8,10.775,8,10.5V8h2.5C10.775,8,11,7.775,11,7.5S10.775,7,10.5,7z"/>
	</g>
</g>
</svg>
