<?xml version="1.0" encoding="UTF-8"?>
<svg width="16px" height="16px" viewBox="0 0 16 16" version="1.1" xmlns="http://www.w3.org/2000/svg" xmlns:xlink="http://www.w3.org/1999/xlink">
    <!-- Generator: Sketch 49.3 (51167) - http://www.bohemiancoding.com/sketch -->
    <title>Power</title>
    <desc>Created with Sketch.</desc>
    <defs></defs>
    <g id="Page-1" stroke="none" stroke-width="1" fill="none" fill-rule="evenodd">
        <g id="power_16" transform="translate(1.000000, 1.000000)" fill="#000000">
            <g id="icon">
                <path d="M7.532,8 C7.256,8 7.032,7.776 7.032,7.5 L7.032,0.5 C7.032,0.224 7.256,0 7.532,0 C7.808,0 8.032,0.224 8.032,0.5 L8.032,7.5 C8.032,7.776 7.808,8 7.532,8 Z M7.532,14.9961 C5.612,14.9961 3.691,14.2661 2.229,12.8041 C-0.723,9.8511 -0.746,5.0701 2.178,2.1461 C2.374,1.9511 2.69,1.9511 2.886,2.1461 C3.081,2.3421 3.081,2.6581 2.886,2.8531 C0.351,5.3881 0.374,9.5341 2.936,12.0971 C5.47,14.6301 9.595,14.6301 12.129,12.0971 C14.69,9.5341 14.713,5.3881 12.178,2.8531 C11.983,2.6581 11.983,2.3421 12.178,2.1461 C12.374,1.9511 12.69,1.9511 12.886,2.1461 C15.809,5.0711 15.787,9.8511 12.836,12.8041 C11.374,14.2661 9.453,14.9961 7.532,14.9961 Z" id="fill"></path>
            </g>
        </g>
        <g id="slices" transform="translate(-21.000000, -1372.000000)"></g>
    </g>
</svg>