<svg xmlns="http://www.w3.org/2000/svg" viewBox="0 0 16 16"><defs><style>.cls-1{fill:#444;}</style></defs><title>Power</title><g id="Layer_2" data-name="Layer 2"><path class="cls-1" d="M7.5,8A.5.5,0,0,0,8,7.5V.5a.5.5,0,0,0-1,0v7A.5.5,0,0,0,7.5,8Z"/><path class="cls-1" d="M12.8853,2.1465a.5.5,0,0,0-.707.707,6.543,6.543,0,0,1-.0508,9.2427,6.5,6.5,0,0,1-9.1924,0,6.5439,6.5439,0,0,1-.05-9.2427.5.5,0,0,0-.707-.707,7.5453,7.5453,0,0,0,.05,10.6567,7.5,7.5,0,0,0,10.6064,0A7.5444,7.5444,0,0,0,12.8853,2.1465Z"/></g></svg>