<?xml version="1.0" encoding="utf-8"?>
<!-- Generator: Adobe Illustrator 21.0.2, SVG Export Plug-In . SVG Version: 6.00 Build 0)  -->
<svg version="1.1" xmlns="http://www.w3.org/2000/svg" xmlns:xlink="http://www.w3.org/1999/xlink" x="0px" y="0px"
	 viewBox="0 0 16 16" style="enable-background:new 0 0 16 16;" xml:space="preserve">
<style type="text/css">
	.st0{fill:#444444;}
	.st1{fill:#07C1E4;}
	.st2{fill:#FFFFFF;}
	.st3{opacity:0.48;}
	.st4{opacity:0.16;fill:#444444;}
	.st5{opacity:0.06;fill:#444444;}
	.st6{opacity:0.08;fill:#444444;}
	.st7{fill:#D6F7FD;}
</style>
<g id="Layer_1">
</g>
<g id="Layer_2">
	<g>
		<path class="st1" d="M7.5,8C7.7764,8,8,7.7764,8,7.5v-7C8,0.2236,7.7764,0,7.5,0S7,0.2236,7,0.5v7C7,7.7764,7.2236,8,7.5,8z"/>
		<path class="st1" d="M12.8853,2.1465c-0.1953-0.1953-0.5117-0.1953-0.707,0s-0.1953,0.5117,0,0.707
			c2.5342,2.5347,2.5117,6.6807-0.0508,9.2427C10.9,13.3237,9.2681,14,7.5318,14s-3.3682-0.6763-4.5967-1.9038
			c-2.5615-2.562-2.584-6.708-0.0498-9.2427c0.1953-0.1953,0.1953-0.5117,0-0.707s-0.5117-0.1953-0.707,0
			c-2.9238,2.9243-2.9014,7.7051,0.0498,10.6567C3.6451,14.2197,5.5289,15,7.5318,15s3.8867-0.7803,5.3027-2.1968
			C15.7867,9.8516,15.8091,5.0713,12.8853,2.1465z"/>
	</g>
</g>
</svg>
