<svg enable-background="new 0 0 16 16" viewBox="0 0 16 16" xmlns="http://www.w3.org/2000/svg"><g fill="#ffffff"><path d="m7.5 8c.2764 0 .5-.2236.5-.5v-7c0-.2764-.2236-.5-.5-.5s-.5.2236-.5.5v7c0 .2764.2236.5.5.5z"/><path d="m12.8853 2.1465c-.1953-.1953-.5117-.1953-.707 0s-.1953.5117 0 .707c2.5342 2.5347 2.5117 6.6807-.0508 9.2427-1.2275 1.2275-2.8594 1.9038-4.5957 1.9038s-3.3682-.6763-4.5967-1.9038c-2.5615-2.562-2.584-6.708-.0498-9.2427.1953-.1953.1953-.5117 0-.707s-.5117-.1953-.707 0c-2.9238 2.9243-2.9014 7.7051.0498 10.6567 1.417 1.4165 3.3008 2.1968 5.3037 2.1968s3.8867-.7803 5.3027-2.1968c2.9522-2.9516 2.9746-7.7319.0508-10.6567z"/></g></svg>