<?xml version="1.0" encoding="utf-8"?>
<!-- Generator: Adobe Illustrator 21.0.2, SVG Export Plug-In . SVG Version: 6.00 Build 0)  -->
<svg version="1.1" xmlns="http://www.w3.org/2000/svg" xmlns:xlink="http://www.w3.org/1999/xlink" x="0px" y="0px"
	 viewBox="0 0 16 16" style="enable-background:new 0 0 16 16;" xml:space="preserve">
<style type="text/css">
	.st0{fill:#444444;}
	.st1{fill:#FFFFFF;}
	.st2{fill:#0AB7D7;}
	.st3{opacity:0.48;}
	.st4{opacity:0.16;fill:#444444;}
	.st5{opacity:0.06;fill:#444444;}
	.st6{fill:#07C1E4;}
	.st7{opacity:0.08;fill:#444444;}
	.st8{fill:#D6F7FD;}
</style>
<g id="Layer_1">
</g>
<g id="Layer_2">
	<g>
		<g>
			<path class="st0" d="M14.7305,6.812C13.373,5.3882,10.6299,3,7.501,3C4.1924,3,1.3389,5.667,0.2656,6.8135
				c-0.3574,0.3818-0.3555,0.978,0.0049,1.3574C1.6279,9.6011,4.3721,12,7.501,12c2.3301,0,4.8291-1.3208,7.2266-3.8198
				C15.0898,7.8037,15.0908,7.1899,14.7305,6.812z M7.501,11c-2.7549,0-5.2588-2.2041-6.5049-3.5029C1.9805,6.4453,4.584,4,7.501,4
				c2.751,0,5.25,2.186,6.499,3.4946C11.7969,9.7881,9.5498,11,7.501,11z"/>
		</g>
		<circle class="st0" cx="7.5098" cy="7.5" r="0.5"/>
	</g>
</g>
</svg>
