<?xml version="1.0" encoding="UTF-8"?>
<svg width="16px" height="16px" viewBox="0 0 16 16" version="1.1" xmlns="http://www.w3.org/2000/svg" xmlns:xlink="http://www.w3.org/1999/xlink">
    <!-- Generator: Sketch 49.3 (51167) - http://www.bohemiancoding.com/sketch -->
    <title>Proximity</title>
    <desc>Created with Sketch.</desc>
    <defs></defs>
    <g id="Page-1" stroke="none" stroke-width="1" fill="none" fill-rule="evenodd">
        <g id="proximity_16" transform="translate(0.000000, 1.000000)" fill="#000000">
            <g id="icon">
                <path d="M8,8 C6.343,8 5,9.343 5,11 C5,12.657 6.343,14 8,14 C9.657,14 11,12.657 11,11 C11,9.343 9.657,8 8,8 M8,9 C9.103,9 10,9.897 10,11 C10,12.103 9.103,13 8,13 C6.897,13 6,12.103 6,11 C6,9.897 6.897,9 8,9 Z M12.1618837,6.85201994 C9.86705911,4.43153894 6.13294089,4.43050455 3.83713515,6.85201994 C3.645818,7.05372669 3.334805,7.05372669 3.14348786,6.85201994 C2.95217071,6.64927879 2.95217071,6.32241042 3.14348786,6.11966928 C5.81996566,3.29784357 10.1780721,3.29784357 12.8565121,6.11966928 C13.0478293,6.32241042 13.0478293,6.64927879 12.8565121,6.85201994 C12.760363,6.95235612 12.6347805,7.0030414 12.5091979,7.0030414 C12.3836154,7.0030414 12.2580329,6.95235612 12.1618837,6.85201994 Z M15.495318,3.99995462 C15.3660944,3.99995462 15.2368708,3.95185941 15.137934,3.85665052 C13.2318861,2.00253115 10.6968828,0.981734875 8.00035,0.981734875 C5.30381721,0.981734875 2.76881389,2.00253115 0.861756442,3.85665052 C0.664892386,4.04804983 0.344862099,4.04804983 0.147998042,3.85665052 C-0.0488660141,3.66426969 -0.0488660141,3.35410467 0.147998042,3.16172383 C2.24485263,1.12209436 5.03426488,0.0002 8.00035,0.0002 C10.9674447,0.0002 13.7548378,1.12209436 15.852702,3.16172383 C16.049566,3.35410467 16.049566,3.66426969 15.852702,3.85665052 C15.7537651,3.95185941 15.6245416,3.99995462 15.495318,3.99995462 Z" id="fill"></path>
            </g>
        </g>
        <g id="slices" transform="translate(-94.000000, -714.000000)"></g>
    </g>
</svg>