<?xml version="1.0" encoding="utf-8"?>
<!-- Generator: Adobe Illustrator 22.0.1, SVG Export Plug-In . SVG Version: 6.00 Build 0)  -->
<svg version="1.1" id="Layer_1" xmlns="http://www.w3.org/2000/svg" xmlns:xlink="http://www.w3.org/1999/xlink" x="0px" y="0px"
	 viewBox="0 0 16 16" style="enable-background:new 0 0 16 16;" xml:space="preserve">
<style type="text/css">
	.st0{fill:#07C1E4;}
</style>
<title>Proximity</title>
<desc>Created with Sketch.</desc>
<g id="Page-1">
	<g id="proximity_16" transform="translate(0.000000, 1.000000)">
		<g id="icon">
			<path id="fill" class="st0" d="M8,8c-1.657,0-3,1.343-3,3s1.343,3,3,3s3-1.343,3-3S9.657,8,8,8 M8,9c1.103,0,2,0.897,2,2
				s-0.897,2-2,2s-2-0.897-2-2S6.897,9,8,9z M12.1619,6.852c-2.2948-2.4205-6.0289-2.4215-8.3247,0
				c-0.1913,0.2017-0.5023,0.2017-0.6936,0c-0.1913-0.2027-0.1913-0.5296,0-0.7324c2.6765-2.8218,7.0346-2.8218,9.713,0
				c0.1913,0.2027,0.1913,0.5296,0,0.7324c-0.0961,0.1003-0.2217,0.151-0.3473,0.151S12.258,6.9524,12.1619,6.852z M15.4953,4
				c-0.1292,0-0.2584-0.0481-0.3574-0.1433c-1.906-1.8541-4.4411-2.8749-7.1376-2.8749S2.7688,2.0025,0.8618,3.8567
				c-0.1969,0.1914-0.5169,0.1914-0.7138,0c-0.1969-0.1924-0.1969-0.5025,0-0.6949c2.0969-2.0396,4.8863-3.1615,7.8524-3.1615
				c2.9671,0,5.7545,1.1219,7.8524,3.1615c0.1969,0.1924,0.1969,0.5025,0,0.6949C15.7538,3.9519,15.6245,4,15.4953,4z"/>
		</g>
	</g>
	<g id="slices" transform="translate(-94.000000, -714.000000)">
	</g>
</g>
</svg>
