<?xml version="1.0" encoding="utf-8"?>
<!-- Generator: Adobe Illustrator 22.0.1, SVG Export Plug-In . SVG Version: 6.00 Build 0)  -->
<svg version="1.1" id="Layer_1" xmlns="http://www.w3.org/2000/svg" xmlns:xlink="http://www.w3.org/1999/xlink" x="0px" y="0px"
	 viewBox="0 0 16 16" style="enable-background:new 0 0 16 16;" xml:space="preserve">
<style type="text/css">
	.st0{fill:none;stroke:#000000;stroke-miterlimit:10;}
	.st1{fill:#FFFFFF;}
	.st2{fill:#07C1E4;}
	.st3{fill:#444444;}
	.st4{fill:none;stroke:#000000;stroke-linecap:round;stroke-linejoin:round;stroke-miterlimit:10;}
	.st5{fill:none;stroke:#FF6161;stroke-linecap:round;stroke-linejoin:round;stroke-miterlimit:10;}
	.st6{fill:none;stroke:#000000;stroke-width:2;stroke-linecap:round;stroke-linejoin:round;stroke-miterlimit:10;}
	.st7{fill:none;stroke:#000000;stroke-width:2;stroke-linejoin:round;stroke-miterlimit:10;}
</style>
<g>
	<path class="st3" d="M3.1431,7.1196c-0.1913,0.2028-0.1913,0.5297,0,0.7324c0.1913,0.2017,0.5023,0.2017,0.6937,0
		c2.2958-2.4215,6.0299-2.4205,8.3247,0c0.0962,0.1003,0.2217,0.1511,0.3474,0.1511c0.1255,0,0.2512-0.0507,0.3473-0.1511
		c0.1913-0.2027,0.1913-0.5296,0-0.7324C10.1777,4.2979,5.8196,4.2979,3.1431,7.1196z"/>
	<path class="st3" d="M15.8524,4.1617C13.7545,2.1221,10.9671,1.0002,8,1.0002c-2.9661,0-5.7555,1.1219-7.8524,3.1615
		c-0.1968,0.1924-0.1968,0.5026,0,0.6949c0.1968,0.1914,0.5169,0.1914,0.7137,0C2.7685,3.0025,5.3035,1.9817,8,1.9817
		s5.2316,1.0208,7.1376,2.8749c0.0989,0.0952,0.2281,0.1433,0.3574,0.1433c0.1292,0,0.2584-0.0481,0.3574-0.1433
		c0.098-0.0957,0.1469-0.2206,0.1473-0.3456V4.5073C15.9992,4.3823,15.9503,4.2574,15.8524,4.1617z"/>
	<path class="st3" d="M7.9996,9c-1.657,0-3,1.343-3,3c0,1.657,1.343,3,3,3c1.657,0,3-1.343,3-3C10.9996,10.343,9.6567,9,7.9996,9z
		 M7.9996,14c-1.103,0-2-0.897-2-2c0-1.103,0.897-2,2-2c1.103,0,2,0.897,2,2C9.9996,13.103,9.1027,14,7.9996,14z"/>
</g>
</svg>
