<?xml version="1.0" encoding="utf-8"?>
<!-- Generator: Adobe Illustrator 21.0.2, SVG Export Plug-In . SVG Version: 6.00 Build 0)  -->
<svg version="1.1" id="Layer_1" xmlns="http://www.w3.org/2000/svg" xmlns:xlink="http://www.w3.org/1999/xlink" x="0px" y="0px"
	 viewBox="0 0 40 40" style="enable-background:new 0 0 40 40;" xml:space="preserve">
<style type="text/css">
	.st0{fill:#444444;}
	.st1{opacity:0.96;fill:#FFFFFF;}
	.st2{opacity:0.12;fill:#444444;}
	.st3{fill:#FF513D;}
</style>
<g>
	<path class="st0" d="M19.9797,21c-3.8594,0-7,3.1406-7,7s3.1406,7,7,7s7-3.1406,7-7S23.8391,21,19.9797,21z M19.9797,33
		c-2.7568,0-5-2.2432-5-5s2.2432-5,5-5s5,2.2432,5,5S22.7365,33,19.9797,33z"/>
	<path class="st0" d="M35.6887,11.2764C31.4308,7.229,25.8586,5,19.9992,5C14.1408,5,8.5695,7.2285,4.3117,11.2744
		c-0.4004,0.3804-0.417,1.0137-0.0361,1.4141c0.3799,0.3999,1.0137,0.4165,1.4131,0.0361C9.5734,9.0332,14.6564,7,19.9992,7
		c5.3447,0,10.4277,2.0337,14.3125,5.7256c0.1934,0.1841,0.4404,0.2754,0.6885,0.2754c0.2646,0,0.5283-0.1045,0.7246-0.311
		C36.1057,12.2896,36.0891,11.6567,35.6887,11.2764z"/>
	<path class="st0" d="M19.9992,13c-3.9824,0-7.7266,1.561-10.543,4.3955c-0.3896,0.3921-0.3877,1.0254,0.0039,1.4146
		c0.3926,0.3896,1.0254,0.3872,1.4141-0.0044C13.3127,16.3516,16.5539,15,19.9992,15c3.4463,0,6.6875,1.3516,9.124,3.8052
		c0.1963,0.1968,0.4531,0.2954,0.71,0.2954c0.2549,0,0.5098-0.0967,0.7051-0.2905c0.3916-0.3892,0.3936-1.0225,0.0049-1.4141
		C27.7267,14.561,23.9826,13,19.9992,13z"/>
</g>
</svg>
