<svg enable-background="new 0 0 16 16" viewBox="0 0 16 16" xmlns="http://www.w3.org/2000/svg"><path d="m8 8c-1.657 0-3 1.343-3 3s1.343 3 3 3 3-1.343 3-3-1.343-3-3-3m0 1c1.103 0 2 .897 2 2s-.897 2-2 2-2-.897-2-2 .897-2 2-2zm4.1619-2.148c-2.2948-2.4205-6.0289-2.4215-8.3247 0-.1913.2017-.5023.2017-.6936 0-.1913-.2027-.1913-.5296 0-.7324 2.6765-2.8218 7.0346-2.8218 9.713 0 .1913.2027.1913.5296 0 .7324-.0961.1003-.2217.151-.3473.151s-.2513-.0506-.3474-.151zm3.3334-2.852c-.1292 0-.2584-.0481-.3574-.1433-1.906-1.8541-4.4411-2.8749-7.1376-2.8749s-5.2315 1.0207-7.1385 2.8749c-.1969.1914-.5169.1914-.7138 0-.1969-.1924-.1969-.5025 0-.6949 2.0969-2.0396 4.8863-3.1615 7.8524-3.1615 2.9671 0 5.7545 1.1219 7.8524 3.1615.1969.1924.1969.5025 0 .6949-.099.0952-.2283.1433-.3575.1433z" fill="#ffffff" transform="translate(0 1)"/></svg>