<svg height="16" viewBox="0 0 16 16" width="16" xmlns="http://www.w3.org/2000/svg"><path d="m8 8c-1.657 0-3 1.343-3 3s1.343 3 3 3 3-1.343 3-3-1.343-3-3-3m0 1c1.103 0 2 .897 2 2s-.897 2-2 2-2-.897-2-2 .897-2 2-2zm4.1618837-2.14798006c-2.29482459-2.420481-6.02894281-2.42151539-8.32474855 0-.19131715.20170675-.50233015.20170675-.69364729 0-.19131715-.20274115-.19131715-.52960952 0-.73235066 2.6764778-2.82182571 7.03458424-2.82182571 9.71302424 0 .1913172.20274114.1913172.52960951 0 .73235066-.0961491.10033618-.2217316.15102146-.3473142.15102146-.1255825 0-.251165-.05068528-.3473142-.15102146zm3.3334343-2.85206532c-.1292236 0-.2584472-.04809521-.357384-.1433041-1.9060479-1.85411937-4.4410512-2.87491564-7.137584-2.87491564-2.69653279 0-5.23153611 1.02079627-7.13859356 2.87491564-.19686405.19139931-.51689434.19139931-.7137584 0-.19686405-.19238083-.19686405-.50254585 0-.69492669 2.09685459-2.03962947 4.88626684-3.16152383 7.85235196-3.16152383 2.9670947 0 5.7544878 1.12189436 7.852352 3.16152383.196864.19238084.196864.50254586 0 .69492669-.0989369.09520889-.2281604.1433041-.357384.1433041z" fill-rule="evenodd" transform="translate(0 1)"/></svg>