<?xml version="1.0" encoding="utf-8"?>
<!-- Generator: Adobe Illustrator 21.0.2, SVG Export Plug-In . SVG Version: 6.00 Build 0)  -->
<svg version="1.1" id="Layer_1" xmlns="http://www.w3.org/2000/svg" xmlns:xlink="http://www.w3.org/1999/xlink" x="0px" y="0px"
	 viewBox="0 0 40 40" style="enable-background:new 0 0 40 40;" xml:space="preserve">
<style type="text/css">
	.st0{fill:#FFFFFF;}
	.st1{opacity:0.08;fill:#444444;}
	.st2{fill:#07C1E4;}
	.st3{opacity:0.16;fill:#444444;}
	.st4{fill:#05A1BF;}
	.st5{opacity:0.16;fill:none;stroke:#444444;stroke-width:0.5;stroke-miterlimit:10;}
	.st6{fill:#444444;}
	.st7{opacity:0.5;fill:#FF4444;}
	.st8{fill:#0000F9;}
	.st9{opacity:0.5;fill:#FFF800;}
	.st10{fill:#E3E3E3;}
	.st11{fill:#D4D4D4;}
	.st12{fill:#F0F0F0;}
	.st13{fill:#30D557;}
	.st14{fill:#FF513D;}
	.st15{fill:#FFB400;}
</style>
<g>
	<path class="st6" d="M20,4C11.1777,4,4,11.1777,4,20s7.1777,16,16,16s16-7.1777,16-16S28.8223,4,20,4z M20,34
		c-7.7197,0-14-6.2803-14-14S12.2803,6,20,6s14,6.2803,14,14S27.7197,34,20,34z"/>
	<path class="st6" d="M20,13c-3.8594,0-7,3.1406-7,7s3.1406,7,7,7s7-3.1406,7-7S23.8594,13,20,13z M20,25c-2.7568,0-5-2.2432-5-5
		s2.2432-5,5-5s5,2.2432,5,5S22.7568,25,20,25z"/>
</g>
</svg>
