<svg xmlns="http://www.w3.org/2000/svg" viewBox="0 0 16 16"><defs><style>.cls-1{fill:#07C1E4;}</style></defs><title>Record</title><g id="Layer_2" data-name="Layer 2"><path class="cls-1" d="M14,2H2A2.0023,2.0023,0,0,0,0,4v8a2.0023,2.0023,0,0,0,2,2H14a2.0023,2.0023,0,0,0,2-2V4A2.0023,2.0023,0,0,0,14,2Zm1,10a1.001,1.001,0,0,1-1,1H2a1.001,1.001,0,0,1-1-1V4A1.001,1.001,0,0,1,2,3H14a1.001,1.001,0,0,1,1,1Z"/><path class="cls-1" d="M11,6A2,2,0,0,0,9,8a1.98,1.98,0,0,0,.2773,1H6.7227A1.98,1.98,0,0,0,7,8a2,2,0,1,0-2,2h6a2,2,0,0,0,0-4ZM4,8A1,1,0,1,1,5,9,1.0011,1.0011,0,0,1,4,8Zm7,1a1,1,0,1,1,1-1A1.0011,1.0011,0,0,1,11,9Z"/></g></svg>