<?xml version="1.0" encoding="UTF-8"?>
<svg width="16px" height="16px" viewBox="0 0 16 16" version="1.1" xmlns="http://www.w3.org/2000/svg" xmlns:xlink="http://www.w3.org/1999/xlink">
    <!-- Generator: Sketch 49.3 (51167) - http://www.bohemiancoding.com/sketch -->
    <title>Record</title>
    <desc>Created with Sketch.</desc>
    <defs></defs>
    <g id="Page-1" stroke="none" stroke-width="1" fill="none" fill-rule="evenodd">
        <g id="record_16" fill="#000000" fill-rule="nonzero">
            <g id="icon">
                <path d="M15,7.9965 C15,4.12835374 11.864935,0.993 7.9965,0.993 C4.12806498,0.993 0.993,4.12835374 0.993,7.9965 C0.993,11.8652906 4.12770938,15 7.9965,15 C11.8652906,15 15,11.8652906 15,7.9965 Z M15.993,7.9965 C15.993,12.4137094 12.4137094,15.993 7.9965,15.993 C3.57929062,15.993 0,12.4137094 0,7.9965 C0,3.57995546 3.57962575,0 7.9965,0 C12.4133742,0 15.993,3.57995546 15.993,7.9965 Z M10,7.9965 C10,6.88970938 9.10329062,5.993 7.9965,5.993 C6.88970938,5.993 5.993,6.88970938 5.993,7.9965 C5.993,9.10329062 6.88970938,10 7.9965,10 C9.10329062,10 10,9.10329062 10,7.9965 Z M10.993,7.9965 C10.993,9.65170938 9.65170938,10.993 7.9965,10.993 C6.34129062,10.993 5,9.65170938 5,7.9965 C5,6.34129062 6.34129062,5 7.9965,5 C9.65170938,5 10.993,6.34129062 10.993,7.9965 Z" id="fill"></path>
            </g>
        </g>
        <g id="slices" transform="translate(-11.000000, -748.000000)"></g>
    </g>
</svg>