<svg viewBox="0 0 16 16" xmlns="http://www.w3.org/2000/svg"><g fill="#444"><path d="m14 2h-12a2.0023 2.0023 0 0 0 -2 2v8a2.0023 2.0023 0 0 0 2 2h12a2.0023 2.0023 0 0 0 2-2v-8a2.0023 2.0023 0 0 0 -2-2zm1 10a1.001 1.001 0 0 1 -1 1h-12a1.001 1.001 0 0 1 -1-1v-8a1.001 1.001 0 0 1 1-1h12a1.001 1.001 0 0 1 1 1z"/><path d="m11 6a2 2 0 0 0 -2 2 1.98 1.98 0 0 0 .2773 1h-2.5546a1.98 1.98 0 0 0 .2773-1 2 2 0 1 0 -2 2h6a2 2 0 0 0 0-4zm-7 2a1 1 0 1 1 1 1 1.0011 1.0011 0 0 1 -1-1zm7 1a1 1 0 1 1 1-1 1.0011 1.0011 0 0 1 -1 1z"/></g></svg>