<?xml version="1.0" encoding="UTF-8"?>
<svg width="16px" height="16px" viewBox="0 0 16 16" version="1.1" xmlns="http://www.w3.org/2000/svg" xmlns:xlink="http://www.w3.org/1999/xlink">
    <!-- Generator: Sketch 49.3 (51167) - http://www.bohemiancoding.com/sketch -->
    <title>Repeat</title>
    <desc>Created with Sketch.</desc>
    <defs></defs>
    <g id="Page-1" stroke="none" stroke-width="1" fill="none" fill-rule="evenodd">
        <g id="refresh_16" fill="#000000">
            <g id="icon">
                <path d="M10,5.5 C10,5.775 10.225,6 10.5,6 L15.5,6 C15.775,6 16,5.775 16,5.5 L16,0.5 C16,0.225 15.775,0 15.5,0 C15.225,0 15,0.225 15,0.5 L15,4.146 C13.607,1.632 10.919,0 8,0 C3.589,0 0,3.589 0,8 C0,12.411 3.589,16 8,16 C12.195,16 15.702,12.724 15.982,8.542 C16.001,8.267 15.792,8.028 15.517,8.01 C15.275,7.996 15.003,8.2 14.984,8.476 C14.739,12.134 11.671,15 8,15 C4.141,15 1,11.86 1,8 C1,4.14 4.141,1 8,1 C10.694,1 13.152,2.594 14.303,5 L10.5,5 C10.225,5 10,5.225 10,5.5" id="fill"></path>
            </g>
        </g>
        <g id="slices" transform="translate(-94.000000, -782.000000)"></g>
    </g>
</svg>