<svg viewBox="0 0 16 16" xmlns="http://www.w3.org/2000/svg"><g fill="#444"><path d="m15.0684 6.7036-1.57-.5254-.3242-.7861.7428-1.4761a1.3673 1.3673 0 0 0 -1.832-1.8354l-1.4814.74-.7852-.3257-.5215-1.5662a1.367 1.367 0 0 0 -2.5928 0l-.5215 1.5645-.7852.3252-1.4726-.7373a1.3681 1.3681 0 0 0 -1.8348 1.8335l.7383 1.4766-.3252.7847-1.5724.5272a1.3681 1.3681 0 0 0 .0048 2.5943l1.5645.519.3271.7847-.7392 1.4839a1.3678 1.3678 0 0 0 1.8379 1.83l1.47-.7383.7861.3242.5215 1.562a1.3676 1.3676 0 0 0 2.5935-.0029l.5176-1.5615.7861-.3257 1.4775.7368a1.3676 1.3676 0 0 0 1.832-1.8354l-.7383-1.4727.3252-.7856 1.5674-.519a1.3619 1.3619 0 0 0 .9356-1.2954v-.0039a1.3618 1.3618 0 0 0 -.9316-1.294zm-.0684 1.2979a.3639.3639 0 0 1 -.25.3462l-1.7842.5908a.5.5 0 0 0 -.3047.2827l-.501 1.208a.5031.5031 0 0 0 .0146.416l.8408 1.6763a.3677.3677 0 0 1 -.4912.4937l-1.6816-.8389a.5028.5028 0 0 0 -.415-.0146l-1.207.501a.5023.5023 0 0 0 -.2832.3047l-.59 1.7783a.3818.3818 0 0 1 -.6953 0l-.5947-1.7783a.5.5 0 0 0 -.2832-.3032l-1.209-.499a.5071.5071 0 0 0 -.19-.0376.4966.4966 0 0 0 -.2246.0532l-1.6738.8408a.3677.3677 0 0 1 -.4932-.4917l.84-1.6875a.4972.4972 0 0 0 .0146-.415l-.502-1.2056a.5015.5015 0 0 0 -.3047-.2827l-1.78-.5908a.3677.3677 0 0 1 -.002-.6968l1.7881-.6a.5008.5008 0 0 0 .3023-.2825l.499-1.2061a.5009.5009 0 0 0 -.0146-.415l-.84-1.68a.3681.3681 0 0 1 .4932-.4922l1.6768.8394a.5045.5045 0 0 0 .415.0146l1.207-.5a.4994.4994 0 0 0 .2836-.3038l.5938-1.7817a.3812.3812 0 0 1 .6943 0l.5938 1.7827a.5007.5007 0 0 0 .2832.3037l1.207.5a.497.497 0 0 0 .415-.0146l1.6846-.8418a.37.37 0 0 1 .4229.07.3659.3659 0 0 1 .0693.4219l-.8447 1.68a.4984.4984 0 0 0 -.0156.4155l.4964 1.2084a.5011.5011 0 0 0 .3047.2842l1.7871.5977a.3637.3637 0 0 1 .2482.3457z"/><path d="m8 4.9951a3 3 0 1 0 3 3 3.0033 3.0033 0 0 0 -3-3zm0 5a2 2 0 1 1 2-2 2.0023 2.0023 0 0 1 -2 2z"/></g></svg>