<?xml version="1.0" encoding="UTF-8" standalone="no"?>
<svg width="50px" height="50px" viewBox="0 0 50 50" version="1.1" xmlns="http://www.w3.org/2000/svg" xmlns:xlink="http://www.w3.org/1999/xlink" xmlns:sketch="http://www.bohemiancoding.com/sketch/ns">
    <!-- Generator: Sketch 3.4.4 (17249) - http://www.bohemiancoding.com/sketch -->
    <title>settings-experience</title>
    <desc>Created with Sketch.</desc>
    <defs>
        <path id="path-1" d="M0,0.018 L24,0.018 L24,24 L0,24 L0,0.018 Z"></path>
    </defs>
    <g id="Page-1" stroke="none" stroke-width="1" fill="none" fill-rule="evenodd" sketch:type="MSPage">
        <g id="settings-experience" sketch:type="MSArtboardGroup">
            <g id="Page-1" sketch:type="MSLayerGroup" transform="translate(13.000000, 12.000000)">
                <mask id="mask-2" sketch:name="Clip 2" fill="white">
                    <use xlink:href="#path-1"></use>
                </mask>
                <g id="Clip-2"></g>
                <path d="M11.999,17.5166 C8.962,17.5166 6.499,15.0546 6.499,12.0166 C6.499,8.9796 8.962,6.5166 11.999,6.5166 C15.037,6.5166 17.499,8.9796 17.499,12.0166 C17.499,15.0546 15.037,17.5166 11.999,17.5166 L11.999,17.5166 Z M24,13.0176 L24,11.0176 L18.999,9.3466 C18.947,9.2096 18.893,9.0746 18.832,8.9416 L21.199,4.2366 L19.784,2.8226 L15.062,5.1786 C14.933,5.1206 14.8,5.0676 14.666,5.0166 L13,0.0176 L11,0.0176 L9.333,5.0166 C9.2,5.0676 9.068,5.1196 8.938,5.1776 L4.228,2.8226 L2.813,4.2366 L5.166,8.9426 C5.107,9.0736 5.054,9.2066 5.002,9.3416 L0,11.0176 L0,13.0176 L4.995,14.6736 C5.047,14.8106 5.101,14.9476 5.161,15.0806 L2.813,19.7926 L4.228,21.2076 L8.924,18.8496 C9.058,18.9106 9.195,18.9656 9.333,19.0186 L11,23.9996 L13,23.9996 L14.652,19.0236 C14.794,18.9696 14.935,18.9136 15.073,18.8516 L19.771,21.1946 L21.186,19.7806 L18.834,15.0896 C18.896,14.9526 18.953,14.8116 19.006,14.6696 L24,13.0176 Z" id="Fill-1" fill="#A0509E" sketch:type="MSShapeGroup" mask="url(#mask-2)"></path>
            </g>
        </g>
    </g>
</svg>