<?xml version="1.0" encoding="utf-8"?>
<!-- Generator: Adobe Illustrator 21.0.0, SVG Export Plug-In . SVG Version: 6.00 Build 0)  -->
<svg version="1.1" id="Layer_1" xmlns="http://www.w3.org/2000/svg" xmlns:xlink="http://www.w3.org/1999/xlink" x="0px" y="0px"
	 viewBox="0 0 50 50" style="enable-background:new 0 0 50 50;" xml:space="preserve">
<style type="text/css">
	.st0{fill:#444444;}
	.st1{fill:#393939;}
	.st2{fill:#07C1E4;}
	.st3{fill:#05A1BF;}
	.st4{fill:#FF513D;}
	.st5{fill:#D64333;}
	.st6{fill:white;}
</style>
<path class="st6" d="M44,4H18c-2.7568,0-5,2.2432-5,5v9H6c-2.7568,0-5,2.2432-5,5v18c0,2.7568,2.2432,5,5,5h26
	c2.7568,0,5-2.2432,5-5v-9h7c2.7568,0,5-2.2432,5-5V9C49,6.2432,46.7568,4,44,4z M35,41c0,1.6543-1.3457,3-3,3H6
	c-1.6543,0-3-1.3457-3-3V23c0-1.6543,1.3457-3,3-3h7v7c0,2.7568,2.2432,5,5,5h17V41z M47,27c0,1.6543-1.3457,3-3,3H18
	c-1.6543,0-3-1.3457-3-3V9c0-1.6543,1.3457-3,3-3h26c1.6543,0,3,1.3457,3,3V27z"/>
</svg>
