<?xml version="1.0" encoding="UTF-8"?>
<svg width="16px" height="16px" viewBox="0 0 16 16" version="1.1" xmlns="http://www.w3.org/2000/svg" xmlns:xlink="http://www.w3.org/1999/xlink">
    <!-- Generator: Sketch 49.3 (51167) - http://www.bohemiancoding.com/sketch -->
    <title>Shuffle</title>
    <desc>Created with Sketch.</desc>
    <defs></defs>
    <g id="Page-1" stroke="none" stroke-width="1" fill="none" fill-rule="evenodd">
        <g id="call-handling_16" fill="#000000">
            <g id="icon">
                <path d="M15.9614,12.3091 C15.9364,12.2471 15.8994,12.1921 15.8534,12.1461 L12.8534,9.1461 C12.6584,8.9511 12.3414,8.9511 12.1464,9.1461 C11.9514,9.3421 11.9514,9.6581 12.1464,9.8531 L14.2744,11.9811 C12.5574,11.8851 10.9504,11.0881 9.7204,9.6941 L8.2254,8.0001 L9.7204,6.3061 C10.9504,4.9121 12.5574,4.1151 14.2744,4.0191 L12.1464,6.1461 C11.9514,6.3421 11.9514,6.6581 12.1464,6.8531 C12.2444,6.9511 12.3724,7.0001 12.5004,7.0001 C12.6284,7.0001 12.7554,6.9511 12.8534,6.8531 L15.8534,3.8541 C15.8994,3.8081 15.9364,3.7521 15.9614,3.6911 C16.0124,3.5691 16.0124,3.4311 15.9614,3.3091 C15.9364,3.2471 15.8994,3.1921 15.8534,3.1461 L12.8534,0.1461 C12.6584,-0.0489 12.3414,-0.0489 12.1464,0.1461 C11.9514,0.3421 11.9514,0.6581 12.1464,0.8531 L14.3104,3.0171 C12.3134,3.1061 10.3814,4.0461 8.9704,5.6441 L7.5584,7.2441 L6.1474,5.6441 C4.6644,3.9641 2.6064,3.0001 0.5004,3.0001 C0.2234,3.0001 0.0004,3.2241 0.0004,3.5001 C0.0004,3.7761 0.2234,4.0001 0.5004,4.0001 C2.3454,4.0001 4.0854,4.8191 5.3974,6.3061 L6.8924,8.0001 L5.3974,9.6941 C4.0854,11.1811 2.3454,12.0001 0.5004,12.0001 C0.2234,12.0001 0.0004,12.2241 0.0004,12.5001 C0.0004,12.7761 0.2234,13.0001 0.5004,13.0001 C2.6064,13.0001 4.6644,12.0361 6.1474,10.3561 L7.5594,8.7561 L8.9704,10.3551 C10.3814,11.9541 12.3134,12.8931 14.3104,12.9821 L12.1464,15.1461 C11.9514,15.3421 11.9514,15.6581 12.1464,15.8531 C12.2444,15.9511 12.3724,16.0001 12.5004,16.0001 C12.6284,16.0001 12.7554,15.9511 12.8534,15.8531 L15.8534,12.8541 C15.8994,12.8081 15.9364,12.7521 15.9614,12.6911 C16.0124,12.5691 16.0124,12.4311 15.9614,12.3091" id="fill"></path>
            </g>
        </g>
        <g id="slices" transform="translate(-94.000000, -816.000000)"></g>
    </g>
</svg>