<?xml version="1.0" encoding="UTF-8"?>
<svg width="16px" height="16px" viewBox="0 0 16 16" version="1.1" xmlns="http://www.w3.org/2000/svg" xmlns:xlink="http://www.w3.org/1999/xlink">
    <!-- Generator: Sketch 49.3 (51167) - http://www.bohemiancoding.com/sketch -->
    <title>Skip_Fw</title>
    <desc>Created with Sketch.</desc>
    <defs></defs>
    <g id="Page-1" stroke="none" stroke-width="1" fill="none" fill-rule="evenodd">
        <g id="skip-fw_16" transform="translate(2.000000, 3.000000)" fill="#000000">
            <g id="icon">
                <path d="M1.5225,1.0264 C1.3975,1.0264 1.3005,1.0724 1.2535,1.1014 C1.1765,1.1474 0.9985,1.2834 0.9985,1.5524 L0.9985,8.4594 C0.9985,8.7284 1.1765,8.8644 1.2535,8.9104 C1.3295,8.9564 1.5335,9.0484 1.7715,8.9234 L8.7425,5.4564 C8.9035,5.3694 9.0075,5.1964 9.0075,4.9994 C9.0075,4.8014 8.9035,4.6284 8.7295,4.5354 L1.7845,1.0954 C1.6895,1.0444 1.6005,1.0264 1.5225,1.0264 M1.5265,9.9884 C1.2555,9.9884 0.9835,9.9154 0.7385,9.7684 C0.2745,9.4894 0.0005,9.0004 0.0005,8.4594 L0.0005,1.5524 C0.0005,1.0114 0.2745,0.5224 0.7385,0.2434 C1.2035,-0.0336 1.7645,-0.0476 2.2415,0.2054 L9.1875,3.6454 C9.6985,3.9184 10.0075,4.4344 10.0075,4.9994 C10.0075,5.5634 9.6985,6.0794 9.2005,6.3454 L2.2295,9.8124 C2.0095,9.9294 1.7685,9.9884 1.5265,9.9884 Z M11.5,10 C11.224,10 11,9.776 11,9.5 L11,0.5 C11,0.224 11.224,0 11.5,0 C11.776,0 12,0.224 12,0.5 L12,9.5 C12,9.776 11.776,10 11.5,10 Z" id="fill"></path>
            </g>
        </g>
        <g id="slices" transform="translate(-19.000000, -884.000000)"></g>
    </g>
</svg>