<?xml version="1.0" encoding="utf-8"?>
<!-- Generator: Adobe Illustrator 21.0.2, SVG Export Plug-In . SVG Version: 6.00 Build 0)  -->
<svg version="1.1" id="Layer_1" xmlns="http://www.w3.org/2000/svg" xmlns:xlink="http://www.w3.org/1999/xlink" x="0px" y="0px"
	 viewBox="0 0 40 40" style="enable-background:new 0 0 40 40;" xml:space="preserve">
<style type="text/css">
	.st0{fill:#FFFFFF;}
	.st1{opacity:0.08;fill:#444444;}
	.st2{fill:#07C1E4;}
	.st3{opacity:0.16;fill:#444444;}
	.st4{fill:#05A1BF;}
	.st5{opacity:0.16;fill:none;stroke:#444444;stroke-width:0.5;stroke-miterlimit:10;}
	.st6{fill:#444444;}
	.st7{opacity:0.5;fill:#FF4444;}
	.st8{fill:#0000F9;}
	.st9{opacity:0.5;fill:#FFF800;}
	.st10{fill:#E3E3E3;}
	.st11{fill:#D4D4D4;}
	.st12{fill:#F0F0F0;}
	.st13{fill:#30D557;}
	.st14{fill:#FF513D;}
	.st15{fill:#FFB400;}
</style>
<g>
	<g>
		<path class="st6" d="M29.9502,32.0005c-0.4912,0-0.9834-0.1211-1.4375-0.3623l-14.9414-8.959
			C12.6191,22.1724,12,21.1411,12,20.0122c0-1.1299,0.6191-2.1611,1.6152-2.6934l14.8525-8.9326
			c1.001-0.5332,2.124-0.5049,3.0508,0.0508C32.4463,8.9937,33,9.9722,33,11.0542v17.8906c0,1.082-0.5537,2.0605-1.4814,2.6172
			C31.0322,31.854,30.4912,32.0005,29.9502,32.0005z M29.9443,9.9985c-0.1475,0-0.3145,0.0342-0.4902,0.1279l-14.8525,8.9326
			C14.208,19.27,14,19.6167,14,20.0122c0,0.3945,0.208,0.7412,0.5566,0.9268l14.9414,8.959c0.4277,0.2236,0.8369,0.04,0.9912-0.0508
			C30.6426,29.7544,31,29.4819,31,28.9448V11.0542c0-0.5371-0.3574-0.8096-0.5107-0.9023
			C30.3926,10.0942,30.1953,9.9985,29.9443,9.9985z"/>
	</g>
	<path class="st6" d="M8,31.9995c-0.5527,0-1-0.4473-1-1v-22c0-0.5527,0.4473-1,1-1s1,0.4473,1,1v22
		C9,31.5522,8.5527,31.9995,8,31.9995z"/>
</g>
</svg>
