<?xml version="1.0" encoding="UTF-8"?>
<svg width="16px" height="16px" viewBox="0 0 16 16" version="1.1" xmlns="http://www.w3.org/2000/svg" xmlns:xlink="http://www.w3.org/1999/xlink">
    <!-- Generator: Sketch 49.3 (51167) - http://www.bohemiancoding.com/sketch -->
    <title>Skip_Bw</title>
    <desc>Created with Sketch.</desc>
    <defs></defs>
    <g id="Page-1" stroke="none" stroke-width="1" fill="none" fill-rule="evenodd">
        <g id="skip-bw_16" transform="translate(2.000000, 3.000000)" fill="#000000">
            <g id="icon">
                <path d="M10.4775,8.9736 C10.6025,8.9736 10.6995,8.9276 10.7465,8.8986 C10.8235,8.8526 11.0015,8.7166 11.0015,8.4476 L11.0015,1.5406 C11.0015,1.2716 10.8235,1.1356 10.7465,1.0896 C10.6705,1.0436 10.4665,0.9516 10.2285,1.0766 L3.2575,4.5436 C3.0965,4.6306 2.9925,4.8036 2.9925,5.0006 C2.9925,5.1986 3.0965,5.3716 3.2705,5.4646 L10.2155,8.9046 C10.3105,8.9556 10.3995,8.9736 10.4775,8.9736 M10.4735,0.0116 C10.7445,0.0116 11.0165,0.0846 11.2615,0.2316 C11.7255,0.5106 11.9995,0.9996 11.9995,1.5406 L11.9995,8.4476 C11.9995,8.9886 11.7255,9.4776 11.2615,9.7566 C10.7965,10.0336 10.2355,10.0476 9.7585,9.7946 L2.8125,6.3546 C2.3015,6.0816 1.9925,5.5656 1.9925,5.0006 C1.9925,4.4366 2.3015,3.9206 2.7995,3.6546 L9.7705,0.1876 C9.9905,0.0706 10.2315,0.0116 10.4735,0.0116 Z M0.5,0 C0.776,0 1,0.224 1,0.5 L1,9.5 C1,9.776 0.776,10 0.5,10 C0.224,10 -4.54747351e-13,9.776 -4.54747351e-13,9.5 L-4.54747351e-13,0.5 C-4.54747351e-13,0.224 0.224,0 0.5,0 Z" id="fill"></path>
            </g>
        </g>
        <g id="slices" transform="translate(-15.000000, -850.000000)"></g>
    </g>
</svg>