<?xml version="1.0" encoding="utf-8"?>
<!-- Generator: Adobe Illustrator 21.0.2, SVG Export Plug-In . SVG Version: 6.00 Build 0)  -->
<svg version="1.1" id="Layer_1" xmlns="http://www.w3.org/2000/svg" xmlns:xlink="http://www.w3.org/1999/xlink" x="0px" y="0px"
	 viewBox="0 0 40 40" style="enable-background:new 0 0 40 40;" xml:space="preserve">
<style type="text/css">
	.st0{fill:#FFFFFF;}
	.st1{opacity:0.08;fill:#444444;}
	.st2{fill:#07C1E4;}
	.st3{opacity:0.16;fill:#444444;}
	.st4{fill:#05A1BF;}
	.st5{opacity:0.16;fill:none;stroke:#444444;stroke-width:0.5;stroke-miterlimit:10;}
	.st6{fill:#444444;}
	.st7{opacity:0.5;fill:#FF4444;}
	.st8{fill:#0000F9;}
	.st9{opacity:0.5;fill:#FFF800;}
	.st10{fill:#E3E3E3;}
	.st11{fill:#D4D4D4;}
	.st12{fill:#F0F0F0;}
	.st13{fill:#30D557;}
	.st14{fill:#FF513D;}
	.st15{fill:#FFB400;}
</style>
<g>
	<g>
		<path class="st0" d="M10.0498,7.9995c0.4912,0,0.9834,0.1211,1.4375,0.3623l14.9414,8.959C27.3809,17.8276,28,18.8589,28,19.9878
			c0,1.1299-0.6191,2.1611-1.6152,2.6934l-14.8525,8.9326c-1.001,0.5332-2.124,0.5049-3.0508-0.0508
			C7.5537,31.0063,7,30.0278,7,28.9458V11.0552c0-1.082,0.5537-2.0605,1.4814-2.6172C8.9678,8.146,9.5088,7.9995,10.0498,7.9995z
			 M10.0557,30.0015c0.1475,0,0.3145-0.0342,0.4902-0.1279l14.8525-8.9326C25.792,20.73,26,20.3833,26,19.9878
			c0-0.3945-0.208-0.7412-0.5566-0.9268l-14.9414-8.959c-0.4277-0.2236-0.8369-0.04-0.9912,0.0508
			C9.3574,10.2456,9,10.5181,9,11.0552v17.8906c0,0.5371,0.3574,0.8096,0.5107,0.9023
			C9.6074,29.9058,9.8047,30.0015,10.0557,30.0015z"/>
	</g>
	<path class="st0" d="M32,8.0005c0.5527,0,1,0.4473,1,1v22c0,0.5527-0.4473,1-1,1s-1-0.4473-1-1v-22
		C31,8.4478,31.4473,8.0005,32,8.0005z"/>
</g>
</svg>
