<svg xmlns="http://www.w3.org/2000/svg" viewBox="0 0 16 16"><defs><style>.cls-1{fill:#444;}</style></defs><title>Sliders</title><g id="Layer_2" data-name="Layer 2"><path class="cls-1" d="M.5,5H2.1353A1.4915,1.4915,0,0,0,4.9517,5H15.5a.5.5,0,0,0,0-1H4.9517A1.4915,1.4915,0,0,0,2.1353,4H.5a.5.5,0,0,0,0,1ZM3.5435,4a.5.5,0,1,1-.5.5A.5005.5005,0,0,1,3.5435,4Z"/><path class="cls-1" d="M15.5,11H13.8647a1.4915,1.4915,0,0,0-2.8164,0H.5a.5.5,0,0,0,0,1H11.0483a1.4915,1.4915,0,0,0,2.8164,0H15.5a.5.5,0,0,0,0-1Zm-3.0435,1a.5.5,0,1,1,.5-.5A.5005.5005,0,0,1,12.4565,12Z"/></g></svg>