<?xml version="1.0" encoding="UTF-8"?>
<svg width="32px" height="15px" viewBox="0 0 32 15" version="1.1" xmlns="http://www.w3.org/2000/svg" xmlns:xlink="http://www.w3.org/1999/xlink">
    <!-- Generator: Sketch 42 (36781) - http://www.bohemiancoding.com/sketch -->
    <title>icon</title>
    <desc>Created with Sketch.</desc>
    <defs></defs>
    <g id="Page-1" stroke="none" stroke-width="1" fill="none" fill-rule="evenodd">
        <g id="1.4" transform="translate(-1242.000000, -836.000000)" fill="#444444">
            <g id="content" transform="translate(100.000000, 196.000000)">
                <g id="right-panel" transform="translate(1110.000000, 0.000000)">
                    <g id="content" transform="translate(0.000000, 40.000000)">
                        <g id="item" transform="translate(0.000000, 576.000000)">
                            <g id="icon" transform="translate(32.000000, 24.000000)">
                                <path d="M31.5,0 C31.224,0 31,0.224 31,0.5 L31,7 L1,7 L1,0.5 C1,0.224 0.776,0 0.5,0 C0.224,0 0,0.224 0,0.5 L0,14.5 C0,14.776 0.224,15 0.5,15 C0.776,15 1,14.776 1,14.5 L1,8 L31,8 L31,14.5 C31,14.776 31.224,15 31.5,15 C31.776,15 32,14.776 32,14.5 L32,0.5 C32,0.224 31.776,0 31.5,0" id="fill"></path>
                            </g>
                        </g>
                    </g>
                </g>
            </g>
        </g>
    </g>
</svg>