<?xml version="1.0" encoding="utf-8"?>
<!-- Generator: Adobe Illustrator 22.0.1, SVG Export Plug-In . SVG Version: 6.00 Build 0)  -->
<svg version="1.1" id="Layer_1" xmlns="http://www.w3.org/2000/svg" xmlns:xlink="http://www.w3.org/1999/xlink" x="0px" y="0px"
	 viewBox="0 0 40 40" style="enable-background:new 0 0 40 40;" xml:space="preserve">
<style type="text/css">
	.st0{fill:#07C1E4;}
</style>
<path class="st0" d="M17.998,36.0006c-0.3643,0-0.7275-0.1016-1.0508-0.3008c-0.5938-0.3672-0.9482-1.0029-0.9482-1.7012v-4.4443
	l-1.7031,1.8428c-0.5654,0.5674-1.3457,0.7539-2.0752,0.5107l-3.8779-1.293c-0.6611-0.2197-1.1523-0.7568-1.3135-1.4355
	c-0.1611-0.6807,0.0381-1.3809,0.5322-1.875l3.1191-3.3047H6.9999c-0.6982,0-1.334-0.3545-1.7012-0.9482
	s-0.4004-1.3213-0.0879-1.9453l1.7236-3.4482c0.5117-1.0225,1.54-1.6582,2.6836-1.6582h0.8789L6.8915,12.569
	c-0.8262-0.8262-1.1035-2.002-0.7432-3.0869l0.9961-2.9863c0.2422-0.7285,0.834-1.2686,1.5811-1.4453
	c0.7451-0.1758,1.5176,0.042,2.0615,0.5859l5.2119,5.0137V8.6188c0-1.1436,0.6357-2.1719,1.6582-2.6836l3.4473-1.7236
	c0.625-0.3115,1.3525-0.2783,1.9463,0.0879c0.5938,0.3672,0.9482,1.0029,0.9482,1.7012v4.7295l2.3662-2.1641
	c0.4609-0.4629,1.1611-0.6602,1.8408-0.502c0.6797,0.1611,1.2178,0.6514,1.4385,1.3145l1.293,3.8789
	c0.2402,0.7246,0.0547,1.5088-0.4834,2.0469l-0.7939,0.6953h4.3379c0.6982,0,1.334,0.3545,1.7012,0.9482
	s0.4004,1.3213,0.0879,1.9453l-1.7236,3.4482c-0.5117,1.0225-1.54,1.6582-2.6836,1.6582H29.623l0.749,0.668
	c0.5801,0.5781,0.7656,1.3633,0.5234,2.0869l-1.293,3.877c-0.2188,0.6611-0.7559,1.1533-1.4355,1.3145
	c-0.6797,0.1563-1.3809-0.0381-1.875-0.5322l-2.293-2.124v2.0908c0,1.1436-0.6357,2.1719-1.6582,2.6836l-3.4473,1.7236
	C18.6083,35.9294,18.3027,36.0006,17.998,36.0006z M16.999,25.9997c0.123,0,0.2461,0.0225,0.3643,0.0684
	c0.3838,0.1504,0.6357,0.5205,0.6357,0.9316v6.999l3.4473-1.7236c0.3408-0.1699,0.5527-0.5127,0.5527-0.8945v-4.3809
	c0-0.3975,0.2354-0.7578,0.5996-0.916c0.3633-0.1602,0.7881-0.0879,1.0801,0.1826l4,3.707l1.3203-3.8525l-2.666-2.375
	c-0.3096-0.2764-0.416-0.7148-0.2686-1.1025s0.5195-0.6436,0.9346-0.6436h4.3809c0.3818,0,0.7246-0.2119,0.8945-0.5527
	l1.7236-3.4473h-6.999c-0.417,0-0.79-0.2588-0.9365-0.6484c-0.1465-0.3906-0.0352-0.8301,0.2783-1.1045l2.748-2.4023l-1.3408-3.833
	l-4.0742,3.7266c-0.292,0.2676-0.7168,0.3379-1.0781,0.1768c-0.3623-0.1602-0.5967-0.5186-0.5967-0.915v-6.999l-3.4473,1.7236
	C18.2109,7.8942,17.999,8.237,17.999,8.6188v4.3809c0,0.4014-0.2393,0.7627-0.6084,0.9199
	c-0.3701,0.1562-0.7959,0.0771-1.085-0.1992L9.3867,7.0641C9.3085,6.987,9.2392,6.986,9.1845,6.9967
	C9.1132,7.0143,9.0644,7.0583,9.0409,7.1286l-0.9951,2.9854c-0.1201,0.3613-0.0273,0.7539,0.2422,1.0234l5.4004,5.1377
	c0.2959,0.2822,0.3906,0.7158,0.2393,1.0957c-0.1523,0.3799-0.5195,0.6289-0.9287,0.6289H9.6181
	c-0.3818,0-0.7246,0.2119-0.8945,0.5527l-1.7236,3.4473h5.999c0.3994,0,0.7598,0.2373,0.918,0.6045
	c0.1582,0.3662,0.083,0.792-0.1904,1.082L8.996,28.6979l3.8584,1.3135l3.4102-3.6904C16.4579,26.112,16.7255,25.9997,16.999,25.9997
	z"/>
</svg>
