<?xml version="1.0" encoding="UTF-8"?>
<svg width="16px" height="16px" viewBox="0 0 16 16" version="1.1" xmlns="http://www.w3.org/2000/svg" xmlns:xlink="http://www.w3.org/1999/xlink">
    <!-- Generator: Sketch 49.3 (51167) - http://www.bohemiancoding.com/sketch -->
    <title>Spark</title>
    <desc>Created with Sketch.</desc>
    <defs></defs>
    <g id="Page-1" stroke="none" stroke-width="1" fill="none" fill-rule="evenodd">
        <g id="spark_16" transform="translate(1.000000, 1.000000)" fill="#000000">
            <g id="icon">
                <path d="M14.5,7 L8.707,7 L12.852,2.856 C13.046,2.661 13.046,2.343 12.852,2.148 C12.657,1.954 12.339,1.954 12.144,2.148 L8,6.293 L8,0.5 C8,0.225 7.775,0 7.5,0 C7.225,0 7,0.225 7,0.5 L7,6.298 L2.85,2.148 C2.656,1.954 2.337,1.954 2.143,2.148 C1.949,2.343 1.949,2.661 2.143,2.856 L6.287,7 L0.5,7 C0.225,7 0,7.225 0,7.5 C0,7.775 0.225,8 0.5,8 L6.293,8 L2.143,12.15 C1.949,12.344 1.949,12.663 2.143,12.857 C2.337,13.051 2.656,13.051 2.85,12.857 L7,8.707 L7,14.5 C7,14.775 7.225,15 7.5,15 C7.775,15 8,14.775 8,14.5 L8,8.713 L12.144,12.857 C12.339,13.051 12.657,13.051 12.852,12.857 C13.046,12.663 13.046,12.344 12.852,12.15 L8.702,8 L14.5,8 C14.775,8 15,7.775 15,7.5 C15,7.225 14.775,7 14.5,7" id="fill"></path>
            </g>
        </g>
        <g id="slices" transform="translate(-94.000000, -918.000000)"></g>
    </g>
</svg>