<?xml version="1.0" encoding="utf-8"?>
<!-- Generator: Adobe Illustrator 22.0.1, SVG Export Plug-In . SVG Version: 6.00 Build 0)  -->
<svg version="1.1" id="Layer_1" xmlns="http://www.w3.org/2000/svg" xmlns:xlink="http://www.w3.org/1999/xlink" x="0px" y="0px"
	 viewBox="0 0 16 16" style="enable-background:new 0 0 16 16;" xml:space="preserve">
<style type="text/css">
	.st0{fill:#444444;}
</style>
<g>
	<path class="st0" d="M14.56,6.56c-0.7953,0-1.44,0.6447-1.44,1.44c0,2.4216-1.69,4.4558-3.9525,4.9856
		c0.4814,0.3574,0.7942,0.9297,0.7944,1.5739c0.0001,0.4866-0.1761,0.9461-0.4981,1.3059C13.1784,15.1756,16,11.9113,16,8
		C16,7.2047,15.3553,6.56,14.56,6.56z"/>
	<path class="st0" d="M3.3613,10.6786c0.098,0,0.1949,0.0072,0.2901,0.0212C3.1627,9.9155,2.88,8.9902,2.88,8
		c0-0.9897,0.2826-1.9145,0.7708-2.6985C3.5554,5.3156,3.4582,5.3228,3.36,5.3228c-0.5233,0-1.0154-0.2037-1.3855-0.5737
		C1.6316,4.4064,1.4316,3.959,1.4037,3.479C0.5188,4.766,0,6.3235,0,8c0,1.6774,0.5193,3.2355,1.4051,4.5229
		c0.0278-0.48,0.2276-0.9274,0.5703-1.2701C2.3456,10.8825,2.8378,10.6786,3.3613,10.6786z"/>
	<path class="st0" d="M9.1661,3.0142c1.8883,0.4416,3.3781,1.9311,3.8197,3.8195C13.3433,6.3525,13.9158,6.04,14.56,6.04
		c0.5013,0,0.9591,0.1894,1.3061,0.5002c-0.6005-3.2431-3.1634-5.8061-6.4064-6.4065C9.7705,0.4807,9.96,0.9386,9.96,1.44
		C9.96,2.0843,9.6475,2.6568,9.1661,3.0142z"/>
	<path class="st0" d="M8.002,13.12c-0.0007,0-0.0013,0-0.002,0c-1.3675,0-2.6533-0.5326-3.6204-1.4996
		c-0.5623-0.5623-1.4741-0.5624-2.0364,0c-0.5623,0.5623-0.5623,1.4741,0,2.0364C3.8543,15.168,5.863,16,7.9999,16
		C7.9999,16,8,16,8,16c0.0008,0,0.0016,0,0.0024,0c0.0008,0,0.0016-0.0001,0.0024-0.0001c0,0-0.0001,0-0.0001,0
		c0.7943-0.0014,1.4376-0.6459,1.4373-1.4404C9.4417,13.7644,8.7971,13.12,8.002,13.12z"/>
	<path class="st0" d="M3.36,4.8028c0.3687,0,0.7373-0.1407,1.0185-0.4221C5.2827,3.476,6.4657,2.9514,7.7338,2.8869
		C7.735,2.8868,7.7361,2.8867,7.7373,2.8867c0.0379-0.0019,0.0758-0.0033,0.1138-0.0043c0.006-0.0002,0.012-0.0005,0.0181-0.0007
		C7.9127,2.8806,7.9563,2.88,8,2.88c0.7953,0,1.44-0.6447,1.44-1.44S8.7953,0,8,0C7.9317,0,7.8636,0.0009,7.7956,0.0026
		c-0.0095,0.0002-0.0189,0.0008-0.0284,0.001C7.7078,0.0053,7.6486,0.0074,7.5895,0.0104c-0.002,0.0001-0.004,0.0003-0.0059,0.0004
		C5.6023,0.1117,3.7541,0.9313,2.3415,2.3448c-0.0278,0.0279-0.0539,0.0568-0.079,0.0863C1.7811,2.997,1.8074,3.8469,2.3421,4.3813
		C2.6232,4.6623,2.9916,4.8028,3.36,4.8028z"/>
	<path class="st0" d="M4.9111,11.432c0.819,0.7389,1.9037,1.1889,3.0937,1.1889c2.5516,0,4.62-2.0684,4.62-4.62
		c0-1.1476-0.4186-2.1974-1.1113-3.0053C11.4116,8.5598,8.4969,11.4192,4.9111,11.432z"/>
</g>
</svg>
