<svg enable-background="new 0 0 16 16" viewBox="0 0 16 16" xmlns="http://www.w3.org/2000/svg"><g fill="#444"><path d="m14.56 6.56c-.7953 0-1.44.6447-1.44 1.44 0 2.4216-1.69 4.4558-3.9525 4.9856.4814.3574.7942.9297.7944 1.5739.0001.4866-.1761.9461-.4981 1.3059 3.7146-.6898 6.5362-3.9541 6.5362-7.8654 0-.7953-.6447-1.44-1.44-1.44z"/><path d="m3.3613 10.6786c.098 0 .1949.0072.2901.0212-.4887-.7843-.7714-1.7096-.7714-2.6998 0-.9897.2826-1.9145.7708-2.6985-.0954.0141-.1926.0213-.2908.0213-.5233 0-1.0154-.2037-1.3855-.5737-.3429-.3427-.5429-.7901-.5708-1.2701-.8849 1.287-1.4037 2.8445-1.4037 4.521 0 1.6774.5193 3.2355 1.4051 4.5229.0278-.48.2276-.9274.5703-1.2701.3702-.3703.8624-.5742 1.3859-.5742z"/><path d="m9.1661 3.0142c1.8883.4416 3.3781 1.9311 3.8197 3.8195.3575-.4812.93-.7937 1.5742-.7937.5013 0 .9591.1894 1.3061.5002-.6005-3.2431-3.1634-5.8061-6.4064-6.4065.3108.347.5003.8049.5003 1.3063 0 .6443-.3125 1.2168-.7939 1.5742z"/><path d="m8.002 13.12c-.0007 0-.0013 0-.002 0-1.3675 0-2.6533-.5326-3.6204-1.4996-.5623-.5623-1.4741-.5624-2.0364 0-.5623.5623-.5623 1.4741 0 2.0364 1.5111 1.5112 3.5198 2.3432 5.6567 2.3432h.0001.0024c.0008 0 .0016-.0001.0024-.0001h-.0001c.7943-.0014 1.4376-.6459 1.4373-1.4404-.0003-.7951-.6449-1.4395-1.44-1.4395z"/><path d="m3.36 4.8028c.3687 0 .7373-.1407 1.0185-.4221.9042-.9047 2.0872-1.4293 3.3553-1.4938.0012-.0001.0023-.0002.0035-.0002.0379-.0019.0758-.0033.1138-.0043.006-.0002.012-.0005.0181-.0007.0435-.0011.0871-.0017.1308-.0017.7953 0 1.44-.6447 1.44-1.44s-.6447-1.44-1.44-1.44c-.0683 0-.1364.0009-.2044.0026-.0095.0002-.0189.0008-.0284.001-.0594.0017-.1186.0038-.1777.0068-.002.0001-.004.0003-.0059.0004-1.9813.1009-3.8295.9205-5.2421 2.334-.0278.0279-.0539.0568-.079.0863-.4814.5659-.4551 1.4158.0796 1.9502.2811.281.6495.4215 1.0179.4215z"/><path d="m4.9111 11.432c.819.7389 1.9037 1.1889 3.0937 1.1889 2.5516 0 4.62-2.0684 4.62-4.62 0-1.1476-.4186-2.1974-1.1113-3.0053-.1019 3.5642-3.0166 6.4236-6.6024 6.4364z"/></g></svg>