<?xml version="1.0" encoding="utf-8"?>
<!-- Generator: Adobe Illustrator 21.0.2, SVG Export Plug-In . SVG Version: 6.00 Build 0)  -->
<svg version="1.1" id="Layer_1" xmlns="http://www.w3.org/2000/svg" xmlns:xlink="http://www.w3.org/1999/xlink" x="0px" y="0px"
	 viewBox="0 0 40 40" style="enable-background:new 0 0 40 40;" xml:space="preserve">
<style type="text/css">
	.st0{fill:#FFFFFF;}
	.st1{opacity:0.08;fill:#444444;}
	.st2{fill:#07C1E4;}
	.st3{opacity:0.16;fill:#444444;}
	.st4{fill:#05A1BF;}
	.st5{opacity:0.16;fill:none;stroke:#444444;stroke-width:0.5;stroke-miterlimit:10;}
	.st6{fill:#444444;}
	.st7{opacity:0.5;fill:#FF4444;}
	.st8{fill:#0000F9;}
	.st9{opacity:0.5;fill:#FFF800;}
	.st10{fill:#E3E3E3;}
	.st11{fill:#D4D4D4;}
	.st12{fill:#F0F0F0;}
	.st13{fill:#30D557;}
	.st14{fill:#FF513D;}
	.st15{fill:#FFB400;}
</style>
<g>
	<g>
		<path class="st0" d="M27.5537,35.0022c-0.374,0-0.7412-0.1465-1.0186-0.4229l-8.4697-8.5869H14.5c-1.9297,0-3.5-1.5703-3.5-3.5v-5
			c0-1.9297,1.5703-3.4902,3.5-3.4902h3.5654l8.4648-8.5762c0.001-0.001,0.002-0.0029,0.0039-0.0039
			c0.4141-0.415,1.0312-0.5381,1.5742-0.3135C28.6504,5.3332,29,5.8567,29,6.4426v27.1143c0,0.5859-0.3496,1.1094-0.8906,1.334
			C27.9297,34.9651,27.7402,35.0022,27.5537,35.0022z M14.5,15.9924c-0.8271,0-1.5,0.6729-1.5,1.5v5
			c0,0.8271,0.6729,1.5098,1.5,1.5098h3.9834c0.2676,0,0.5244,0.1074,0.7119,0.2979L27,32.2024V7.7961l-7.8057,7.8994
			c-0.1875,0.1895-0.4434,0.2969-0.7109,0.2969H14.5z"/>
	</g>
</g>
</svg>
