<?xml version="1.0" encoding="utf-8"?>
<!-- Generator: Adobe Illustrator 21.0.2, SVG Export Plug-In . SVG Version: 6.00 Build 0)  -->
<svg version="1.1" id="Layer_1" xmlns="http://www.w3.org/2000/svg" xmlns:xlink="http://www.w3.org/1999/xlink" x="0px" y="0px"
	 viewBox="0 0 40 40" style="enable-background:new 0 0 40 40;" xml:space="preserve">
<style type="text/css">
	.st0{fill:#FFFFFF;}
	.st1{opacity:0.08;fill:#444444;}
	.st2{fill:#07C1E4;}
	.st3{opacity:0.16;fill:#444444;}
	.st4{fill:#05A1BF;}
	.st5{opacity:0.16;fill:none;stroke:#444444;stroke-width:0.5;stroke-miterlimit:10;}
	.st6{fill:#444444;}
	.st7{opacity:0.5;fill:#FF4444;}
	.st8{fill:#0000F9;}
	.st9{opacity:0.5;fill:#FFF800;}
	.st10{fill:#E3E3E3;}
	.st11{fill:#D4D4D4;}
	.st12{fill:#F0F0F0;}
	.st13{fill:#30D557;}
	.st14{fill:#FF513D;}
	.st15{fill:#FFB400;}
</style>
<path class="st0" d="M32.707,8.2951c-0.3906-0.3906-1.0234-0.3906-1.4141,0L26,13.5881V6.4426c0-0.5859-0.3496-1.1094-0.8916-1.334
	c-0.543-0.2246-1.1602-0.1016-1.5742,0.3135c-0.002,0.001-0.0029,0.0029-0.0039,0.0039l-8.4648,8.5762H11.5
	c-1.9297,0-3.5,1.5605-3.5,3.4902v5c0,1.9297,1.5703,3.5,3.5,3.5h2.0957L8.293,31.2951c-0.3906,0.3906-0.3906,1.0234,0,1.4141
	c0.1953,0.1953,0.4512,0.293,0.707,0.293s0.5117-0.0977,0.707-0.293l6.033-6.033l7.7952,7.9031
	c0.2773,0.2764,0.6445,0.4229,1.0186,0.4229c0.1865,0,0.376-0.0371,0.5557-0.1113C25.6504,34.6662,26,34.1428,26,33.5569V16.4162
	l6.707-6.707C33.0977,9.3186,33.0977,8.6858,32.707,8.2951z M15.4834,24.0022H11.5c-0.8271,0-1.5-0.6826-1.5-1.5098v-5
	c0-0.8271,0.6729-1.5,1.5-1.5h3.9834c0.2676,0,0.5234-0.1074,0.7109-0.2969L24,7.7961v7.792l-8.4231,8.4329
	C15.5449,24.0179,15.5159,24.0022,15.4834,24.0022z M24,32.2024l-6.8459-6.9402L24,18.4162V32.2024z"/>
</svg>
