<?xml version="1.0" encoding="UTF-8"?>
<svg width="16px" height="16px" viewBox="0 0 16 16" version="1.1" xmlns="http://www.w3.org/2000/svg" xmlns:xlink="http://www.w3.org/1999/xlink">
    <!-- Generator: Sketch 49.3 (51167) - http://www.bohemiancoding.com/sketch -->
    <title>Speaker_Muted</title>
    <desc>Created with Sketch.</desc>
    <defs></defs>
    <g id="Page-1" stroke="none" stroke-width="1" fill="none" fill-rule="evenodd">
        <g id="power_16-copy" transform="translate(2.000000, 1.000000)" fill="#000000">
            <g id="icon">
                <path d="M8.00025,13.6027783 L4.57725,10.1317783 L8.00025,6.70877828 L8.00025,13.6027783 Z M3.74225,9.50177828 L1.75025,9.50177828 C1.33625,9.50177828 1.00025,9.16177828 1.00025,8.74777828 L1.00025,6.24777828 C1.00025,5.83377828 1.33625,5.49777828 1.75025,5.49777828 L3.74225,5.49777828 C3.87525,5.49777828 4.00325,5.44377828 4.09725,5.34877828 L8.00025,1.39877828 L8.00025,5.29477828 L3.78925,9.51177828 C3.77225,9.50977828 3.75825,9.50177828 3.74225,9.50177828 Z M12.85425,1.14877828 C12.65825,0.953778283 12.34225,0.953778283 12.14625,1.14877828 L9.00025,4.29477828 L9.00025,0.722778283 C9.00025,0.429778283 8.82525,0.167778283 8.55525,0.0557782828 C8.28225,-0.0572217172 7.97425,0.0047782828 7.76825,0.211778283 C7.76625,0.212778283 7.76625,0.213778283 7.76625,0.213778283 L3.53325,4.50177828 L1.75025,4.50177828 C0.78525,4.50177828 0.00025,5.28277828 0.00025,6.24777828 L0.00025,8.74777828 C0.00025,9.71177828 0.78525,10.4977783 1.75025,10.4977783 L2.79825,10.4977783 L0.14625,13.1487783 C-0.04875,13.3437783 -0.04875,13.6607783 0.14625,13.8557783 C0.24425,13.9537783 0.37225,14.0017783 0.50025,14.0017783 C0.62825,14.0017783 0.75625,13.9537783 0.85425,13.8557783 L3.87025,10.8387783 L7.76825,14.7897783 C7.90625,14.9287783 8.09025,15.0017783 8.27725,15.0017783 C8.37025,15.0017783 8.46525,14.9837783 8.55525,14.9467783 C8.82525,14.8337783 9.00025,14.5727783 9.00025,14.2797783 L9.00025,5.70877828 L12.85425,1.85577828 C13.04925,1.66077828 13.04925,1.34377828 12.85425,1.14877828 Z" id="Fill-1"></path>
            </g>
        </g>
        <g id="slices" transform="translate(-22.000000, -974.000000)"></g>
    </g>
</svg>