<?xml version="1.0" encoding="UTF-8"?>
<svg width="48px" height="21px" viewBox="0 0 48 21" version="1.1" xmlns="http://www.w3.org/2000/svg" xmlns:xlink="http://www.w3.org/1999/xlink">
    <!-- Generator: Sketch 42 (36781) - http://www.bohemiancoding.com/sketch -->
    <title>arrows</title>
    <desc>Created with Sketch.</desc>
    <defs></defs>
    <g id="Page-1" stroke="none" stroke-width="1" fill="none" fill-rule="evenodd">
        <g id="1.4" transform="translate(-1234.000000, -513.000000)">
            <g id="content" transform="translate(100.000000, 196.000000)">
                <g id="right-panel" transform="translate(1110.000000, 0.000000)">
                    <g id="content" transform="translate(0.000000, 40.000000)">
                        <g id="item" transform="translate(0.000000, 256.000000)">
                            <g id="arrows" transform="translate(24.000000, 21.000000)">
                                <path d="M21,10.5 C21,16.299 16.299,21 10.5,21 C4.701,21 0,16.299 0,10.5 C0,4.701 4.701,0 10.5,0 C16.299,0 21,4.701 21,10.5" id="Fill-1" fill="#444444" opacity="0.0799999982"></path>
                                <path d="M10.5,0 C4.701,0 0,4.701 0,10.5 C0,16.299 4.701,21 10.5,21 C16.299,21 21,16.299 21,10.5 C21,4.701 16.299,0 10.5,0 M10.5,1 C15.738,1 20,5.262 20,10.5 C20,15.738 15.738,20 10.5,20 C5.262,20 1,15.738 1,10.5 C1,5.262 5.262,1 10.5,1" id="Fill-3" fill="#565656" opacity="0.0599999987"></path>
                                <path d="M13.5,12 C13.372,12 13.244,11.951 13.146,11.854 L10.5,9.207 L7.854,11.854 C7.658,12.049 7.342,12.049 7.146,11.854 C6.951,11.658 6.951,11.342 7.146,11.146 L10.146,8.146 C10.342,7.951 10.658,7.951 10.854,8.146 L13.854,11.146 C14.049,11.342 14.049,11.658 13.854,11.854 C13.756,11.951 13.628,12 13.5,12" id="Fill-5" fill="#565656"></path>
                                <path d="M27,10.5 C27,4.701 31.701,0 37.5,0 C43.299,0 48,4.701 48,10.5 C48,16.299 43.299,21 37.5,21 C31.701,21 27,16.299 27,10.5" id="Fill-7" fill="#444444" opacity="0.0799999982"></path>
                                <path d="M37.5,0 C31.701,0 27,4.701 27,10.5 C27,16.299 31.701,21 37.5,21 C43.299,21 48,16.299 48,10.5 C48,4.701 43.299,0 37.5,0 M37.5,1 C42.738,1 47,5.262 47,10.5 C47,15.738 42.738,20 37.5,20 C32.262,20 28,15.738 28,10.5 C28,5.262 32.262,1 37.5,1" id="Fill-9" fill="#565656" opacity="0.0599999987"></path>
                                <path d="M34.5,9 C34.628,9 34.756,9.049 34.854,9.146 L37.5,11.793 L40.146,9.146 C40.342,8.951 40.658,8.951 40.854,9.146 C41.049,9.342 41.049,9.658 40.854,9.854 L37.854,12.854 C37.658,13.049 37.342,13.049 37.146,12.854 L34.146,9.854 C33.951,9.658 33.951,9.342 34.146,9.146 C34.244,9.049 34.372,9 34.5,9" id="Fill-11" fill="#565656"></path>
                            </g>
                        </g>
                    </g>
                </g>
            </g>
        </g>
    </g>
</svg>