<?xml version="1.0" encoding="utf-8"?>
<!-- Generator: Adobe Illustrator 21.0.2, SVG Export Plug-In . SVG Version: 6.00 Build 0)  -->
<svg version="1.1" id="Layer_1" xmlns="http://www.w3.org/2000/svg" xmlns:xlink="http://www.w3.org/1999/xlink" x="0px" y="0px"
	 viewBox="0 0 40 40" style="enable-background:new 0 0 40 40;" xml:space="preserve">
<style type="text/css">
	.st0{fill:#FFFFFF;}
	.st1{opacity:0.08;fill:#444444;}
	.st2{fill:#07C1E4;}
	.st3{opacity:0.16;fill:#444444;}
	.st4{fill:#05A1BF;}
	.st5{opacity:0.16;fill:none;stroke:#444444;stroke-width:0.5;stroke-miterlimit:10;}
	.st6{fill:#444444;}
	.st7{opacity:0.5;fill:#FF4444;}
	.st8{fill:#0000F9;}
	.st9{opacity:0.5;fill:#FFF800;}
	.st10{fill:#E3E3E3;}
	.st11{fill:#D4D4D4;}
	.st12{fill:#F0F0F0;}
	.st13{fill:#30D557;}
	.st14{fill:#FF513D;}
	.st15{fill:#FFB400;}
</style>
<g>
	<path class="st0" d="M30.5,33.9951h-21c-1.9297,0-3.5-1.5703-3.5-3.5V9.499C6,7.5693,7.5703,6,9.5,6h21
		C32.4297,6,34,7.5693,34,9.499v20.9961C34,32.4248,32.4297,33.9951,30.5,33.9951z M9.5,7.999c-0.8271,0-1.5,0.6729-1.5,1.5v21.0059
		c0,0.8271,0.6729,1.5,1.5,1.5h21c0.8271,0,1.5-0.6729,1.5-1.5V9.499c0-0.8271-0.6729-1.5-1.5-1.5H9.5z"/>
</g>
</svg>
