<?xml version="1.0" encoding="UTF-8"?>
<svg width="15px" height="15px" viewBox="0 0 15 15" version="1.1" xmlns="http://www.w3.org/2000/svg" xmlns:xlink="http://www.w3.org/1999/xlink">
    <!-- Generator: Sketch 42 (36781) - http://www.bohemiancoding.com/sketch -->
    <title>text_16</title>
    <desc>Created with Sketch.</desc>
    <defs></defs>
    <g id="Page-1" stroke="none" stroke-width="1" fill="none" fill-rule="evenodd">
        <g id="1.4" transform="translate(-1250.000000, -708.000000)">
            <g id="content" transform="translate(100.000000, 196.000000)">
                <g id="right-panel" transform="translate(1110.000000, 0.000000)">
                    <g id="content" transform="translate(0.000000, 40.000000)">
                        <g id="item" transform="translate(0.000000, 448.000000)">
                            <g id="text_16" transform="translate(39.000000, 23.000000)">
                                <rect id="bounds" x="1" y="1" width="16" height="16"></rect>
                                <g id="icon" transform="translate(0.500000, 0.500000)" fill="#444444">
                                    <path d="M15,0.5 L1,0.5 C0.725,0.5 0.5,0.725 0.5,1 C0.5,1.275 0.725,1.5 1,1.5 L7.5,1.5 L7.5,15 C7.5,15.275 7.725,15.5 8,15.5 C8.275,15.5 8.5,15.275 8.5,15 L8.5,1.5 L15,1.5 C15.275,1.5 15.5,1.275 15.5,1 C15.5,0.725 15.275,0.5 15,0.5" id="fill"></path>
                                </g>
                            </g>
                        </g>
                    </g>
                </g>
            </g>
        </g>
    </g>
</svg>