<svg xmlns="http://www.w3.org/2000/svg" viewBox="0 0 16 16"><defs><style>.cls-1{fill:#444;}</style></defs><title>TV</title><g id="Layer_2" data-name="Layer 2"><path class="cls-1" d="M14,1H2A2.0023,2.0023,0,0,0,0,3v8a2.0023,2.0023,0,0,0,2,2H6v.49a.5067.5067,0,0,1-.5.5117A.4993.4993,0,1,0,5.5,15h5a.4993.4993,0,1,0,0-.9985A.5067.5067,0,0,1,10,13.49V13h4a2.0023,2.0023,0,0,0,2-2V3A2.0023,2.0023,0,0,0,14,1ZM2,2H14a1.001,1.001,0,0,1,1,1V9H1V3A1.001,1.001,0,0,1,2,2ZM9.0889,14.0015H6.9111A1.5048,1.5048,0,0,0,7,13.49V13H9v.49A1.5048,1.5048,0,0,0,9.0889,14.0015ZM14,12H2a1.001,1.001,0,0,1-1-1V10H15v1A1.001,1.001,0,0,1,14,12Z"/></g></svg>