<svg viewBox="0 0 16 16" xmlns="http://www.w3.org/2000/svg"><path d="m14 1h-12a2.0023 2.0023 0 0 0 -2 2v8a2.0023 2.0023 0 0 0 2 2h4v.49a.5067.5067 0 0 1 -.5.5117.4993.4993 0 1 0 0 .9983h5a.4993.4993 0 1 0 0-.9985.5067.5067 0 0 1 -.5-.5115v-.49h4a2.0023 2.0023 0 0 0 2-2v-8a2.0023 2.0023 0 0 0 -2-2zm-12 1h12a1.001 1.001 0 0 1 1 1v6h-14v-6a1.001 1.001 0 0 1 1-1zm7.0889 12.0015h-2.1778a1.5048 1.5048 0 0 0 .0889-.5115v-.49h2v.49a1.5048 1.5048 0 0 0 .0889.5115zm4.9111-2.0015h-12a1.001 1.001 0 0 1 -1-1v-1h14v1a1.001 1.001 0 0 1 -1 1z" fill="#444"/></svg>