<svg enable-background="new 0 0 416 178" viewBox="0 0 416 178" xmlns="http://www.w3.org/2000/svg"><path d="m143 71c0-2.209 1.791-4 4-4h122c2.209 0 4 1.791 4 4v66c0 2.209-1.791 4-4 4h-61v10h60c3.8599 0 7-3.1401 7-7v-80c0-3.8599-3.1401-7-7-7h-120c-3.8599 0-7 3.1401-7 7v40h2z" fill="none"/><path d="m23.3789 69.0176-6 1.5c-.2227.0556-.3789.2549-.3789.4853v2.4673l7-1.8188v-2.1484c0-.1553-.0703-.2988-.1924-.3945-.123-.0958-.2822-.129-.4287-.0909z" fill="#d540d8"/><circle cx="23" cy="79.998" fill="#d540d8" r="1"/><circle cx="15" cy="81.998" fill="#d540d8" r="1"/><path d="m95.9746 75.5c-.2544-3.0791-2.8296-5.5-5.9746-5.5s-5.7202 2.4209-5.9746 5.5h-44.0254c-.0088 0-.0161.0049-.0249.0049-.2651-10.8145-9.0967-19.5049-19.9751-19.5049-11.0459 0-20 8.9541-20 20s8.9541 20 20 20c10.8784 0 19.71-8.6904 19.9751-19.5049.0088 0 .0161.0049.0249.0049h44.0254c.2544 3.0791 2.8296 5.5 5.9746 5.5s5.7202-2.4209 5.9746-5.5h44.0254v-1zm-70.9746 4.498c0 1.1025-.8975 2-2 2s-2-.8975-2-2 .8975-2 2-2c.3657 0 .7046.106 1 .2783v-5.5908l-7 1.8188v7.4937c0 1.1025-.8975 2-2 2s-2-.8975-2-2 .8975-2 2-2c.3657 0 .7046.106 1 .2783v-9.2734c0-.6895.4678-1.2881 1.1367-1.4561l6-1.5c.4512-.1104.9209-.0127 1.2871.2734s.5762.7179.5762 1.1827zm66.8535-3.6445-2.5 2.5c-.0976.0977-.2256.1465-.3535.1465s-.2559-.0488-.3535-.1465c-.1953-.1953-.1953-.5117 0-.707l2.1465-2.1465-2.1465-2.1465c-.1953-.1953-.1953-.5117 0-.707s.5117-.1953.707 0l2.5 2.5c.1953.1953.1953.5117 0 .707z" fill="#d540d8"/><path d="m396 101c-10.877 0-19.707 8.6875-19.9746 19.5h-44.0508c-.2544-3.0791-2.8296-5.5-5.9746-5.5s-5.7202 2.4209-5.9746 5.5h-44.0254v1h44.0254c.2544 3.0791 2.8296 5.5 5.9746 5.5s5.7202-2.4209 5.9746-5.5h44.0508c.2676 10.8125 9.0976 19.5 19.9746 19.5 11.0459 0 20-8.9541 20-20s-8.9541-20-20-20zm-68.6465 22.1465c.1953.1953.1953.5117 0 .707-.0976.0977-.2256.1465-.3535.1465s-.2559-.0488-.3535-.1465l-2.5-2.5c-.1953-.1953-.1953-.5117 0-.707l2.5-2.5c.1953-.1953.5117-.1953.707 0s.1953.5117 0 .707l-2.1465 2.1465zm72.6592-1.9346c-.0361.0625-.0615.123-.0762.1797l-1.1436 5.3799c-.2744 1.29-1.4551 2.2285-2.8076 2.2285s-2.5332-.9385-2.8086-2.2314l-1.1475-5.3984c-.0098-.0361-.0352-.0957-.0713-.1582-.6084-1.0479-.958-2.2646-.958-3.3369 0-2.6885 2.2363-4.875 4.9854-4.875 2.7646 0 5.0146 2.1865 5.0146 4.875.0001 1.0399-.3603 2.2567-.9872 3.3368z" fill="#2ed557"/><path d="m394.1543 126.5566c.1787.8379.9482 1.4434 1.8311 1.4434s1.6523-.6055 1.8301-1.4404l.0093-.043-3.6821-.0142z" fill="#2ed557"/><path d="m395.9854 114c-2.1973 0-3.9854 1.7383-3.9854 3.875 0 .9014.2998 1.9346.8232 2.835.0811.1396.1416.2852.1797.4336l.3814 1.8564 2.1157-.001v-4.499c0-.2764.2236-.5.5-.5s.5.2236.5.5v4.498l2.0732-.001.3887-1.8281c.042-.168.1006-.3096.1836-.4561.5439-.9355.8545-1.9688.8545-2.8379 0-2.1366-1.8008-3.8749-4.0146-3.8749z" fill="#2ed557"/><path d="m396 124-.0073-.0015-2.3965.001.3276 1.502 4.1133.0161.3233-1.52-2.3531.0009z" fill="#2ed557"/><path d="m319 66h14c5.5229 0 10-4.4771 10-10s-4.4771-10-10-10h-14c-5.5229 0-10 4.4771-10 10s4.4771 10 10 10zm13.9976-18c4.418 0 8 3.5815 8 8s-3.582 8-8 8c-4.4185 0-8-3.5815-8-8s3.5815-8 8-8z" fill="#07c1e4"/><circle cx="332.9976" cy="56" fill="#fff" r="8"/><path d="m266 21c5.5229 0 10-4.4771 10-10s-4.4771-10-10-10-10 4.4771-10 10 4.4771 10 10 10zm-4.3535-11.8535c.1953-.1953.5117-.1953.707 0l3.6465 3.6465 3.6465-3.6465c.1953-.1953.5117-.1953.707 0s.1953.5117 0 .707l-4 4c-.0976.0977-.2256.1465-.3535.1465s-.2559-.0488-.3535-.1465l-4-4c-.1953-.1953-.1953-.5117 0-.707z" opacity=".05"/><path d="m265.6465 13.8535c.0976.0977.2256.1465.3535.1465s.2559-.0488.3535-.1465l4-4c.1953-.1953.1953-.5117 0-.707s-.5117-.1953-.707 0l-3.6465 3.6465-3.6465-3.6465c-.1953-.1953-.5117-.1953-.707 0s-.1953.5117 0 .707z"/><path d="m238 21c5.5229 0 10-4.4771 10-10s-4.4771-10-10-10-10 4.4771-10 10 4.4771 10 10 10zm-4.3535-8.8535 4-4c.1953-.1953.5117-.1953.707 0l4 4c.1953.1953.1953.5117 0 .707-.0976.0977-.2256.1465-.3535.1465s-.2559-.0488-.3535-.1465l-3.6465-3.6465-3.6465 3.6465c-.1953.1953-.5117.1953-.707 0s-.1953-.5117 0-.707z" opacity=".05"/><path d="m234.3535 12.8535 3.6465-3.6465 3.6465 3.6465c.0976.0977.2256.1465.3535.1465s.2559-.0488.3535-.1465c.1953-.1953.1953-.5117 0-.707l-4-4c-.1953-.1953-.5117-.1953-.707 0l-4 4c-.1953.1953-.1953.5117 0 .707s.5117.1953.707 0z"/><path d="m276 64c0-4.4185-3.5815-8-8-8h-120c-4.4185 0-8 3.5815-8 8v11.5 1 27.5h1v-40c0-3.8599 3.1401-7 7-7h120c3.8599 0 7 3.1401 7 7v80c0 3.8599-3.1401 7-7 7h-60v1h60c4.4185 0 8-3.5815 8-8v-22.5-1z" fill="#afafaf"/><path d="m273 137v-66c0-2.209-1.791-4-4-4h-122c-2.209 0-4 1.791-4 4v33h45c0-11.0459 8.9541-20 20-20s20 8.9541 20 20-8.9541 20-20 20v17h61c2.209 0 4-1.791 4-4z" opacity=".05"/><path d="m395.9854 113c-2.749 0-4.9854 2.1865-4.9854 4.875 0 1.0723.3496 2.2891.958 3.3369.0361.0625.0615.1221.0713.1582l1.1475 5.3984c.2754 1.293 1.4561 2.2314 2.8086 2.2314s2.5332-.9385 2.8076-2.2285l1.1436-5.3799c.0146-.0566.04-.1172.0762-.1797.627-1.0801.9873-2.2969.9873-3.3369-.0001-2.6884-2.2501-4.8749-5.0147-4.8749zm1.83 13.5596c-.1777.835-.9473 1.4404-1.8301 1.4404s-1.6523-.6055-1.8311-1.4434l-.0117-.0542 3.6821.0142zm.2217-1.042-4.1133-.0161-.3276-1.502 2.3965-.001c.0024 0 .0049.0015.0073.0015s.0049-.0015.0073-.0015l2.353-.001zm1.1084-4.8047c-.083.1465-.1416.2881-.1836.4561l-.3887 1.8281-2.0732.001v-4.4981c0-.2764-.2236-.5-.5-.5s-.5.2236-.5.5v4.499l-2.1157.001-.3813-1.8564c-.0381-.1484-.0986-.2939-.1797-.4336-.5234-.9004-.8232-1.9336-.8232-2.835 0-2.1367 1.7881-3.875 3.9854-3.875 2.2139 0 4.0146 1.7383 4.0146 3.875-.0001.8691-.3106 1.9023-.8546 2.8379z" fill="#fff"/><g fill="#02bbcc"><path d="m142.5 140.5v-14.4512c-3.9629.4912-7.1211 6.7358-7.2534 14.4512z"/><path d="m139.356 126.4663c-6.356 1.5952-11.105 7.2437-11.3306 14.0337h6.2217c.1064-6.2324 2.1699-11.5688 5.1089-14.0337z"/><path d="m134.2471 141.5h-6.2217c.2256 6.79 4.9746 12.4385 11.3306 14.0337-2.939-2.4649-5.0025-7.8013-5.1089-14.0337z"/><path d="m143.5 140.5h7.2534c-.1323-7.7153-3.2905-13.96-7.2534-14.4512z"/><path d="m208 141v-17c-11.0459 0-20-8.9541-20-20h-45-2-1-58c-2.209 0-4 1.791-4 4v66c0 2.209 1.791 4 4 4h122c2.209 0 4-1.791 4-4v-22-1zm-123-29c-.5522 0-1-.4478-1-1s.4478-1 1-1 1 .4478 1 1-.4478 1-1 1zm4 0c-.5522 0-1-.4478-1-1s.4478-1 1-1 1 .4478 1 1-.4478 1-1 1zm4 0c-.5522 0-1-.4478-1-1s.4478-1 1-1 1 .4478 1 1-.4478 1-1 1zm24-1c0-.5522.4478-1 1-1h50c.5522 0 1 .4478 1 1s-.4478 1-1 1h-50c-.5522 0-1-.4478-1-1zm26 46c-8.8223 0-16-7.1777-16-16s7.1777-16 16-16 16 7.1777 16 16-7.1777 16-16 16z"/><path d="m142.5 141.5h-7.2534c.1323 7.7153 3.2905 13.96 7.2534 14.4512z"/><path d="m150.7534 141.5h-7.2534v14.4512c3.9629-.4912 7.1211-6.7359 7.2534-14.4512z"/><path d="m157.9746 141.5h-6.2217c-.1064 6.2324-2.1699 11.5688-5.1089 14.0337 6.356-1.5952 11.105-7.2437 11.3306-14.0337z"/><path d="m151.7529 140.5h6.2217c-.2256-6.79-4.9746-12.4385-11.3306-14.0337 2.939 2.4649 5.0025 7.8013 5.1089 14.0337z"/></g><path d="m228 104c0-11.0459-8.9541-20-20-20s-20 8.9541-20 20 8.9541 20 20 20 20-8.9541 20-20zm-14.5.5h-5v5c0 .2749-.2251.5-.5.5s-.5-.2251-.5-.5v-5h-5c-.2749 0-.5-.2251-.5-.5s.2251-.5.5-.5h5v-5c0-.2749.2251-.5.5-.5s.5.2251.5.5v5h5c.2749 0 .5.2251.5.5s-.2251.5-.5.5z" fill="#fff"/><path d="m24.4238 68.3203c-.3662-.2861-.8359-.3838-1.2871-.2734l-6 1.5c-.6689.1679-1.1367.7666-1.1367 1.456v9.2734c-.2954-.1724-.6343-.2783-1-.2783-1.1025 0-2 .8975-2 2s.8975 2 2 2 2-.8975 2-2v-7.4937l7-1.8188v5.5908c-.2954-.1724-.6343-.2783-1-.2783-1.1025 0-2 .8975-2 2s.8975 2 2 2 2-.8975 2-2v-10.4951c0-.4648-.21-.8965-.5762-1.1826zm-9.4238 14.6777c-.5518 0-1-.4482-1-1s.4482-1 1-1 1 .4482 1 1-.4482 1-1 1zm8-2c-.5518 0-1-.4482-1-1s.4482-1 1-1 1 .4482 1 1-.4482 1-1 1zm1-9.3466-7 1.8188v-2.4673c0-.2305.1562-.4297.3789-.4854l6-1.5c.1465-.0381.3057-.0049.4287.0908.1221.0958.1924.2394.1924.3946z" fill="#fff"/><path d="m159 141c0-8.8223-7.1777-16-16-16s-16 7.1777-16 16 7.1777 16 16 16 16-7.1777 16-16zm-1.0254-.5h-6.2217c-.1064-6.2324-2.1699-11.5688-5.1089-14.0337 6.356 1.5952 11.105 7.2437 11.3306 14.0337zm-7.2212 0h-7.2534v-14.4512c3.9629.4912 7.1211 6.7359 7.2534 14.4512zm-8.2534-14.4512v14.4512h-7.2534c.1323-7.7153 3.2905-13.96 7.2534-14.4512zm-3.144.4175c-2.939 2.4648-5.0024 7.8013-5.1089 14.0337h-6.2217c.2256-6.79 4.9746-12.4385 11.3306-14.0337zm-11.3306 15.0337h6.2217c.1064 6.2324 2.1699 11.5688 5.1089 14.0337-6.356-1.5952-11.105-7.2437-11.3306-14.0337zm7.2212 0h7.2534v14.4512c-3.9629-.4912-7.1211-6.7359-7.2534-14.4512zm8.2534 14.4512v-14.4512h7.2534c-.1323 7.7153-3.2905 13.96-7.2534 14.4512zm3.144-.4175c2.939-2.4648 5.0024-7.8013 5.1089-14.0337h6.2217c-.2256 6.79-4.9746 12.4385-11.3306 14.0337z" fill="#fff"/><path d="m168 112c.5522 0 1-.4478 1-1s-.4478-1-1-1h-50c-.5522 0-1 .4478-1 1s.4478 1 1 1z" fill="#fff"/><circle cx="93" cy="111" fill="#fff" r="1"/><circle cx="89" cy="111" fill="#fff" r="1"/><circle cx="85" cy="111" fill="#fff" r="1"/><path d="m213.5 103.5h-5v-5c0-.2749-.2251-.5-.5-.5s-.5.2251-.5.5v5h-5c-.2749 0-.5.2251-.5.5s.2251.5.5.5h5v5c0 .2749.2251.5.5.5s.5-.2251.5-.5v-5h5c.2749 0 .5-.2251.5-.5s-.2251-.5-.5-.5z"/><path d="m327.3535 118.1465c-.1953-.1953-.5117-.1953-.707 0l-2.5 2.5c-.1953.1953-.1953.5117 0 .707l2.5 2.5c.0976.0977.2256.1465.3535.1465s.2559-.0488.3535-.1465c.1953-.1953.1953-.5117 0-.707l-2.1465-2.1465 2.1465-2.1465c.1953-.1953.1953-.5117 0-.707z" fill="#fff"/><path d="m89.3535 73.1465c-.1953-.1953-.5117-.1953-.707 0s-.1953.5117 0 .707l2.1465 2.1465-2.1465 2.1465c-.1953.1953-.1953.5117 0 .707.0976.0977.2256.1465.3535.1465s.2559-.0488.3535-.1465l2.5-2.5c.1953-.1953.1953-.5117 0-.707z" fill="#fff"/><path d="m89.499 11.5h39.5264c-.0078-.167-.0254-.3311-.0254-.5s.0176-.333.0254-.5h-39.5264c-.2754 0-.499.2236-.499.499v.002c0 .2754.2236.499.499.499z" fill="#07c1e4"/><path d="m150.9746 11.5h39.5264c.2754 0 .499-.2236.499-.499v-.002c0-.2754-.2236-.499-.499-.499h-39.5264c.0078.167.0254.3311.0254.5s-.0176.333-.0254.5z" fill="#afafaf"/><path d="m140 1c5.514 0 10 4.486 10 10s-4.486 10-10 10-10-4.486-10-10 4.486-10 10-10m0-1c-6.0751 0-11 4.9249-11 11s4.9249 11 11 11 11-4.9249 11-11-4.9249-11-11-11z" fill="#005073"/></svg>