<?xml version="1.0" encoding="utf-8"?>
<!-- Generator: Adobe Illustrator 21.0.2, SVG Export Plug-In . SVG Version: 6.00 Build 0)  -->
<svg version="1.1" id="Layer_1" xmlns="http://www.w3.org/2000/svg" xmlns:xlink="http://www.w3.org/1999/xlink" x="0px" y="0px"
	 viewBox="0 0 40 40" style="enable-background:new 0 0 40 40;" xml:space="preserve">
<style type="text/css">
	.st0{fill:#FFFFFF;}
	.st1{opacity:0.08;fill:#444444;}
	.st2{fill:#07C1E4;}
	.st3{opacity:0.16;fill:#444444;}
	.st4{fill:#05A1BF;}
	.st5{opacity:0.16;fill:none;stroke:#444444;stroke-width:0.5;stroke-miterlimit:10;}
	.st6{fill:#444444;}
	.st7{opacity:0.5;fill:#FF4444;}
	.st8{fill:#0000F9;}
	.st9{opacity:0.5;fill:#FFF800;}
	.st10{fill:#E3E3E3;}
	.st11{fill:#D4D4D4;}
	.st12{fill:#F0F0F0;}
	.st13{fill:#30D557;}
	.st14{fill:#FF513D;}
	.st15{fill:#FFB400;}
</style>
<path class="st6" d="M33.834,13.1543c-0.709-0.292-1.5156-0.1309-2.0576,0.4092L28,17.3245V12.5c0-1.9297-1.5684-3.5-3.498-3.5H8.5
	C6.5703,9,5,10.5703,5,12.5v15C5,29.4297,6.5703,31,8.5,31h16.002C26.4316,31,28,29.4297,28,27.5v-4.7932l3.7754,3.76
	c0.3623,0.3623,0.8438,0.5547,1.334,0.5547c0.2432,0,0.4893-0.0479,0.7246-0.1445C34.542,26.583,35,25.8984,35,25.1318V14.8994
	C35,14.1328,34.542,13.4482,33.834,13.1543z M24.502,29H8.5C7.6729,29,7,28.3271,7,27.5v-15C7,11.6729,7.6729,11,8.5,11h16.002
	c0.8271,0,1.5,0.6729,1.5,1.5v7.2371c0,0.0105-0.0005,0.0208,0,0.0312v0.4945c-0.0005,0.0105,0,0.0208,0,0.0312V27.5
	C26.002,28.3271,25.3291,29,24.502,29z M33,24.8643l-4.8652-4.8486L33,15.167V24.8643z"/>
</svg>
