<?xml version="1.0" encoding="UTF-8"?>
<svg width="16px" height="16px" viewBox="0 0 16 16" version="1.1" xmlns="http://www.w3.org/2000/svg" xmlns:xlink="http://www.w3.org/1999/xlink">
    <!-- Generator: Sketch 49.3 (51167) - http://www.bohemiancoding.com/sketch -->
    <title>Video_Muted</title>
    <desc>Created with Sketch.</desc>
    <defs></defs>
    <g id="Page-1" stroke="none" stroke-width="1" fill="none" fill-rule="evenodd">
        <g id="camera-muted_16" transform="translate(0.000000, 2.000000)" fill="#000000">
            <g id="icon">
                <path d="M12.0259,6 L14.9999,3.003 L15.0159,8.99 L12.0259,6 Z M9.9909,11 L2.7069,11 L10.9999,2.707 L10.9999,9.991 C10.9999,10.547 10.5469,11 9.9909,11 Z M0.9999,9.991 L0.9999,2.009 C0.9999,1.453 1.4529,1 2.0089,1 L9.9909,1 C10.3449,1 10.6419,1.194 10.8219,1.471 L1.4709,10.822 C1.1939,10.642 0.9999,10.345 0.9999,9.991 Z M15.3879,2.088 C15.0159,1.936 14.5929,2.02 14.3089,2.303 L11.9999,4.612 L11.9999,2.009 C11.9999,1.915 11.9849,1.825 11.9719,1.734 L12.8489,0.857 C13.0449,0.662 13.0449,0.346 12.8489,0.15 C12.6539,-0.045 12.3379,-0.045 12.1419,0.15 L11.5439,0.749 C11.1749,0.296 10.6199,0 9.9909,0 L2.0089,0 C0.9019,0 -0.0001,0.899 -0.0001,2.009 L-0.0001,9.991 C-0.0001,10.619 0.2959,11.175 0.7489,11.544 L0.1469,12.146 C-0.0491,12.342 -0.0491,12.658 0.1469,12.854 C0.2439,12.951 0.3719,13 0.4999,13 C0.6279,13 0.7559,12.951 0.8539,12.854 L1.7349,11.973 C1.8249,11.984 1.9149,12 2.0089,12 L9.9909,12 C11.0979,12 11.9999,11.101 11.9999,9.991 L11.9999,7.388 L14.3089,9.697 C14.4989,9.888 14.7519,9.987 15.0079,9.987 C15.1359,9.987 15.2659,9.963 15.3889,9.911 C15.7599,9.758 15.9999,9.398 15.9999,8.997 L15.9999,3.003 C15.9999,2.601 15.7599,2.241 15.3879,2.088 Z" id="fill"></path>
            </g>
        </g>
        <g id="slices" transform="translate(-21.000000, -1091.000000)"></g>
    </g>
</svg>