<?xml version="1.0" encoding="UTF-8"?>
<svg width="16px" height="16px" viewBox="0 0 16 16" version="1.1" xmlns="http://www.w3.org/2000/svg" xmlns:xlink="http://www.w3.org/1999/xlink">
    <!-- Generator: Sketch 49.3 (51167) - http://www.bohemiancoding.com/sketch -->
    <title>Volume_Muted</title>
    <desc>Created with Sketch.</desc>
    <defs></defs>
    <g id="Page-1" stroke="none" stroke-width="1" fill="none" fill-rule="evenodd">
        <g id="speaker-muted_16" fill="#000000">
            <g id="icon">
                <path d="M13.9998283,2.7072785 C16.7716804,5.84541401 16.657471,10.656529 13.6572,13.6568 C13.5592,13.7548 13.4312,13.8038 13.3032,13.8038 C13.1762,13.8038 13.0482,13.7548 12.9502,13.6568 C12.7552,13.4618 12.7552,13.1458 12.9502,12.9498 C15.5603583,10.3396417 15.6740247,6.16334425 13.2911994,3.41590742 L12.581859,4.12524776 C13.4998999,5.20706671 14.0002,6.56534961 14.0002,7.9998 C14.0002,9.6028 13.3762,11.1098 12.2432,12.2418 C12.1452,12.3398 12.0172,12.3888 11.8892,12.3888 C11.7622,12.3888 11.6342,12.3398 11.5362,12.2418 C11.3412,12.0468 11.3412,11.7308 11.5362,11.5348 C12.4802,10.5908 13.0002,9.3358 13.0002,7.9998 C13.0002,6.83177022 12.6027356,5.72565316 11.8719592,4.83514754 L9,7.70710678 L9,15.2658 C9,15.5638 8.822,15.8288 8.547,15.9438 C8.455,15.9818 8.36,15.9998 8.265,15.9998 C8.074,15.9998 7.887,15.9248 7.746,15.7838 L4.44621713,12.2608897 L1.85355339,14.8535534 C1.65829124,15.0488155 1.34170876,15.0488155 1.14644661,14.8535534 C0.951184464,14.6582912 0.951184464,14.3417088 1.14644661,14.1464466 L3.76223537,11.5306578 L3.265,10.9998 L2,10.9998 C0.898,10.9998 0,10.1028 0,8.9998 L0,6.9998 C0,5.8978 0.898,4.9998 2,4.9998 L3.265,4.9998 L7.735,0.2278 C7.739,0.2238 7.742,0.2198 7.746,0.2158 C7.957,0.0048 8.271,-0.0582 8.547,0.0568 C8.822,0.1708 9,0.4368 9,0.7348 L9,6.29289322 L14.1464466,1.14644661 C14.3417088,0.951184464 14.6582912,0.951184464 14.8535534,1.14644661 C15.0488155,1.34170876 15.0488155,1.65829124 14.8535534,1.85355339 L13.9998283,2.7072785 Z M5.15343234,11.5536744 L8,14.5928 L8,8.70710678 L5.15343234,11.5536744 Z M4.46945945,10.8234338 L8,7.29289322 L8,1.4068 L3.846,5.8418 C3.752,5.9428 3.62,5.9998 3.481,5.9998 L2,5.9998 C1.449,5.9998 1,6.4478 1,6.9998 L1,8.9998 C1,9.5518 1.449,9.9998 2,9.9998 L3.481,9.9998 C3.62,9.9998 3.752,10.0578 3.846,10.1578 L4.46945945,10.8234338 Z" id="fill"></path>
            </g>
        </g>
        <g id="slices" transform="translate(-21.000000, -1115.000000)"></g>
    </g>
</svg>