<?xml version="1.0" encoding="utf-8"?>
<!-- Generator: Adobe Illustrator 21.0.2, SVG Export Plug-In . SVG Version: 6.00 Build 0)  -->
<svg version="1.1" id="Layer_1" xmlns="http://www.w3.org/2000/svg" xmlns:xlink="http://www.w3.org/1999/xlink" x="0px" y="0px"
	 viewBox="0 0 40 40" style="enable-background:new 0 0 40 40;" xml:space="preserve">
<style type="text/css">
	.st0{fill:#FFFFFF;}
	.st1{opacity:0.08;fill:#444444;}
	.st2{fill:#07C1E4;}
	.st3{opacity:0.16;fill:#444444;}
	.st4{fill:#05A1BF;}
	.st5{opacity:0.16;fill:none;stroke:#444444;stroke-width:0.5;stroke-miterlimit:10;}
	.st6{fill:#444444;}
	.st7{opacity:0.5;fill:#FF4444;}
	.st8{fill:#0000F9;}
	.st9{opacity:0.5;fill:#FFF800;}
	.st10{fill:#E3E3E3;}
	.st11{fill:#D4D4D4;}
	.st12{fill:#F0F0F0;}
	.st13{fill:#30D557;}
	.st14{fill:#FF513D;}
	.st15{fill:#FFB400;}
</style>
<path class="st6" d="M31.3823,10.0335l1.3501-1.35c0.3906-0.3906,0.3906-1.0234,0-1.4141s-1.0234-0.3906-1.4141,0l-1.9961,1.9963
	c-0.0088,0.0082-0.0205,0.0107-0.0293,0.0193s-0.0112,0.0203-0.0195,0.0291l-2.9512,2.9517
	c-0.0088,0.0082-0.0205,0.0107-0.0293,0.0193s-0.0112,0.0203-0.0195,0.0291L23,15.5878V6.4433c0-0.5869-0.3496-1.1104-0.8916-1.335
	c-0.541-0.2236-1.1602-0.1006-1.5742,0.3135c-0.002,0.001-0.0029,0.0029-0.0039,0.0039l-8.4648,8.5664H8.5
	c-1.9297,0-3.5,1.5703-3.5,3.5v5c0,1.9297,1.5703,3.5,3.5,3.5h3.5654l0.2632,0.267L7.293,31.2948
	c-0.3906,0.3906-0.3906,1.0234,0,1.4141c0.1953,0.1953,0.4512,0.293,0.707,0.293s0.5117-0.0977,0.707-0.293l5.0259-5.0261
	l6.8013,6.8952c0.2773,0.2773,0.6445,0.4238,1.0205,0.4238c0.1855,0,0.374-0.0361,0.5537-0.1104
	C22.6504,34.6669,23,34.1434,23,33.5565V18.4159l3.9663-3.9662C28.2822,16.0644,29,17.9983,29,19.9921
	c0,2.3125-0.9609,4.5469-2.707,6.293c-0.3906,0.3906-0.3906,1.0234,0,1.4141c0.1953,0.1953,0.4512,0.293,0.707,0.293
	s0.5117-0.0977,0.707-0.293c2.123-2.123,3.293-4.8604,3.293-7.707c0-2.525-0.9243-4.9616-2.6143-6.9622l1.582-1.582
	C31.9248,13.7581,33,16.75,33,19.9931c0,3.6016-1.3164,6.9014-3.707,9.292c-0.3906,0.3906-0.3906,1.0234,0,1.4141
	c0.1953,0.1953,0.4512,0.293,0.707,0.293s0.5117-0.0977,0.707-0.293C33.4756,27.9306,35,24.1288,35,19.9931
	C35,16.2129,33.7144,12.7216,31.3823,10.0335z M13.1953,24.2899c-0.1875-0.1904-0.4443-0.2979-0.7119-0.2979H8.5
	c-0.8271,0-1.5-0.6729-1.5-1.5v-5c0-0.8271,0.6729-1.5,1.5-1.5h3.9834c0.2676,0,0.5234-0.1074,0.7109-0.2969L21,7.7958v9.792
	l-7.2573,7.2572L13.1953,24.2899z M21,32.202l-5.8525-5.9333L21,20.4159V32.202z"/>
</svg>
