<svg enable-background="new 0 0 112 72" viewBox="0 0 112 72" xmlns="http://www.w3.org/2000/svg"><path d="m108 72h-104c-2.2091 0-4-1.7909-4-4v-64c0-2.2091 1.7909-4 4-4h104c2.2091 0 4 1.7909 4 4v64c0 2.2091-1.7909 4-4 4z" fill="#02bbcc"/><g fill="#fff"><path d="m56 20c-8.8223 0-16 7.1777-16 16s7.1777 16 16 16 16-7.1777 16-16-7.1777-16-16-16zm14.9747 15.5h-6.2219c-.1063-6.2325-2.1699-11.5688-5.1085-14.0336 6.3559 1.5952 11.105 7.2439 11.3304 14.0336zm-15.4747 0h-7.2535c.1326-7.7151 3.2905-13.96 7.2535-14.4511zm0 1v14.4511c-3.963-.4911-7.1208-6.7356-7.2535-14.4511zm1 0h7.2535c-.1327 7.7155-3.2905 13.96-7.2535 14.4511zm0-1v-14.4511c3.963.4911 7.1208 6.736 7.2535 14.4511zm-4.1442-14.0336c-2.9387 2.4648-5.0023 7.8011-5.1085 14.0336h-6.2219c.2253-6.7897 4.9744-12.4384 11.3304-14.0336zm-11.3305 15.0336h6.2219c.1063 6.2327 2.1699 11.569 5.1086 14.0337-6.3559-1.5952-11.1051-7.2437-11.3305-14.0337zm18.6188 14.0337c2.9387-2.4647 5.0024-7.801 5.1086-14.0337h6.2219c-.2253 6.79-4.9745 12.4385-11.3305 14.0337z"/><path d="m81 8h-50c-.5523 0-1-.4477-1-1 0-.5523.4477-1 1-1h50c.5523 0 1 .4477 1 1 0 .5523-.4477 1-1 1z"/><circle cx="15" cy="7" r="1"/><circle cx="11" cy="7" r="1"/><circle cx="7" cy="7" r="1"/></g></svg>