<svg enable-background="new 0 0 16 16" viewBox="0 0 16 16" xmlns="http://www.w3.org/2000/svg"><g fill="#444"><path d="m8.0047 12.6209c2.5516 0 4.62-2.0684 4.62-4.62 0-1.1476-.4186-2.1974-1.1113-3.0053-.1018 3.5642-3.0166 6.4236-6.6024 6.4364.8191.7389 1.9038 1.1889 3.0937 1.1889z"/><path d="m13.6866 2.3731c-.5594-.5653-1.4712-.5701-2.0364-.0107-.5653.5594-.5701 1.4712-.0107 2.0364.9547.9649 1.4805 2.2438 1.4805 3.6012 0 2.8232-2.2968 5.12-5.12 5.12-1.3682 0-2.6543-.5329-3.6215-1.5007-.5621-.5625-1.4739-.5628-2.0364-.0006-.5625.5621-.5628 1.4739-.0006 2.0364 1.5112 1.5122 3.5207 2.3449 5.6585 2.3449 4.4112 0 8-3.5888 8-8 0-2.121-.8216-4.1193-2.3134-5.6269z"/><path d="m3.36 10.6773c.0984 0 .1956.0076.2911.0218-.4884-.7842-.7711-1.7092-.7711-2.6991 0-2.8232 2.2968-5.12 5.12-5.12 1.0001 0 1.934.2885 2.7232.7863-.0136-.0954-.0206-.1924-.0201-.2906.0028-.5235.2092-1.0147.5813-1.3829.3442-.3406.7929-.5385 1.273-.5639-1.294-.9002-2.865-1.4289-4.5574-1.4289-4.4112 0-8 3.5888-8 8 0 1.6765.5188 3.234 1.4037 4.5211.0279-.48.2279-.9275.5708-1.2701.3702-.37.8622-.5737 1.3855-.5737z"/></g></svg>