<?xml version="1.0" encoding="utf-8"?>
<!-- Generator: Adobe Illustrator 22.0.1, SVG Export Plug-In . SVG Version: 6.00 Build 0)  -->
<svg version="1.1" id="Layer_1" xmlns="http://www.w3.org/2000/svg" xmlns:xlink="http://www.w3.org/1999/xlink" x="0px" y="0px"
	 viewBox="0 0 40 40" style="enable-background:new 0 0 40 40;" xml:space="preserve">
<style type="text/css">
	.st0{fill:#444444;}
</style>
<path class="st0" d="M20,4C11.1777,4,4,11.1777,4,20s7.1777,16,16,16s16-7.1777,16-16S28.8223,4,20,4z M6,20
	c0-7.7197,6.2803-14,14-14c1.9004,0,3.7118,0.3841,5.3655,1.0731c0.4517,1.6201,0.6931,3.2924,0.6931,4.9855
	c0,8.779-6.1835,16.4407-15.0447,18.6624C7.9526,28.1508,6,24.3007,6,20z M20,34c-2.4959,0-4.8362-0.6643-6.8676-1.8137
	c8.8715-2.9362,14.9262-10.9793,14.9262-20.1277c0-1.2593-0.1284-2.5073-0.355-3.7365C31.4927,10.8301,34,15.1256,34,20
	C34,27.7197,27.7197,34,20,34z"/>
</svg>
