<?xml version="1.0" encoding="utf-8"?>
<!-- Generator: Adobe Illustrator 22.0.1, SVG Export Plug-In . SVG Version: 6.00 Build 0)  -->
<svg version="1.1" id="Layer_1" xmlns="http://www.w3.org/2000/svg" xmlns:xlink="http://www.w3.org/1999/xlink" x="0px" y="0px"
	 viewBox="0 0 16 16" style="enable-background:new 0 0 16 16;" xml:space="preserve">
<style type="text/css">
	.st0{fill:#07C1E4;}
</style>
<g>
	<path class="st0" d="M8.0047,12.6209c2.5516,0,4.62-2.0684,4.62-4.62c0-1.1476-0.4186-2.1974-1.1113-3.0053
		c-0.1018,3.5642-3.0166,6.4236-6.6024,6.4364C5.7301,12.1709,6.8148,12.6209,8.0047,12.6209z"/>
	<path class="st0" d="M13.6866,2.3731c-0.5594-0.5653-1.4712-0.5701-2.0364-0.0107c-0.5653,0.5594-0.5701,1.4712-0.0107,2.0364
		C12.5942,5.3637,13.12,6.6426,13.12,8c0,2.8232-2.2968,5.12-5.12,5.12c-1.3682,0-2.6543-0.5329-3.6215-1.5007
		c-0.5621-0.5625-1.4739-0.5628-2.0364-0.0006c-0.5625,0.5621-0.5628,1.4739-0.0006,2.0364C3.8527,15.1673,5.8622,16,8,16
		c4.4112,0,8-3.5888,8-8C16,5.879,15.1784,3.8807,13.6866,2.3731z"/>
	<path class="st0" d="M3.36,10.6773c0.0984,0,0.1956,0.0076,0.2911,0.0218C3.1627,9.9149,2.88,8.9899,2.88,8
		c0-2.8232,2.2968-5.12,5.12-5.12c1.0001,0,1.934,0.2885,2.7232,0.7863c-0.0136-0.0954-0.0206-0.1924-0.0201-0.2906
		c0.0028-0.5235,0.2092-1.0147,0.5813-1.3829c0.3442-0.3406,0.7929-0.5385,1.273-0.5639C11.2634,0.5287,9.6924,0,8,0
		C3.5888,0,0,3.5888,0,8c0,1.6765,0.5188,3.234,1.4037,4.5211c0.0279-0.48,0.2279-0.9275,0.5708-1.2701
		C2.3447,10.881,2.8367,10.6773,3.36,10.6773z"/>
</g>
</svg>
